<?xml version="1.0" encoding="UTF-8"?><svg xmlns="http://www.w3.org/2000/svg" viewBox="0 0 565 280"><defs><style>.d{fill:#356d66;}.e{fill:#fff;}.f{fill:#5c677d;}.g{fill:#33415c;}.h{fill:#59aaa4;}.i{fill:#fefefe;}</style></defs><g id="a"/><g id="b"><g id="c"><path class="e" d="M449.73,47.7c4.08-.66,7.77-2.5,10.67-5.17,2.67-2.91,4.51-6.59,5.17-10.68,.17-1,1.61-1,1.78,0,.66,4.09,2.5,7.77,5.17,10.68,1.45,1.33,3.1,2.46,4.89,3.34,1.8,.87,3.74,1.5,5.78,1.83,.51,.08,.76,.48,.76,.88s-.25,.81-.76,.89c-4.08,.66-7.77,2.5-10.67,5.17-2.67,2.91-4.51,6.59-5.17,10.67-.17,1.01-1.61,1.01-1.78,0-.66-4.08-2.5-7.76-5.17-10.67-2.9-2.67-6.59-4.51-10.67-5.17-1.01-.16-1.01-1.61,0-1.77Z"/><path class="e" d="M489.3,21.19c2.57-.42,4.89-1.58,6.73-3.26,1.68-1.83,2.84-4.16,3.26-6.73,.1-.64,1.01-.64,1.12,0,.41,2.57,1.58,4.9,3.26,6.73,1.83,1.68,4.15,2.84,6.73,3.26,.63,.1,.63,1.01,0,1.12-2.58,.41-4.9,1.58-6.73,3.26-1.68,1.83-2.85,4.15-3.26,6.73-.11,.63-1.02,.63-1.12,0-.42-2.58-1.58-4.9-3.26-6.73-1.84-1.68-4.16-2.85-6.73-3.26-.64-.11-.64-1.02,0-1.12Z"/><path class="e" d="M510.88,53.63c.68,0,1.36,.43,1.5,1.28,1.12,6.92,4.24,13.17,8.77,18.1,2.47,2.26,5.26,4.17,8.3,5.66,3.04,1.49,6.33,2.55,9.8,3.11,.85,.14,1.27,.82,1.27,1.5s-.42,1.36-1.27,1.5c-6.93,1.12-13.17,4.25-18.1,8.77-4.53,4.93-7.65,11.18-8.77,18.1-.28,1.71-2.73,1.71-3.01,0-1.12-6.92-4.24-13.17-8.77-18.1-4.93-4.52-11.17-7.65-18.1-8.77-1.7-.27-1.7-2.73,0-3,6.93-1.12,13.17-4.25,18.1-8.78,4.53-4.92,7.65-11.17,8.77-18.09,.14-.85,.82-1.28,1.51-1.28Z"/><path class="e" d="M560.86,275.94c-2.54,2.51-6.02,4.06-9.87,4.06H14.01c-7.74,0-14.01-6.27-14.01-14.01V14.01C0,6.27,6.27,0,14.01,0H399.96c-25.86,13.63-48.22,33.96-65.2,58.92l28.2,14.41h0v-1.88c0-1.5,1.15-2.76,2.66-2.9l16.04-1.47h38.86c6.09,0,11.76,3.12,15.05,8.24l6.7,10.46,2.58,4.03c.79,1.24,1.22,2.69,1.22,4.16,0,.31-.02,.61-.06,.91-.01,.09-.02,.18-.04,.27-.03,.21-.07,.41-.12,.61-.02,.1-.04,.19-.07,.29-.06,.2-.12,.4-.19,.59-.03,.08-.06,.16-.09,.23-.1,.27-.22,.53-.36,.78-.35,.67-.81,1.27-1.33,1.81-1.39,1.41-3.33,2.26-5.47,2.26h-8.04v4.47c4.31,.23,8.3,.98,11.25,2.59,4.12,2.25,11.92,10.53,21.2,19.91,6.31,6.36,14.08,10.54,21.72,21.92,2.81,4.19,9.41,20.22,17.82,32.54,.99,1.44,2.05,3.03,3.18,4.74,.28,.43,.57,.86,.86,1.3,.1,.16,.2,.31,.3,.46,.49,.75,.98,1.51,1.49,2.29,1.53,2.35,3.16,4.88,4.85,7.53,1.02,1.6,2.06,3.24,3.12,4.92,.68,1.08,1.37,2.17,2.07,3.28,.64,1.03,1.29,2.06,1.95,3.11,.12,.17,.23,.35,.34,.53,.74,1.18,1.49,2.37,2.24,3.58,1.13,1.8,2.27,3.63,3.42,5.48,1.73,2.77,3.47,5.57,5.21,8.38,.35,.56,.69,1.11,1.04,1.67,.24,.38,.47,.76,.71,1.14,.77,1.25,1.55,2.49,2.32,3.74,.38,.62,.77,1.24,1.16,1.87,.66,1.07,1.33,2.14,1.99,3.21,1.36,2.2,2.71,4.38,4.04,6.52,.64,1.02,1.27,2.04,1.9,3.05,6.25,10.06,11.98,19.22,16.37,25.99Z"/><path class="h" d="M449.73,47.7c4.08-.66,7.77-2.5,10.67-5.17,2.67-2.91,4.51-6.59,5.17-10.68,.17-1,1.61-1,1.78,0,.66,4.09,2.5,7.77,5.17,10.68,1.45,1.33,3.1,2.46,4.89,3.34,1.8,.87,3.74,1.5,5.78,1.83,.51,.08,.76,.48,.76,.88s-.25,.81-.76,.89c-4.08,.66-7.77,2.5-10.67,5.17-2.67,2.91-4.51,6.59-5.17,10.67-.17,1.01-1.61,1.01-1.78,0-.66-4.08-2.5-7.76-5.17-10.67-2.9-2.67-6.59-4.51-10.67-5.17-1.01-.16-1.01-1.61,0-1.77Z"/><path class="h" d="M489.3,21.19c2.57-.42,4.89-1.58,6.73-3.26,1.68-1.83,2.84-4.16,3.26-6.73,.1-.64,1.01-.64,1.12,0,.41,2.57,1.58,4.9,3.26,6.73,1.83,1.68,4.15,2.84,6.73,3.26,.63,.1,.63,1.01,0,1.12-2.58,.41-4.9,1.58-6.73,3.26-1.68,1.83-2.85,4.15-3.26,6.73-.11,.63-1.02,.63-1.12,0-.42-2.58-1.58-4.9-3.26-6.73-1.84-1.68-4.16-2.85-6.73-3.26-.64-.11-.64-1.02,0-1.12Z"/><path class="h" d="M510.88,53.63c.68,0,1.36,.43,1.5,1.28,1.12,6.92,4.24,13.17,8.77,18.1,2.47,2.26,5.26,4.17,8.3,5.66,3.04,1.49,6.33,2.55,9.8,3.11,.85,.14,1.27,.82,1.27,1.5s-.42,1.36-1.27,1.5c-6.93,1.12-13.17,4.25-18.1,8.77-4.53,4.93-7.65,11.18-8.77,18.1-.28,1.71-2.73,1.71-3.01,0-1.12-6.92-4.24-13.17-8.77-18.1-4.93-4.52-11.17-7.65-18.1-8.77-1.7-.27-1.7-2.73,0-3,6.93-1.12,13.17-4.25,18.1-8.78,4.53-4.92,7.65-11.17,8.77-18.09,.14-.85,.82-1.28,1.51-1.28Z"/><path class="h" d="M564.95,12.81c-.24-2.77-1.28-5.31-2.89-7.38-.08-.1-.15-.2-.24-.29-2.14-2.63-5.23-4.47-8.76-4.98-.46-.07-.93-.12-1.41-.14-.22,0-.44-.02-.66-.02h-151.03c-25.86,13.63-48.22,33.96-65.2,58.92-.69,1.03-1.38,2.06-2.05,3.1-.31,.47-.61,.94-.91,1.42l31.16,9.89h0v-1.88c0-1.5,1.15-2.76,2.66-2.9l16.04-1.47h38.86c6.09,0,11.76,3.12,15.05,8.24l6.7,10.46,2.58,4.03c.79,1.24,1.22,2.69,1.22,4.16,0,.31-.02,.61-.06,.91-.01,.09-.02,.18-.04,.27-.03,.21-.07,.41-.12,.61-.02,.1-.04,.19-.07,.29-.06,.2-.12,.4-.19,.59-.03,.08-.06,.16-.09,.23-.1,.27-.22,.53-.36,.78-.35,.67-.81,1.27-1.33,1.81-1.39,1.41-3.33,2.26-5.47,2.26h-8.04v4.47c4.31,.23,8.3,.98,11.25,2.59,4.12,2.25,11.92,10.53,21.2,19.91,6.31,6.36,14.08,10.54,21.72,21.92,2.81,4.19,9.41,20.22,17.82,32.54,.99,1.44,2.05,3.03,3.18,4.74,.28,.43,.57,.86,.86,1.3,.1,.16,.2,.31,.3,.46,.49,.75,.98,1.51,1.49,2.29,1.53,2.35,3.16,4.88,4.85,7.53,1.02,1.6,2.06,3.24,3.12,4.92,.68,1.08,1.37,2.17,2.07,3.28,.64,1.03,1.29,2.06,1.95,3.11,.12,.17,.23,.35,.34,.53,.74,1.18,1.49,2.37,2.24,3.58,1.13,1.8,2.27,3.63,3.42,5.48,1.73,2.77,3.47,5.57,5.21,8.38,.35,.56,.69,1.11,1.04,1.67,.24,.38,.47,.76,.71,1.14,.77,1.25,1.55,2.49,2.32,3.74,.38,.62,.77,1.24,1.16,1.87,.66,1.07,1.33,2.14,1.99,3.21,1.36,2.2,2.71,4.38,4.04,6.52,.64,1.02,1.27,2.04,1.9,3.05,6.25,10.06,11.98,19.22,16.37,25.99,.16-.16,.32-.32,.47-.49,.15-.16,.3-.33,.44-.51,.15-.17,.29-.35,.42-.53,.14-.18,.27-.36,.4-.55,.13-.18,.25-.37,.37-.57,.25-.41,.48-.84,.69-1.27,.08-.18,.16-.37,.24-.55,.09-.21,.17-.42,.25-.64,.08-.21,.15-.43,.22-.65,.07-.22,.14-.44,.19-.67,.05-.19,.1-.39,.14-.59,.03-.14,.06-.28,.08-.42,.03-.11,.05-.22,.07-.33-.01-.01-.01-.02,0-.03,.1-.7,.16-1.42,.16-2.15V14.01c0-.4-.02-.8-.05-1.2Zm-75.65,8.38c2.57-.42,4.89-1.58,6.73-3.26,1.68-1.83,2.84-4.16,3.26-6.73,.1-.64,1.01-.64,1.12,0,.41,2.57,1.58,4.9,3.26,6.73,1.83,1.68,4.15,2.84,6.73,3.26,.63,.1,.63,1.01,0,1.12-2.58,.41-4.9,1.58-6.73,3.26-1.68,1.83-2.85,4.15-3.26,6.73-.11,.63-1.02,.63-1.12,0-.42-2.58-1.58-4.9-3.26-6.73-1.84-1.68-4.16-2.85-6.73-3.26-.64-.11-.64-1.02,0-1.12Zm-16.78,33.45c-2.67,2.91-4.51,6.59-5.17,10.67-.17,1.01-1.61,1.01-1.78,0-.66-4.08-2.5-7.76-5.17-10.67-2.9-2.67-6.59-4.51-10.67-5.17-1.01-.16-1.01-1.61,0-1.77,4.08-.66,7.77-2.5,10.67-5.17,2.67-2.91,4.51-6.59,5.17-10.68,.17-1,1.61-1,1.78,0,.66,4.09,2.5,7.77,5.17,10.68,1.45,1.33,3.1,2.46,4.89,3.34,1.8,.87,3.74,1.5,5.78,1.83,.51,.08,.76,.48,.76,.88s-.25,.81-.76,.89c-4.08,.66-7.77,2.5-10.67,5.17Zm66.73,30.14c-6.93,1.12-13.17,4.25-18.1,8.77-4.53,4.93-7.65,11.18-8.77,18.1-.28,1.71-2.73,1.71-3.01,0-1.12-6.92-4.24-13.17-8.77-18.1-4.93-4.52-11.17-7.65-18.1-8.77-1.7-.27-1.7-2.73,0-3,6.93-1.12,13.17-4.25,18.1-8.78,4.53-4.92,7.65-11.17,8.77-18.09,.14-.85,.82-1.28,1.51-1.28s1.36,.43,1.5,1.28c1.12,6.92,4.24,13.17,8.77,18.1,2.47,2.26,5.26,4.17,8.3,5.66,3.04,1.49,6.33,2.55,9.8,3.11,.85,.14,1.27,.82,1.27,1.5s-.42,1.36-1.27,1.5Z"/><path class="h" d="M564.77,268.5c.03-.11,.05-.22,.07-.33-.95,6.71-6.25,11.83-12.64,11.83h-223.24c-18.31-30.42-28.96-66.84-28.96-106,0-27.98,5.44-54.57,15.23-78.57,4.6-11.28,10.16-21.98,16.57-31.99l31.16,9.89h0v-1.88c0-1.5,1.15-2.76,2.66-2.9l16.04-1.47h38.86c6.09,0,11.76,3.12,15.05,8.24l6.7,10.46,2.58,4.03c.79,1.24,1.22,2.69,1.22,4.16,0,.31-.02,.61-.06,.91-.01,.09-.02,.18-.04,.27-.03,.21-.07,.41-.12,.61-.02,.1-.04,.19-.07,.29-.06,.2-.12,.4-.19,.59-.03,.08-.06,.16-.09,.23-.1,.27-.22,.53-.36,.78-.35,.67-.81,1.27-1.33,1.81-1.39,1.41-3.33,2.26-5.47,2.26h-8.04v4.47c4.31,.23,8.3,.98,11.25,2.59,4.12,2.25,11.92,10.53,21.2,19.91,6.31,6.36,14.08,10.54,21.72,21.92,2.81,4.19,9.41,20.22,17.82,32.54,.99,1.44,2.05,3.03,3.18,4.74,.28,.43,.57,.86,.86,1.3,.1,.16,.2,.31,.3,.46,.49,.75,.98,1.51,1.49,2.29,1.53,2.35,3.16,4.88,4.85,7.53,1.02,1.6,2.06,3.24,3.12,4.92,.68,1.08,1.37,2.17,2.07,3.28,.64,1.03,1.29,2.06,1.95,3.11,.12,.17,.23,.35,.34,.53,.74,1.18,1.49,2.37,2.24,3.58,1.13,1.8,2.27,3.63,3.42,5.48,1.73,2.77,3.47,5.57,5.21,8.38,.35,.56,.69,1.11,1.04,1.67,.24,.38,.47,.76,.71,1.14,.77,1.25,1.55,2.49,2.32,3.74,.38,.62,.77,1.24,1.16,1.87,.66,1.07,1.33,2.14,1.99,3.21,1.36,2.2,2.71,4.38,4.04,6.52,.64,1.02,1.27,2.04,1.9,3.05,6.25,10.06,11.98,19.22,16.37,25.99,.16-.16,.32-.32,.47-.49,.15-.16,.3-.33,.44-.51,.15-.17,.29-.35,.42-.53,.14-.18,.27-.36,.4-.55,.13-.18,.25-.37,.37-.57,.25-.41,.48-.84,.69-1.27,.08-.18,.16-.37,.24-.55,.09-.21,.17-.42,.25-.64,.08-.21,.15-.43,.22-.65,.07-.22,.14-.44,.19-.67,.05-.19,.1-.39,.14-.59,.03-.14,.06-.28,.08-.42Z"/><g><path class="g" d="M54.55,72.68c-1.45,0-2.8-.25-4.05-.74-1.25-.49-2.33-1.2-3.24-2.11-.91-.91-1.63-1.99-2.14-3.22-.51-1.23-.77-2.58-.77-4.06s.26-2.83,.77-4.06,1.23-2.31,2.15-3.22c.92-.91,2-1.62,3.24-2.11,1.24-.49,2.59-.74,4.06-.74,1.63,0,3.1,.29,4.42,.88,1.32,.59,2.42,1.45,3.32,2.59l-2.8,2.69c-.65-.77-1.36-1.34-2.15-1.72-.79-.38-1.65-.57-2.58-.57-.88,0-1.68,.15-2.42,.45-.73,.3-1.37,.73-1.91,1.29s-.95,1.22-1.25,1.99c-.3,.77-.44,1.61-.44,2.55s.15,1.78,.44,2.55c.3,.77,.71,1.43,1.25,1.99s1.17,.99,1.91,1.29c.73,.3,1.54,.45,2.42,.45,.93,0,1.79-.19,2.58-.57,.79-.38,1.51-.97,2.15-1.75l2.8,2.69c-.9,1.14-2,2.01-3.32,2.6-1.32,.6-2.8,.9-4.45,.9Z"/><path class="g" d="M64.87,72.35v-15.06h4.19v15.06h-4.19Zm2.96-5.71v-3.5h5.05v3.5h-5.05Zm6.26-1.32l-3.92-.45,5.08-7.59h4.46l-5.62,8.04Zm1.02,7.03l-4.84-7.14,3.41-2.1,6.37,9.24h-4.95Z"/><path class="g" d="M82.16,72.35v-15.06h4.17v8.96l7.04-8.96h3.84v15.06h-4.17v-8.96l-7.02,8.96h-3.87Z"/><path class="g" d="M99.52,75.59v-6.83h17.96v6.83h-3.9v-3.25h-10.16v3.25h-3.9Zm11.69-5.21v-9.52h-4.73l-.08,1.93c-.04,.8-.08,1.57-.13,2.3s-.16,1.39-.31,1.97c-.15,.59-.37,1.08-.66,1.48s-.67,.68-1.16,.83l-4.14-.62c.52,0,.94-.16,1.26-.49,.32-.33,.57-.78,.75-1.37,.18-.59,.31-1.26,.4-2.02,.09-.76,.15-1.55,.19-2.39l.19-5.21h12.61v13.1h-4.19Z"/><path class="g" d="M120.14,72.35v-15.06h4.19v15.06h-4.19Zm2.96-5.71v-3.5h5.05v3.5h-5.05Zm6.26-1.32l-3.92-.45,5.08-7.59h4.46l-5.62,8.04Zm1.02,7.03l-4.84-7.14,3.41-2.1,6.37,9.24h-4.95Z"/><path class="g" d="M141.4,72.57c-1.13,0-2.1-.2-2.9-.6-.81-.4-1.42-.95-1.85-1.64-.43-.69-.65-1.46-.65-2.32s.21-1.68,.63-2.35,1.09-1.2,2-1.58c.91-.38,2.11-.57,3.57-.57h3.84v2.55h-3.39c-.99,0-1.66,.17-2.03,.5-.37,.34-.55,.76-.55,1.26,0,.56,.21,1,.63,1.33,.42,.33,1,.49,1.73,.49s1.33-.17,1.88-.52c.56-.35,.96-.85,1.21-1.53l.65,2.02c-.31,.97-.86,1.71-1.67,2.21-.81,.5-1.85,.76-3.12,.76Zm4.41-.22v-2.94l-.27-.64v-5.26c0-.93-.27-1.66-.82-2.18-.55-.52-1.38-.78-2.51-.78-.77,0-1.53,.13-2.27,.38s-1.38,.59-1.9,1.02l-1.5-3.05c.79-.58,1.74-1.03,2.85-1.34,1.11-.32,2.24-.48,3.39-.48,2.2,0,3.92,.54,5.13,1.62,1.22,1.08,1.83,2.77,1.83,5.07v8.6h-3.92Z"/><path class="g" d="M162.98,72.35v-17.92l1.88,1.96h-5.65v-3.64h8.12v19.6h-4.35Z"/><path class="g" d="M177.04,72.68c-1.31,0-2.6-.18-3.88-.55-1.28-.36-2.38-.88-3.29-1.55l1.72-3.47c.72,.54,1.55,.97,2.49,1.29,.94,.32,1.9,.48,2.86,.48,1.09,0,1.95-.22,2.58-.67,.63-.45,.94-1.07,.94-1.88,0-.5-.13-.95-.38-1.34-.25-.39-.69-.69-1.33-.9-.64-.21-1.53-.31-2.67-.31h-4.81l.97-11.03h11.48v3.64h-9.92l2.26-2.07-.67,7.87-2.26-2.07h3.98c1.86,0,3.36,.27,4.5,.8,1.14,.53,1.97,1.26,2.49,2.17,.52,.92,.78,1.95,.78,3.11s-.28,2.23-.83,3.21c-.56,.98-1.41,1.77-2.57,2.38-1.16,.61-2.63,.91-4.42,.91Z"/><path class="g" d="M190.75,63.33c-.91,0-1.72-.22-2.42-.66-.7-.44-1.25-1.06-1.65-1.88s-.6-1.77-.6-2.87,.2-2.05,.6-2.86,.95-1.43,1.65-1.88c.7-.45,1.5-.67,2.42-.67s1.72,.22,2.42,.67c.7,.45,1.25,1.07,1.64,1.88,.39,.8,.59,1.75,.59,2.86s-.2,2.06-.59,2.87c-.39,.81-.94,1.44-1.64,1.88-.7,.44-1.51,.66-2.42,.66Zm0-2.3c.59,0,1.07-.26,1.42-.77,.36-.51,.54-1.29,.54-2.34s-.18-1.82-.54-2.34c-.36-.51-.83-.77-1.42-.77s-1.04,.26-1.41,.77c-.37,.51-.55,1.29-.55,2.34s.18,1.8,.55,2.32c.37,.52,.84,.78,1.41,.78Zm-1.64,11.31l12.85-19.6h3.2l-12.85,19.6h-3.2Zm14.41,.22c-.9,0-1.7-.22-2.41-.66-.71-.44-1.26-1.06-1.65-1.88s-.59-1.77-.59-2.87,.2-2.05,.59-2.86c.39-.8,.95-1.43,1.65-1.88,.71-.45,1.51-.67,2.41-.67s1.75,.22,2.45,.67c.7,.45,1.25,1.07,1.64,1.88,.39,.8,.59,1.75,.59,2.86s-.2,2.06-.59,2.87c-.39,.81-.94,1.44-1.64,1.88-.7,.44-1.51,.66-2.45,.66Zm0-2.3c.59,0,1.07-.26,1.42-.77,.36-.51,.54-1.29,.54-2.34s-.18-1.8-.54-2.32c-.36-.52-.83-.78-1.42-.78s-1.04,.26-1.41,.77c-.37,.51-.55,1.29-.55,2.34s.18,1.83,.55,2.34c.37,.51,.84,.77,1.41,.77Z"/><path class="g" d="M45.33,100.35v-15.06h4.17v5.88h6.29v-5.88h4.19v15.06h-4.19v-5.63h-6.29v5.63h-4.17Z"/><path class="g" d="M68.26,100.57c-1.13,0-2.1-.2-2.9-.6-.81-.4-1.42-.95-1.85-1.64-.43-.69-.65-1.46-.65-2.32s.21-1.68,.63-2.35,1.09-1.2,2-1.58c.91-.38,2.11-.57,3.57-.57h3.84v2.55h-3.39c-.99,0-1.66,.17-2.03,.5-.37,.34-.55,.76-.55,1.26,0,.56,.21,1,.63,1.33,.42,.33,1,.49,1.73,.49s1.33-.17,1.88-.52c.56-.35,.96-.85,1.21-1.53l.65,2.02c-.31,.97-.86,1.71-1.67,2.21-.81,.5-1.85,.76-3.12,.76Zm4.41-.22v-2.94l-.27-.64v-5.26c0-.93-.27-1.66-.82-2.18-.55-.52-1.38-.78-2.51-.78-.77,0-1.53,.13-2.27,.38s-1.38,.59-1.9,1.02l-1.5-3.05c.79-.58,1.74-1.03,2.85-1.34,1.11-.32,2.24-.48,3.39-.48,2.2,0,3.92,.54,5.13,1.62,1.22,1.08,1.83,2.77,1.83,5.07v8.6h-3.92Z"/><path class="g" d="M87.91,100.35v-15.06h14.38v15.06h-4.19v-12.46l.94,.98h-7.9l.94-.98v12.46h-4.17Z"/><path class="g" d="M113.42,100.57c-1.65,0-3.1-.34-4.34-1.01-1.25-.67-2.21-1.59-2.89-2.76-.68-1.17-1.02-2.5-1.02-3.99s.34-2.85,1.01-4.02,1.59-2.08,2.76-2.74c1.16-.66,2.48-.99,3.95-.99s2.69,.31,3.83,.94c1.14,.63,2.04,1.52,2.7,2.69,.66,1.17,.99,2.56,.99,4.19,0,.17,0,.36-.03,.57-.02,.21-.04,.42-.05,.6h-11.75v-2.55h9.54l-1.61,.76c0-.78-.15-1.47-.46-2.04-.31-.58-.73-1.03-1.26-1.36-.54-.33-1.17-.49-1.88-.49s-1.35,.16-1.9,.49c-.55,.33-.97,.78-1.28,1.37s-.46,1.28-.46,2.09v.67c0,.82,.17,1.54,.52,2.17,.35,.63,.84,1.1,1.48,1.43,.64,.33,1.38,.49,2.24,.49,.77,0,1.45-.12,2.03-.36,.58-.24,1.12-.61,1.6-1.09l2.23,2.52c-.66,.78-1.5,1.39-2.5,1.81-1,.42-2.16,.63-3.47,.63Z"/><path class="g" d="M123.63,105.78v-20.5h4v3.08l-.08,4.48,.27,4.45v8.48h-4.19Zm8.55-5.21c-1.22,0-2.29-.28-3.2-.84-.91-.56-1.63-1.41-2.14-2.56-.51-1.15-.77-2.6-.77-4.35s.24-3.23,.73-4.37,1.18-1.99,2.1-2.55c.91-.56,2.01-.84,3.28-.84,1.36,0,2.58,.32,3.67,.97,1.08,.64,1.94,1.54,2.58,2.7,.64,1.16,.95,2.52,.95,4.09s-.32,2.96-.95,4.12c-.64,1.16-1.5,2.05-2.58,2.69-1.08,.63-2.31,.95-3.67,.95Zm-.73-3.58c.7,0,1.32-.17,1.87-.5,.55-.34,.99-.82,1.32-1.44,.33-.62,.5-1.37,.5-2.23s-.17-1.62-.5-2.24c-.33-.62-.77-1.09-1.32-1.43-.55-.34-1.17-.5-1.87-.5s-1.33,.17-1.88,.5c-.56,.34-.99,.81-1.32,1.43-.32,.62-.48,1.36-.48,2.24s.16,1.6,.48,2.23c.32,.63,.76,1.11,1.32,1.44,.56,.34,1.18,.5,1.88,.5Z"/><path class="g" d="M142.34,100.35v-15.06h7.39c1.81,0,3.23,.34,4.25,1.02,1.02,.68,1.53,1.64,1.53,2.87s-.48,2.2-1.44,2.9c-.96,.7-2.23,1.05-3.8,1.05l.43-1.01c1.76,0,3.07,.34,3.94,1.01,.87,.67,1.3,1.65,1.3,2.94s-.48,2.37-1.45,3.14c-.97,.77-2.45,1.15-4.44,1.15h-7.71Zm3.84-8.88h3.17c.73,0,1.29-.14,1.65-.42,.37-.28,.55-.68,.55-1.2s-.18-.94-.55-1.2c-.37-.26-.92-.39-1.65-.39h-3.17v3.22Zm0,5.91h3.52c.77,0,1.35-.14,1.73-.41,.39-.27,.58-.69,.58-1.25s-.18-1-.54-1.27c-.36-.27-.92-.41-1.69-.41h-3.6v3.33Z"/><path class="g" d="M166.69,90.1c1.9,.02,3.33,.46,4.29,1.33s1.44,2.1,1.44,3.68-.55,2.95-1.64,3.88c-1.09,.92-2.64,1.39-4.65,1.39l-7.04-.03v-15.06h4.17v4.82h3.44Zm-.94,7.17c.81,.02,1.42-.16,1.85-.53,.43-.37,.65-.93,.65-1.68s-.22-1.28-.65-1.61c-.43-.33-1.05-.5-1.85-.52l-2.5-.03v4.37h2.5Zm8.23,3.08v-15.06h4.17v15.06h-4.17Z"/><path class="g" d="M182.2,100.35v-15.06h4.17v8.96l7.04-8.96h3.84v15.06h-4.17v-8.96l-7.02,8.96h-3.87Zm7.26-16.69c-1.58,0-2.76-.36-3.55-1.08-.79-.72-1.19-1.81-1.21-3.26h2.74c.02,.63,.19,1.14,.51,1.51,.32,.37,.81,.56,1.48,.56s1.14-.19,1.49-.56c.35-.37,.52-.88,.52-1.51h2.8c0,1.46-.4,2.54-1.21,3.26-.81,.72-2,1.08-3.58,1.08Z"/><path class="g" d="M210.52,100.26c-1.1-.24-2.12-.61-3.05-1.09l1.13-3.05c.73,.37,1.54,.66,2.41,.85s1.75,.29,2.65,.29c.65,0,1.2-.07,1.68-.21,.47-.14,.84-.34,1.09-.6,.25-.26,.38-.58,.38-.95,0-.48-.2-.85-.59-1.11s-.97-.38-1.72-.38h-2.96v-2.72h2.61c.48,0,.9-.06,1.24-.17,.34-.11,.6-.28,.77-.49,.17-.21,.26-.47,.26-.77,0-.32-.11-.59-.32-.81-.21-.22-.53-.4-.94-.52s-.93-.18-1.56-.18c-.72,0-1.46,.09-2.23,.27s-1.56,.43-2.37,.77l-1.02-3.02c.95-.41,1.89-.74,2.82-.98,.93-.24,1.85-.37,2.77-.39,1.34-.04,2.55,.11,3.63,.45s1.92,.82,2.54,1.46c.62,.63,.93,1.41,.93,2.32,0,.73-.21,1.38-.63,1.96-.42,.58-1,1.03-1.73,1.36s-1.56,.49-2.47,.49l.11-.87c1.59,0,2.85,.33,3.76,.99,.91,.66,1.37,1.56,1.37,2.7,0,.97-.32,1.82-.95,2.53-.64,.72-1.5,1.27-2.58,1.65-1.08,.38-2.31,.57-3.67,.57-1.11,0-2.22-.12-3.32-.36Z"/><path class="g" d="M228.33,100.57c-1.13,0-2.1-.2-2.9-.6-.81-.4-1.42-.95-1.85-1.64-.43-.69-.65-1.46-.65-2.32s.21-1.68,.63-2.35,1.09-1.2,2-1.58c.91-.38,2.11-.57,3.57-.57h3.84v2.55h-3.39c-.99,0-1.66,.17-2.03,.5-.37,.34-.55,.76-.55,1.26,0,.56,.21,1,.63,1.33,.42,.33,1,.49,1.73,.49s1.33-.17,1.88-.52c.56-.35,.96-.85,1.21-1.53l.65,2.02c-.31,.97-.86,1.71-1.67,2.21-.81,.5-1.85,.76-3.12,.76Zm4.41-.22v-2.94l-.27-.64v-5.26c0-.93-.27-1.66-.82-2.18-.55-.52-1.38-.78-2.51-.78-.77,0-1.53,.13-2.27,.38s-1.38,.59-1.9,1.02l-1.5-3.05c.79-.58,1.74-1.03,2.85-1.34,1.11-.32,2.24-.48,3.39-.48,2.2,0,3.92,.54,5.13,1.62,1.22,1.08,1.83,2.77,1.83,5.07v8.6h-3.92Z"/><path class="g" d="M240.34,100.35v-15.06h4.19v15.06h-4.19Zm2.96-5.71v-3.5h5.05v3.5h-5.05Zm6.26-1.32l-3.92-.45,5.08-7.59h4.46l-5.62,8.04Zm1.02,7.03l-4.84-7.14,3.41-2.1,6.37,9.24h-4.95Z"/><path class="g" d="M261.6,100.57c-1.13,0-2.1-.2-2.9-.6-.81-.4-1.42-.95-1.85-1.64-.43-.69-.65-1.46-.65-2.32s.21-1.68,.63-2.35,1.09-1.2,2-1.58c.91-.38,2.11-.57,3.57-.57h3.84v2.55h-3.39c-.99,0-1.66,.17-2.03,.5-.37,.34-.55,.76-.55,1.26,0,.56,.21,1,.63,1.33,.42,.33,1,.49,1.73,.49s1.33-.17,1.88-.52c.56-.35,.96-.85,1.21-1.53l.65,2.02c-.31,.97-.86,1.71-1.67,2.21-.81,.5-1.85,.76-3.12,.76Zm4.41-.22v-2.94l-.27-.64v-5.26c0-.93-.27-1.66-.82-2.18-.55-.52-1.38-.78-2.51-.78-.77,0-1.53,.13-2.27,.38s-1.38,.59-1.9,1.02l-1.5-3.05c.79-.58,1.74-1.03,2.85-1.34,1.11-.32,2.24-.48,3.39-.48,2.2,0,3.92,.54,5.13,1.62,1.22,1.08,1.83,2.77,1.83,5.07v8.6h-3.92Z"/><path class="g" d="M275.06,100.26c-1.1-.24-2.12-.61-3.05-1.09l1.13-3.05c.73,.37,1.54,.66,2.41,.85s1.75,.29,2.65,.29c.65,0,1.2-.07,1.68-.21,.47-.14,.84-.34,1.09-.6,.25-.26,.38-.58,.38-.95,0-.48-.2-.85-.59-1.11s-.97-.38-1.72-.38h-2.96v-2.72h2.61c.48,0,.9-.06,1.24-.17,.34-.11,.6-.28,.77-.49,.17-.21,.26-.47,.26-.77,0-.32-.11-.59-.32-.81-.21-.22-.53-.4-.94-.52s-.93-.18-1.56-.18c-.72,0-1.46,.09-2.23,.27s-1.56,.43-2.37,.77l-1.02-3.02c.95-.41,1.89-.74,2.82-.98,.93-.24,1.85-.37,2.77-.39,1.34-.04,2.55,.11,3.63,.45s1.92,.82,2.54,1.46c.62,.63,.93,1.41,.93,2.32,0,.73-.21,1.38-.63,1.96-.42,.58-1,1.03-1.73,1.36s-1.56,.49-2.47,.49l.11-.87c1.59,0,2.85,.33,3.76,.99,.91,.66,1.37,1.56,1.37,2.7,0,.97-.32,1.82-.95,2.53-.64,.72-1.5,1.27-2.58,1.65-1.08,.38-2.31,.57-3.67,.57-1.11,0-2.22-.12-3.32-.36Z"/></g><g><path class="f" d="M46.13,138.35v-11.2h9.05v11.2h-1.12v-10.5l.29,.32h-7.39l.29-.32v10.5h-1.12Z"/><path class="f" d="M58.55,141.45v-11.5h1.04v2.53l-.11,1.68,.15,1.7v5.6h-1.09Zm4.16-3.02c-.7,0-1.33-.17-1.89-.5-.56-.34-1.01-.82-1.34-1.46-.33-.63-.5-1.41-.5-2.33s.16-1.69,.49-2.33c.33-.63,.77-1.12,1.34-1.45,.56-.33,1.2-.5,1.9-.5,.77,0,1.46,.18,2.07,.54s1.09,.86,1.44,1.5,.52,1.39,.52,2.23-.17,1.6-.52,2.24c-.35,.64-.83,1.14-1.44,1.5s-1.3,.54-2.07,.54Zm-.08-1.01c.57,0,1.08-.14,1.54-.41,.45-.27,.81-.66,1.08-1.15,.27-.5,.4-1.07,.4-1.72s-.13-1.22-.4-1.71c-.27-.49-.62-.87-1.08-1.15-.45-.28-.96-.42-1.54-.42s-1.09,.14-1.54,.42-.81,.66-1.08,1.15c-.26,.49-.39,1.06-.39,1.71s.13,1.22,.39,1.72c.26,.5,.62,.88,1.08,1.15s.97,.41,1.54,.41Z"/><path class="f" d="M69.1,138.35v-8.4h1.09v6.67l5.39-6.67h.97v8.4h-1.09v-6.69l-5.38,6.69h-.98Z"/><path class="f" d="M84.16,138.19c-.57-.17-1.08-.43-1.52-.78l.35-.85c.39,.3,.84,.53,1.35,.68,.51,.15,1.02,.23,1.52,.23,.5-.01,.94-.09,1.31-.22s.65-.33,.86-.58c.2-.25,.31-.52,.31-.83,0-.45-.19-.8-.58-1.05-.39-.25-.92-.38-1.6-.38h-1.38v-.83h1.31c.4,0,.75-.05,1.06-.16,.31-.11,.54-.26,.71-.46s.25-.44,.25-.72c0-.3-.1-.55-.3-.77s-.47-.37-.82-.48-.74-.16-1.18-.16c-.4,.01-.81,.07-1.24,.18-.43,.11-.85,.28-1.27,.5l-.31-.88c.47-.26,.94-.45,1.41-.58s.93-.2,1.41-.2c.65-.02,1.23,.06,1.74,.24s.93,.44,1.24,.78,.46,.74,.46,1.21c0,.42-.12,.78-.37,1.09-.25,.31-.57,.55-.98,.72-.41,.17-.88,.26-1.4,.26l.05-.3c.92,0,1.64,.19,2.16,.56,.52,.37,.78,.88,.78,1.52,0,.5-.16,.94-.48,1.32-.32,.38-.75,.67-1.28,.89-.54,.21-1.14,.32-1.8,.32-.58,0-1.16-.09-1.74-.26Z"/><path class="f" d="M94.17,138.43c-.6,0-1.13-.1-1.57-.31s-.79-.5-1.02-.86c-.24-.37-.35-.79-.35-1.27,0-.44,.1-.83,.3-1.19s.53-.65,.98-.86,1.07-.33,1.84-.33h2.78v.85h-2.75c-.78,0-1.32,.14-1.62,.43-.3,.29-.45,.65-.45,1.07,0,.48,.18,.86,.54,1.15,.36,.29,.86,.43,1.51,.43s1.14-.15,1.59-.44c.45-.29,.77-.72,.98-1.27l.25,.78c-.21,.55-.56,1-1.07,1.33s-1.14,.5-1.91,.5Zm2.78-.08v-1.86l-.05-.3v-3.1c0-.71-.19-1.26-.58-1.65s-.96-.58-1.71-.58c-.52,0-1.02,.09-1.49,.27-.47,.18-.87,.42-1.2,.72l-.49-.85c.41-.36,.9-.64,1.47-.84,.57-.2,1.18-.3,1.81-.3,1.04,0,1.85,.27,2.42,.81,.57,.54,.85,1.36,.85,2.46v5.22h-1.04Z"/><path class="f" d="M100.91,138.35v-8.4h1.09v8.4h-1.09Zm.75-3.74v-.98h2.6v.98h-2.6Zm2.84-.34l-1.01-.16,3.21-4.16h1.18l-3.38,4.32Zm2.32,4.08l-3.32-4.16,.91-.56,3.7,4.72h-1.29Z"/><path class="f" d="M111.93,138.43c-.6,0-1.13-.1-1.57-.31s-.79-.5-1.02-.86c-.24-.37-.35-.79-.35-1.27,0-.44,.1-.83,.3-1.19s.53-.65,.98-.86,1.07-.33,1.84-.33h2.78v.85h-2.75c-.78,0-1.32,.14-1.62,.43-.3,.29-.45,.65-.45,1.07,0,.48,.18,.86,.54,1.15,.36,.29,.86,.43,1.51,.43s1.14-.15,1.59-.44c.45-.29,.77-.72,.98-1.27l.25,.78c-.21,.55-.56,1-1.07,1.33s-1.14,.5-1.91,.5Zm2.78-.08v-1.86l-.05-.3v-3.1c0-.71-.19-1.26-.58-1.65s-.96-.58-1.71-.58c-.52,0-1.02,.09-1.49,.27-.47,.18-.87,.42-1.2,.72l-.49-.85c.41-.36,.9-.64,1.47-.84,.57-.2,1.18-.3,1.81-.3,1.04,0,1.85,.27,2.42,.81,.57,.54,.85,1.36,.85,2.46v5.22h-1.04Z"/><path class="f" d="M118.93,138.19c-.57-.17-1.08-.43-1.52-.78l.35-.85c.39,.3,.84,.53,1.35,.68,.51,.15,1.02,.23,1.52,.23,.5-.01,.94-.09,1.31-.22s.65-.33,.86-.58c.2-.25,.31-.52,.31-.83,0-.45-.19-.8-.58-1.05-.39-.25-.92-.38-1.6-.38h-1.38v-.83h1.31c.4,0,.75-.05,1.06-.16,.31-.11,.54-.26,.71-.46s.25-.44,.25-.72c0-.3-.1-.55-.3-.77s-.47-.37-.82-.48-.74-.16-1.18-.16c-.4,.01-.81,.07-1.24,.18-.43,.11-.85,.28-1.27,.5l-.31-.88c.47-.26,.94-.45,1.41-.58s.93-.2,1.41-.2c.65-.02,1.23,.06,1.74,.24s.93,.44,1.24,.78,.46,.74,.46,1.21c0,.42-.12,.78-.37,1.09-.25,.31-.57,.55-.98,.72-.41,.17-.88,.26-1.4,.26l.05-.3c.92,0,1.64,.19,2.16,.56,.52,.37,.78,.88,.78,1.52,0,.5-.16,.94-.48,1.32-.32,.38-.75,.67-1.28,.89-.54,.21-1.14,.32-1.8,.32-.58,0-1.16-.09-1.74-.26Z"/><path class="f" d="M130.18,138.43c-.84,0-1.58-.18-2.21-.55-.63-.37-1.13-.87-1.49-1.52-.36-.65-.54-1.38-.54-2.22s.17-1.57,.51-2.21c.34-.64,.81-1.14,1.41-1.51,.6-.37,1.27-.55,2.02-.55s1.43,.18,2.02,.54,1.05,.86,1.39,1.5,.51,1.39,.51,2.23c0,.05,0,.11,0,.17s0,.12,0,.18h-7.02v-.85h6.44l-.43,.34c0-.61-.13-1.15-.38-1.62-.25-.47-.59-.85-1.02-1.11s-.93-.4-1.49-.4-1.05,.13-1.49,.4c-.44,.27-.78,.64-1.03,1.12-.25,.48-.37,1.03-.37,1.65v.18c0,.64,.14,1.2,.41,1.69,.27,.49,.65,.86,1.14,1.14s1.04,.41,1.67,.41c.49,0,.95-.09,1.37-.27,.42-.18,.79-.46,1.1-.83l.61,.74c-.36,.45-.81,.79-1.34,1.02-.54,.23-1.13,.35-1.77,.35Z"/><path class="f" d="M145.37,134.79c-.47,.21-.94,.38-1.42,.5s-.95,.18-1.42,.18c-.95,0-1.7-.23-2.26-.68-.55-.45-.83-1.15-.83-2.1v-2.75h1.08v2.69c0,.64,.2,1.12,.6,1.44s.94,.48,1.61,.48c.41,0,.84-.06,1.29-.17,.45-.11,.91-.27,1.37-.49l-.02,.9Zm-.09,3.55v-8.4h1.09v8.4h-1.09Z"/><path class="f" d="M152.94,138.43c-.84,0-1.58-.18-2.21-.55-.63-.37-1.13-.87-1.49-1.52-.36-.65-.54-1.38-.54-2.22s.17-1.57,.51-2.21c.34-.64,.81-1.14,1.41-1.51,.6-.37,1.27-.55,2.02-.55s1.43,.18,2.02,.54,1.05,.86,1.39,1.5,.51,1.39,.51,2.23c0,.05,0,.11,0,.17s0,.12,0,.18h-7.02v-.85h6.44l-.43,.34c0-.61-.13-1.15-.38-1.62-.25-.47-.59-.85-1.02-1.11s-.93-.4-1.49-.4-1.05,.13-1.49,.4c-.44,.27-.78,.64-1.03,1.12-.25,.48-.37,1.03-.37,1.65v.18c0,.64,.14,1.2,.41,1.69,.27,.49,.65,.86,1.14,1.14s1.04,.41,1.67,.41c.49,0,.95-.09,1.37-.27,.42-.18,.79-.46,1.1-.83l.61,.74c-.36,.45-.81,.79-1.34,1.02-.54,.23-1.13,.35-1.77,.35Z"/><path class="f" d="M158.99,141.45v-11.5h1.04v2.53l-.11,1.68,.15,1.7v5.6h-1.09Zm4.16-3.02c-.7,0-1.33-.17-1.89-.5-.56-.34-1.01-.82-1.34-1.46-.33-.63-.5-1.41-.5-2.33s.16-1.69,.49-2.33c.33-.63,.77-1.12,1.34-1.45,.56-.33,1.2-.5,1.9-.5,.77,0,1.46,.18,2.07,.54s1.09,.86,1.44,1.5,.52,1.39,.52,2.23-.17,1.6-.52,2.24c-.35,.64-.83,1.14-1.44,1.5s-1.3,.54-2.07,.54Zm-.08-1.01c.57,0,1.08-.14,1.54-.41,.45-.27,.81-.66,1.08-1.15,.27-.5,.4-1.07,.4-1.72s-.13-1.22-.4-1.71c-.27-.49-.62-.87-1.08-1.15-.45-.28-.96-.42-1.54-.42s-1.09,.14-1.54,.42-.81,.66-1.08,1.15c-.26,.49-.39,1.06-.39,1.71s.13,1.22,.39,1.72c.26,.5,.62,.88,1.08,1.15s.97,.41,1.54,.41Z"/><path class="f" d="M173,138.43c-.84,0-1.58-.18-2.21-.55-.63-.37-1.13-.87-1.49-1.52-.36-.65-.54-1.38-.54-2.22s.17-1.57,.51-2.21c.34-.64,.81-1.14,1.41-1.51,.6-.37,1.27-.55,2.02-.55s1.43,.18,2.02,.54,1.05,.86,1.39,1.5,.51,1.39,.51,2.23c0,.05,0,.11,0,.17s0,.12,0,.18h-7.02v-.85h6.44l-.43,.34c0-.61-.13-1.15-.38-1.62-.25-.47-.59-.85-1.02-1.11s-.93-.4-1.49-.4-1.05,.13-1.49,.4c-.44,.27-.78,.64-1.03,1.12-.25,.48-.37,1.03-.37,1.65v.18c0,.64,.14,1.2,.41,1.69,.27,.49,.65,.86,1.14,1.14s1.04,.41,1.67,.41c.49,0,.95-.09,1.37-.27,.42-.18,.79-.46,1.1-.83l.61,.74c-.36,.45-.81,.79-1.34,1.02-.54,.23-1.13,.35-1.77,.35Z"/><path class="f" d="M179.25,138.19c-.57-.17-1.08-.43-1.52-.78l.35-.85c.39,.3,.84,.53,1.35,.68,.51,.15,1.02,.23,1.52,.23,.5-.01,.94-.09,1.31-.22s.65-.33,.86-.58c.2-.25,.31-.52,.31-.83,0-.45-.19-.8-.58-1.05-.39-.25-.92-.38-1.6-.38h-1.38v-.83h1.31c.4,0,.75-.05,1.06-.16,.31-.11,.54-.26,.71-.46s.25-.44,.25-.72c0-.3-.1-.55-.3-.77s-.47-.37-.82-.48-.74-.16-1.18-.16c-.4,.01-.81,.07-1.24,.18-.43,.11-.85,.28-1.27,.5l-.31-.88c.47-.26,.94-.45,1.41-.58s.93-.2,1.41-.2c.65-.02,1.23,.06,1.74,.24s.93,.44,1.24,.78,.46,.74,.46,1.21c0,.42-.12,.78-.37,1.09-.25,.31-.57,.55-.98,.72-.41,.17-.88,.26-1.4,.26l.05-.3c.92,0,1.64,.19,2.16,.56,.52,.37,.78,.88,.78,1.52,0,.5-.16,.94-.48,1.32-.32,.38-.75,.67-1.28,.89-.54,.21-1.14,.32-1.8,.32-.58,0-1.16-.09-1.74-.26Z"/><path class="f" d="M194.46,138.43c-.8,0-1.51-.18-2.14-.55-.63-.37-1.12-.87-1.48-1.52-.36-.65-.54-1.38-.54-2.22s.18-1.58,.54-2.22c.36-.64,.85-1.14,1.48-1.5,.63-.36,1.34-.54,2.14-.54,.69,0,1.31,.14,1.86,.42,.55,.28,.99,.69,1.31,1.25l-.81,.58c-.28-.43-.62-.74-1.03-.94s-.85-.3-1.34-.3c-.57,0-1.09,.14-1.55,.41s-.82,.65-1.09,1.14c-.27,.49-.4,1.07-.4,1.73s.13,1.24,.4,1.73c.27,.49,.63,.87,1.09,1.14s.98,.41,1.55,.41c.48,0,.93-.1,1.34-.3s.75-.51,1.03-.93l.81,.58c-.32,.54-.75,.96-1.31,1.24-.55,.28-1.17,.42-1.86,.42Z"/><path class="f" d="M201.97,138.43c-.6,0-1.13-.1-1.57-.31s-.79-.5-1.02-.86c-.24-.37-.35-.79-.35-1.27,0-.44,.1-.83,.3-1.19s.53-.65,.98-.86,1.07-.33,1.84-.33h2.78v.85h-2.75c-.78,0-1.32,.14-1.62,.43-.3,.29-.45,.65-.45,1.07,0,.48,.18,.86,.54,1.15,.36,.29,.86,.43,1.51,.43s1.14-.15,1.59-.44c.45-.29,.77-.72,.98-1.27l.25,.78c-.21,.55-.56,1-1.07,1.33s-1.14,.5-1.91,.5Zm2.78-.08v-1.86l-.05-.3v-3.1c0-.71-.19-1.26-.58-1.65s-.96-.58-1.71-.58c-.52,0-1.02,.09-1.49,.27-.47,.18-.87,.42-1.2,.72l-.49-.85c.41-.36,.9-.64,1.47-.84,.57-.2,1.18-.3,1.81-.3,1.04,0,1.85,.27,2.42,.81,.57,.54,.85,1.36,.85,2.46v5.22h-1.04Z"/><path class="f" d="M208.71,138.35v-8.4h1.09v6.67l5.39-6.67h.97v8.4h-1.09v-6.69l-5.38,6.69h-.98Zm3.66-9.62c-.68,0-1.22-.18-1.64-.54-.42-.36-.63-.87-.65-1.54h.78c.01,.43,.15,.76,.43,1.01,.28,.25,.63,.37,1.08,.37s.8-.12,1.08-.37c.28-.25,.43-.58,.44-1.01h.78c-.01,.67-.23,1.19-.65,1.54s-.97,.54-1.66,.54Z"/><path class="f" d="M220.83,138.35v-7.71l.28,.3h-3.33v-.99h7.2v.99h-3.33l.28-.3v7.71h-1.09Z"/></g><g><path class="f" d="M47.11,241.3l-1.06,.62v-.13l1.06,.62-.18,.34-1.04-.63,.08-.04v1.22h-.35v-1.22l.08,.04-1.04,.63-.18-.34,1.07-.62v.13l-1.07-.62,.18-.34,1.04,.63-.08,.04v-1.22h.35v1.22l-.08-.04,1.04-.63,.18,.34Z"/><path class="f" d="M50.54,246.39c-.4,0-.78-.07-1.12-.21-.34-.14-.64-.34-.89-.6-.25-.26-.45-.56-.59-.9-.14-.35-.21-.73-.21-1.14s.07-.79,.21-1.14c.14-.35,.34-.65,.59-.9,.25-.26,.55-.45,.89-.6,.34-.14,.72-.21,1.12-.21s.75,.07,1.1,.2c.34,.14,.63,.34,.87,.61l-.36,.38c-.22-.23-.46-.4-.73-.51-.27-.1-.55-.16-.86-.16-.32,0-.62,.06-.9,.17-.28,.12-.52,.28-.72,.49-.2,.21-.36,.46-.48,.74-.12,.28-.17,.59-.17,.92s.06,.64,.17,.92,.28,.53,.48,.74c.21,.21,.45,.37,.72,.49s.58,.17,.9,.17,.59-.05,.86-.16c.27-.11,.51-.28,.73-.51l.36,.38c-.24,.27-.52,.48-.87,.62-.34,.14-.71,.21-1.11,.21Z"/><path class="f" d="M53.57,246.35v-4.2h.54v4.2h-.54Zm.38-1.87v-.49h1.3v.49h-1.3Zm1.42-.17l-.51-.08,1.6-2.08h.59l-1.69,2.16Zm1.16,2.04l-1.66-2.08,.45-.28,1.85,2.36h-.65Z"/><path class="f" d="M58.04,246.35v-4.2h.54v3.34l2.7-3.34h.48v4.2h-.55v-3.34l-2.69,3.34h-.49Z"/><path class="f" d="M62.62,247.36v-1.51h4.65v1.51h-.51v-1.02h-3.62v1.02h-.51Zm3.47-1.29v-3.43h-1.94l-.05,.94c-.01,.28-.03,.56-.05,.83s-.06,.52-.12,.75-.13,.41-.23,.55c-.1,.14-.22,.22-.38,.24l-.54-.1c.16,0,.29-.05,.39-.18,.1-.13,.18-.3,.24-.52,.06-.22,.1-.47,.12-.75,.03-.28,.05-.57,.06-.86l.05-1.4h2.98v3.93h-.55Z"/><path class="f" d="M68.34,246.35v-4.2h.54v4.2h-.54Zm.38-1.87v-.49h1.3v.49h-1.3Zm1.42-.17l-.51-.08,1.6-2.08h.59l-1.69,2.16Zm1.16,2.04l-1.66-2.08,.45-.28,1.85,2.36h-.65Z"/><path class="f" d="M73.84,246.39c-.3,0-.56-.05-.79-.16s-.39-.25-.51-.43-.18-.4-.18-.64c0-.22,.05-.42,.15-.6,.1-.18,.26-.32,.49-.43,.23-.11,.53-.16,.92-.16h1.39v.42h-1.37c-.39,0-.66,.07-.81,.22-.15,.14-.23,.32-.23,.54,0,.24,.09,.43,.27,.58s.43,.22,.75,.22,.57-.07,.79-.22,.39-.36,.49-.64l.12,.39c-.1,.28-.28,.5-.53,.66-.25,.17-.57,.25-.96,.25Zm1.39-.04v-.93l-.02-.15v-1.55c0-.36-.1-.63-.29-.82s-.48-.29-.86-.29c-.26,0-.51,.05-.74,.14-.24,.09-.44,.21-.6,.36l-.25-.42c.2-.18,.45-.32,.74-.42,.29-.1,.59-.15,.91-.15,.52,0,.93,.13,1.21,.4s.43,.68,.43,1.23v2.61h-.52Z"/><path class="f" d="M79.23,246.35v-4.2h.54v1.86h2.54v-1.86h.54v4.2h-.54v-1.86h-2.54v1.86h-.54Z"/><path class="f" d="M86.15,246.39c-.42,0-.79-.09-1.11-.28-.32-.18-.57-.44-.75-.76s-.27-.69-.27-1.11,.09-.78,.26-1.1c.17-.32,.41-.57,.71-.76,.3-.18,.64-.28,1.01-.28s.72,.09,1.01,.27c.29,.18,.53,.43,.69,.75,.17,.32,.25,.69,.25,1.12,0,.03,0,.05,0,.08,0,.03,0,.06,0,.09h-3.51v-.42h3.22l-.21,.17c0-.3-.06-.57-.19-.81s-.3-.42-.51-.56c-.21-.13-.46-.2-.74-.2s-.52,.07-.75,.2-.39,.32-.51,.56c-.12,.24-.18,.52-.18,.82v.09c0,.32,.07,.6,.2,.84,.14,.24,.32,.43,.57,.57,.24,.14,.52,.2,.83,.2,.25,0,.47-.05,.69-.14,.21-.09,.4-.23,.55-.42l.31,.37c-.18,.22-.4,.39-.67,.51-.27,.12-.56,.18-.89,.18Z"/><path class="f" d="M88.39,247.36v-1.51h4.65v1.51h-.51v-1.02h-3.62v1.02h-.51Zm3.47-1.29v-3.43h-1.94l-.05,.94c-.01,.28-.03,.56-.05,.83s-.06,.52-.12,.75-.13,.41-.23,.55c-.1,.14-.22,.22-.38,.24l-.54-.1c.16,0,.29-.05,.39-.18,.1-.13,.18-.3,.24-.52,.06-.22,.1-.47,.12-.75,.03-.28,.05-.57,.06-.86l.05-1.4h2.98v3.93h-.55Z"/><path class="f" d="M95.83,246.39c-.42,0-.79-.09-1.11-.28-.32-.18-.57-.44-.75-.76s-.27-.69-.27-1.11,.09-.78,.26-1.1c.17-.32,.41-.57,.71-.76,.3-.18,.64-.28,1.01-.28s.72,.09,1.01,.27c.29,.18,.53,.43,.69,.75,.17,.32,.25,.69,.25,1.12,0,.03,0,.05,0,.08,0,.03,0,.06,0,.09h-3.51v-.42h3.22l-.21,.17c0-.3-.06-.57-.19-.81s-.3-.42-.51-.56c-.21-.13-.46-.2-.74-.2s-.52,.07-.75,.2-.39,.32-.51,.56c-.12,.24-.18,.52-.18,.82v.09c0,.32,.07,.6,.2,.84,.14,.24,.32,.43,.57,.57,.24,.14,.52,.2,.83,.2,.25,0,.47-.05,.69-.14,.21-.09,.4-.23,.55-.42l.31,.37c-.18,.22-.4,.39-.67,.51-.27,.12-.56,.18-.89,.18Z"/><path class="f" d="M98.86,246.35v-4.2h.54v3.34l2.7-3.34h.48v4.2h-.55v-3.34l-2.69,3.34h-.49Zm1.83-4.81c-.34,0-.61-.09-.82-.27-.21-.18-.32-.44-.33-.77h.39c0,.21,.08,.38,.21,.5,.14,.12,.32,.18,.54,.18s.4-.06,.54-.18c.14-.12,.21-.29,.22-.5h.39c0,.34-.11,.59-.32,.77-.21,.18-.49,.27-.83,.27Z"/><path class="f" d="M105.84,246.39c-.4,0-.76-.09-1.07-.28s-.56-.44-.74-.76-.27-.69-.27-1.11,.09-.79,.27-1.11c.18-.32,.43-.57,.74-.75,.31-.18,.67-.27,1.07-.27,.34,0,.65,.07,.93,.21,.28,.14,.49,.35,.65,.62l-.41,.29c-.14-.21-.31-.37-.51-.47-.21-.1-.43-.15-.67-.15-.29,0-.55,.07-.78,.2-.23,.14-.41,.33-.55,.57-.13,.25-.2,.53-.2,.86s.07,.62,.2,.86c.13,.25,.31,.44,.55,.57,.23,.14,.49,.2,.78,.2,.24,0,.46-.05,.67-.15,.2-.1,.38-.26,.51-.46l.41,.29c-.16,.27-.38,.48-.65,.62-.28,.14-.59,.21-.93,.21Z"/><path class="f" d="M109.17,246.35v-3.86l.14,.15h-1.67v-.5h3.6v.5h-1.67l.14-.15v3.86h-.55Z"/><path class="f" d="M112.04,246.35v-4.2h1.78c.46,0,.81,.09,1.08,.27,.26,.18,.4,.45,.4,.8s-.13,.6-.38,.79c-.25,.18-.58,.28-.99,.28l.11-.17c.48,0,.83,.09,1.06,.28,.23,.19,.34,.46,.34,.81s-.13,.64-.38,.84c-.25,.2-.65,.3-1.18,.3h-1.84Zm.53-2.34h1.21c.31,0,.55-.06,.72-.18,.17-.12,.25-.3,.25-.54s-.08-.41-.25-.53c-.17-.12-.41-.18-.72-.18h-1.21v1.42Zm0,1.89h1.28c.34,0,.6-.06,.78-.17s.27-.3,.27-.56-.08-.44-.24-.56-.41-.18-.75-.18h-1.34v1.46Z"/><path class="f" d="M116.79,247.94c-.19,0-.37-.03-.54-.1s-.32-.16-.44-.29l.25-.42c.1,.1,.21,.18,.33,.24s.25,.08,.4,.08c.18,0,.33-.05,.46-.16,.13-.1,.25-.29,.37-.55l.26-.62,.06-.09,1.66-3.9h.54l-2.02,4.7c-.11,.27-.24,.49-.37,.65-.14,.16-.28,.27-.44,.34-.16,.07-.33,.1-.53,.1Zm1.08-1.47l-1.86-4.32h.57l1.64,3.86-.35,.46Z"/><path class="f" d="M122.63,246.39c-.42,0-.79-.09-1.11-.28-.32-.18-.57-.44-.75-.76s-.27-.69-.27-1.11,.09-.78,.26-1.1c.17-.32,.41-.57,.71-.76,.3-.18,.64-.28,1.01-.28s.72,.09,1.01,.27c.29,.18,.53,.43,.69,.75,.17,.32,.25,.69,.25,1.12,0,.03,0,.05,0,.08,0,.03,0,.06,0,.09h-3.51v-.42h3.22l-.21,.17c0-.3-.06-.57-.19-.81s-.3-.42-.51-.56c-.21-.13-.46-.2-.74-.2s-.52,.07-.75,.2-.39,.32-.51,.56c-.12,.24-.18,.52-.18,.82v.09c0,.32,.07,.6,.2,.84,.14,.24,.32,.43,.57,.57,.24,.14,.52,.2,.83,.2,.25,0,.47-.05,.69-.14,.21-.09,.4-.23,.55-.42l.31,.37c-.18,.22-.4,.39-.67,.51-.27,.12-.56,.18-.89,.18Z"/><path class="f" d="M126.24,246.35v-3.86l.14,.15h-1.67v-.5h3.6v.5h-1.67l.14-.15v3.86h-.55Z"/><path class="f" d="M131.13,246.35v-4.2h.54v1.86h2.54v-1.86h.54v4.2h-.54v-1.86h-2.54v1.86h-.54Z"/><path class="f" d="M137.44,246.39c-.3,0-.56-.05-.79-.16s-.39-.25-.51-.43-.18-.4-.18-.64c0-.22,.05-.42,.15-.6,.1-.18,.26-.32,.49-.43,.23-.11,.53-.16,.92-.16h1.39v.42h-1.37c-.39,0-.66,.07-.81,.22-.15,.14-.23,.32-.23,.54,0,.24,.09,.43,.27,.58s.43,.22,.75,.22,.57-.07,.79-.22,.39-.36,.49-.64l.12,.39c-.1,.28-.28,.5-.53,.66-.25,.17-.57,.25-.96,.25Zm1.39-.04v-.93l-.02-.15v-1.55c0-.36-.1-.63-.29-.82s-.48-.29-.86-.29c-.26,0-.51,.05-.74,.14-.24,.09-.44,.21-.6,.36l-.25-.42c.2-.18,.45-.32,.74-.42,.29-.1,.59-.15,.91-.15,.52,0,.93,.13,1.21,.4s.43,.68,.43,1.23v2.61h-.52Z"/><path class="f" d="M142.12,247.36v-1.51h4.65v1.51h-.51v-1.02h-3.62v1.02h-.51Zm3.47-1.29v-3.43h-1.94l-.05,.94c-.01,.28-.03,.56-.05,.83s-.06,.52-.12,.75-.13,.41-.23,.55c-.1,.14-.22,.22-.38,.24l-.54-.1c.16,0,.29-.05,.39-.18,.1-.13,.18-.3,.24-.52,.06-.22,.1-.47,.12-.75,.03-.28,.05-.57,.06-.86l.05-1.4h2.98v3.93h-.55Z"/><path class="f" d="M149.5,246.39c-.39,0-.74-.09-1.05-.28-.31-.18-.55-.44-.73-.76s-.27-.69-.27-1.11,.09-.79,.27-1.11c.18-.32,.42-.57,.73-.75,.31-.18,.66-.27,1.05-.27s.75,.09,1.06,.27c.31,.18,.55,.43,.73,.75,.18,.32,.26,.69,.26,1.11s-.09,.79-.26,1.11c-.18,.32-.42,.58-.73,.76-.31,.18-.67,.28-1.06,.28Zm0-.5c.29,0,.55-.07,.78-.2,.23-.14,.4-.33,.53-.58,.13-.25,.2-.53,.2-.86s-.07-.62-.2-.86c-.13-.25-.31-.44-.53-.57-.23-.14-.48-.2-.77-.2s-.54,.07-.77,.2c-.23,.14-.4,.33-.54,.57-.13,.25-.2,.53-.2,.86s.07,.61,.2,.86c.13,.25,.31,.44,.54,.58,.23,.14,.48,.2,.76,.2Z"/><path class="f" d="M152.73,246.35v-4.2h3.62v4.2h-.55v-3.86l.14,.15h-2.81l.14-.15v3.86h-.54Z"/><path class="f" d="M159.57,246.39c-.39,0-.74-.09-1.05-.28-.31-.18-.55-.44-.73-.76s-.27-.69-.27-1.11,.09-.79,.27-1.11c.18-.32,.42-.57,.73-.75,.31-.18,.66-.27,1.05-.27s.75,.09,1.06,.27c.31,.18,.55,.43,.73,.75,.18,.32,.26,.69,.26,1.11s-.09,.79-.26,1.11c-.18,.32-.42,.58-.73,.76-.31,.18-.67,.28-1.06,.28Zm0-.5c.29,0,.55-.07,.78-.2,.23-.14,.4-.33,.53-.58,.13-.25,.2-.53,.2-.86s-.07-.62-.2-.86c-.13-.25-.31-.44-.53-.57-.23-.14-.48-.2-.77-.2s-.54,.07-.77,.2c-.23,.14-.4,.33-.54,.57-.13,.25-.2,.53-.2,.86s.07,.61,.2,.86c.13,.25,.31,.44,.54,.58,.23,.14,.48,.2,.76,.2Z"/><path class="f" d="M162.05,246.34l.04-.49s.07,.01,.1,.02c.03,0,.06,.01,.09,.01,.16,0,.3-.06,.4-.19,.1-.13,.18-.3,.23-.51,.05-.21,.09-.45,.11-.72,.02-.27,.04-.54,.05-.81l.07-1.5h2.96v4.2h-.55v-3.87l.14,.17h-2.2l.13-.18-.06,1.22c-.02,.36-.04,.71-.08,1.04-.04,.33-.1,.62-.18,.87-.08,.25-.19,.45-.33,.59-.14,.14-.31,.21-.53,.21-.06,0-.12,0-.19-.02-.06-.01-.13-.02-.2-.04Z"/><path class="f" d="M167.65,246.35v-4.2h.54v1.86h2.54v-1.86h.54v4.2h-.54v-1.86h-2.54v1.86h-.54Z"/><path class="f" d="M172.84,246.35v-4.2h.54v3.34l2.7-3.34h.48v4.2h-.55v-3.34l-2.69,3.34h-.49Z"/><path class="f" d="M178.9,246.35v-3.86l.14,.15h-1.67v-.5h3.6v.5h-1.67l.14-.15v3.86h-.55Z"/><path class="f" d="M183.31,246.39c-.42,0-.79-.09-1.11-.28-.32-.18-.57-.44-.75-.76s-.27-.69-.27-1.11,.09-.78,.26-1.1c.17-.32,.41-.57,.71-.76,.3-.18,.64-.28,1.01-.28s.72,.09,1.01,.27c.29,.18,.53,.43,.69,.75,.17,.32,.25,.69,.25,1.12,0,.03,0,.05,0,.08,0,.03,0,.06,0,.09h-3.51v-.42h3.22l-.21,.17c0-.3-.06-.57-.19-.81s-.3-.42-.51-.56c-.21-.13-.46-.2-.74-.2s-.52,.07-.75,.2-.39,.32-.51,.56c-.12,.24-.18,.52-.18,.82v.09c0,.32,.07,.6,.2,.84,.14,.24,.32,.43,.57,.57,.24,.14,.52,.2,.83,.2,.25,0,.47-.05,.69-.14,.21-.09,.4-.23,.55-.42l.31,.37c-.18,.22-.4,.39-.67,.51-.27,.12-.56,.18-.89,.18Z"/><path class="f" d="M185.52,246.34l.04-.49s.07,.01,.1,.02c.03,0,.06,.01,.09,.01,.16,0,.3-.06,.4-.19,.1-.13,.18-.3,.23-.51,.05-.21,.09-.45,.11-.72,.02-.27,.04-.54,.05-.81l.07-1.5h2.96v4.2h-.55v-3.87l.14,.17h-2.2l.13-.18-.06,1.22c-.02,.36-.04,.71-.08,1.04-.04,.33-.1,.62-.18,.87-.08,.25-.19,.45-.33,.59-.14,.14-.31,.21-.53,.21-.06,0-.12,0-.19-.02-.06-.01-.13-.02-.2-.04Z"/><path class="f" d="M192.85,243.63c.51,0,.89,.12,1.16,.35,.26,.23,.4,.56,.4,.99s-.14,.79-.43,1.03c-.28,.24-.7,.36-1.23,.35h-1.63v-4.21h.54v1.46l1.19,.02Zm-.14,2.3c.37,0,.66-.07,.85-.24,.19-.16,.29-.4,.29-.72s-.09-.55-.28-.69c-.19-.15-.47-.22-.85-.23l-1.05-.02v1.87l1.05,.02Z"/><path class="f" d="M195.45,246.35v-4.2h.54v1.86h2.54v-1.86h.54v4.2h-.54v-1.86h-2.54v1.86h-.54Z"/><path class="f" d="M202.33,243.63c.51,0,.89,.12,1.16,.35,.27,.23,.4,.56,.4,.99s-.14,.79-.43,1.03c-.29,.24-.7,.36-1.23,.35h-1.6v-4.21h.54v1.46l1.15,.02Zm-.14,2.3c.38,0,.66-.07,.86-.24,.19-.16,.29-.4,.29-.72s-.09-.55-.28-.69c-.19-.15-.48-.22-.86-.23l-1.01-.02v1.87l1.01,.02Zm2.37,.42v-4.2h.54v4.2h-.54Z"/><path class="f" d="M208.4,246.39c-.42,0-.79-.09-1.11-.28-.32-.18-.57-.44-.75-.76s-.27-.69-.27-1.11,.09-.78,.26-1.1c.17-.32,.41-.57,.71-.76,.3-.18,.64-.28,1.01-.28s.72,.09,1.01,.27c.29,.18,.53,.43,.69,.75,.17,.32,.25,.69,.25,1.12,0,.03,0,.05,0,.08,0,.03,0,.06,0,.09h-3.51v-.42h3.22l-.21,.17c0-.3-.06-.57-.19-.81s-.3-.42-.51-.56c-.21-.13-.46-.2-.74-.2s-.52,.07-.75,.2-.39,.32-.51,.56c-.12,.24-.18,.52-.18,.82v.09c0,.32,.07,.6,.2,.84,.14,.24,.32,.43,.57,.57,.24,.14,.52,.2,.83,.2,.25,0,.47-.05,.69-.14,.21-.09,.4-.23,.55-.42l.31,.37c-.18,.22-.4,.39-.67,.51-.27,.12-.56,.18-.89,.18Z"/><path class="f" d="M213.52,247.94c-.19,0-.37-.03-.54-.1s-.32-.16-.44-.29l.25-.42c.1,.1,.21,.18,.33,.24s.25,.08,.4,.08c.18,0,.33-.05,.46-.16,.13-.1,.25-.29,.37-.55l.26-.62,.06-.09,1.66-3.9h.54l-2.02,4.7c-.11,.27-.24,.49-.37,.65-.14,.16-.28,.27-.44,.34-.16,.07-.33,.1-.53,.1Zm1.08-1.47l-1.86-4.32h.57l1.64,3.86-.35,.46Z"/><path class="f" d="M219.31,246.39c-.4,0-.76-.09-1.07-.28s-.56-.44-.74-.76-.27-.69-.27-1.11,.09-.79,.27-1.11c.18-.32,.43-.57,.74-.75,.31-.18,.67-.27,1.07-.27,.34,0,.65,.07,.93,.21,.28,.14,.49,.35,.65,.62l-.41,.29c-.14-.21-.31-.37-.51-.47-.21-.1-.43-.15-.67-.15-.29,0-.55,.07-.78,.2-.23,.14-.41,.33-.55,.57-.13,.25-.2,.53-.2,.86s.07,.62,.2,.86c.13,.25,.31,.44,.55,.57,.23,.14,.49,.2,.78,.2,.24,0,.46-.05,.67-.15,.2-.1,.38-.26,.51-.46l.41,.29c-.16,.27-.38,.48-.65,.62-.28,.14-.59,.21-.93,.21Z"/><path class="f" d="M221.08,246.34l.04-.49s.07,.01,.1,.02c.03,0,.06,.01,.09,.01,.16,0,.3-.06,.4-.19,.1-.13,.18-.3,.23-.51,.05-.21,.09-.45,.11-.72,.02-.27,.04-.54,.05-.81l.07-1.5h2.96v4.2h-.55v-3.87l.14,.17h-2.2l.13-.18-.06,1.22c-.02,.36-.04,.71-.08,1.04-.04,.33-.1,.62-.18,.87-.08,.25-.19,.45-.33,.59-.14,.14-.31,.21-.53,.21-.06,0-.12,0-.19-.02-.06-.01-.13-.02-.2-.04Z"/><path class="f" d="M226.75,247.94c-.19,0-.37-.03-.54-.1s-.32-.16-.44-.29l.25-.42c.1,.1,.21,.18,.33,.24s.25,.08,.4,.08c.18,0,.33-.05,.46-.16,.13-.1,.25-.29,.37-.55l.26-.62,.06-.09,1.66-3.9h.54l-2.02,4.7c-.11,.27-.24,.49-.37,.65-.14,.16-.28,.27-.44,.34-.16,.07-.33,.1-.53,.1Zm1.08-1.47l-1.86-4.32h.57l1.64,3.86-.35,.46Z"/><path class="f" d="M230.97,246.35v-4.2h2.86v.5h-2.45l.14-.14v3.85h-.54Z"/><path class="f" d="M234.63,246.35v-4.2h.54v3.34l2.7-3.34h.48v4.2h-.55v-3.34l-2.69,3.34h-.49Z"/></g><g><g><path class="h" d="M489.55,280h-159.49V97.09l32.91-16.8v1.12c0,1.51,1.15,2.76,2.66,2.9l12.51,1.15v4.88c0,1.99,.51,3.95,1.53,5.66,.79,1.33,1.7,3.18,2.23,5.28,0,.07,.02,.15,.03,.22-1.77-.53-3.6-.9-5.51-.75-5.31,.42-7.68,3.07-9.08,7.54-1.4,4.47,2.94,7.82,7.13,7.96,.15,.01,.34,.04,.5,.05,.08,.68,.41,1.33,.97,1.82,1.02,.87,2.51,.9,3.59,.1,.36-.27,.72-.56,1.08-.85,3.27,.96,6.72,2.5,9.24,4.52-6.16,5.08-11.39,10.22-10.89,15.44,.02,.18,.06,.35,.12,.52-.16,.84-.15,1.91,0,3.41,.33,3.35,1.75,5,6.87,5.67-2.25,1.87-2.87,2.8-2.47,7.19,.37,4.08,2.12,5.78,9.09,6.26l-.05,.41c-.11,.06-.23,.12-.32,.19-1.99,1.68-2.54,2.46-2.19,6.34,.08,.9,.24,1.65,.51,2.3-1.25,3.5-3.03,6.8-5.31,9.77l-5.85,7.6c-2.87,3.72-4.42,8.29-4.42,12.99v44.42c0,3.1,.66,6.04,1.86,8.7,3.32,7.44,10.79,12.62,19.47,12.62h48.16c11.78,0,21.32-9.55,21.32-21.32v-45.18c7.66,13.44,16.09,52.69,23.8,80.78Z"/><path class="h" d="M397.49,101.72h-3.25v.1s-.57,.87-1.54,2.21c1.35,.29,3,.85,4.78,1.54v-3.86Z"/></g><g><path class="d" d="M446.08,93.97c0,.31-.02,.61-.06,.91-.01,.09-.02,.18-.04,.27-.03,.21-.07,.41-.12,.61-.02,.1-.04,.19-.07,.29-.06,.2-.12,.4-.19,.59-.03,.08-.06,.16-.09,.23-.1,.27-.22,.53-.36,.78-.35,.67-.81,1.27-1.33,1.81-1.39,1.41-3.33,2.26-5.47,2.26h-8.04v4.47c-5.78-.32-12.13,.3-17.36,1.02-2.62,.36-4.69,1.07-6.41,2.04-4.14,2.34-6.27,6.22-9.05,10.74v-18.27h-3.24v.1s-.57,.87-1.54,2.22c-2.3,3.19-6.92,9.15-12.1,13.33-.36,.29-.72,.58-1.08,.85-1.08,.8-2.57,.77-3.59-.1-.56-.49-.89-1.14-.97-1.82-.09-.72,.09-1.48,.57-2.09,2.53-3.28,6.92-9.53,6.39-12.71-.01-.07-.02-.15-.03-.22-.53-2.1-1.44-3.95-2.23-5.28-1.02-1.71-1.53-3.67-1.53-5.66v-4.88l-12.51-1.15c-1.51-.14-2.66-1.39-2.66-2.9v-1.12h.01v-6.96h-.01v-1.88c0-1.5,1.15-2.76,2.66-2.9l16.04-1.47h12.76c3.73,11.64,8.99,18.7,28.38,18.7h19.47l2.58,4.03c.79,1.24,1.22,2.69,1.22,4.16Z"/><path class="d" d="M392.52,160.79c.22-.14,.47-.27,.75-.37-.24-.01-.47-.03-.69-.04l-.05,.41Z"/><path class="d" d="M464.97,188.57c-2.08-3.11-3.88-5.35-5.3-6.48-10.58-8.39-20.65-14.22-25.34-23.65-4.68-9.42-4.48-17.15-4.35-23.15,.1-4.93-1.74-8.11-1.74-8.11-2.47,.27-7.98-2.94-9.32-3.76-.19-.12-.3-.19-.3-.19,0,0-.03,.07-.08,.19-.38,.88-2.17,4.79-4.95,6.73-1.38,.97-4.46,1.99-7.8,2.66-.61,.12-1.23,.23-1.86,.32-2.88,.44-5.75,.55-7.74,.08l-.15,1.13c2.86,.47,5.63,.98,7.83,1.28,.62,.08,1.2,.15,1.71,.19,.05,0,.12,.01,.17,.02,6.01,.42,6.71,5.87,5.17,8.52-1.11,1.91-3.8,2.72-7.27,3.03-.19,.02-.38,.04-.58,.05,.19,.04,.38,.07,.57,.11,2.1,.39,4,.73,5.42,.84,5.76,.44,6.43,6.21,4.96,9.02-1.44,2.75-5.68,3.36-10.82,3.36h-.09l.09,.02c3.39,.6,6.74,1.36,8.87,1.52,4.97,.39,5.55,5.44,4.28,7.89-1.33,2.58-5.43,3.01-10.3,2.94-2.1-.03-4.34-.15-6.57-.22-5.7-.2-8.03-1.1-8.96-3.27-1.25,3.5-3.03,6.8-5.32,9.77l-5.84,7.6c-2.87,3.72-4.42,8.3-4.42,12.99v44.42c0,3.1,.66,6.04,1.85,8.7,3.33,7.44,10.79,12.62,19.47,12.62h48.17c11.78,0,21.32-9.55,21.32-21.32v-50.15c0-1.93-.28-3.84-.79-5.68Zm-10.6,50.49c0,2.89-2.34,5.23-5.23,5.23h-57.6c-2.89,0-5.23-2.34-5.23-5.23v-31.11c0-2.89,2.34-5.23,5.23-5.23h57.6c2.89,0,5.23,2.34,5.23,5.23v31.11Z"/></g><g><path class="e" d="M540.52,83.28c0,.68-.42,1.36-1.27,1.5-6.93,1.12-13.17,4.25-18.1,8.77-4.53,4.93-7.65,11.18-8.77,18.1-.28,1.71-2.73,1.71-3.01,0-1.12-6.92-4.24-13.17-8.77-18.1-4.93-4.52-11.17-7.65-18.1-8.77-1.7-.27-1.7-2.73,0-3,6.93-1.12,13.17-4.25,18.1-8.78,4.53-4.92,7.65-11.17,8.77-18.09,.14-.85,.82-1.28,1.51-1.28s1.36,.43,1.5,1.28c1.12,6.92,4.24,13.17,8.77,18.1,2.47,2.26,5.26,4.17,8.3,5.66,3.04,1.49,6.33,2.55,9.8,3.11,.85,.14,1.27,.82,1.27,1.5Z"/><path class="e" d="M483.95,48.58c0,.41-.25,.81-.76,.89-4.08,.66-7.77,2.5-10.67,5.17-2.67,2.91-4.51,6.59-5.17,10.67-.17,1.01-1.61,1.01-1.78,0-.66-4.08-2.5-7.76-5.17-10.67-2.9-2.67-6.59-4.51-10.67-5.17-1.01-.16-1.01-1.61,0-1.77,4.08-.66,7.77-2.5,10.67-5.17,2.67-2.91,4.51-6.59,5.17-10.68,.17-1,1.61-1,1.78,0,.66,4.09,2.5,7.77,5.17,10.68,1.45,1.33,3.1,2.46,4.89,3.34,1.8,.87,3.74,1.5,5.78,1.83,.51,.08,.76,.48,.76,.88Z"/><path class="e" d="M510.4,22.31c-2.58,.41-4.9,1.58-6.73,3.26-1.68,1.83-2.85,4.15-3.26,6.73-.11,.63-1.02,.63-1.12,0-.42-2.58-1.58-4.9-3.26-6.73-1.84-1.68-4.16-2.85-6.73-3.26-.64-.11-.64-1.02,0-1.12,2.57-.42,4.89-1.58,6.73-3.26,1.68-1.83,2.84-4.16,3.26-6.73,.1-.64,1.01-.64,1.12,0,.41,2.57,1.58,4.9,3.26,6.73,1.83,1.68,4.15,2.84,6.73,3.26,.63,.1,.63,1.01,0,1.12Z"/><path class="e" d="M381.93,101.5c-1.77-.53-3.6-.91-5.51-.76-5.31,.42-7.68,3.07-9.08,7.54-1.4,4.47,2.93,7.82,7.12,7.96,.16,0,.34,.03,.5,.04-.09-.72,.09-1.47,.57-2.09,2.53-3.28,6.92-9.53,6.39-12.7Z"/><path class="e" d="M442.28,85.78h-19.47c-19.39,0-24.65-7.06-28.38-18.7h26.1c6.09,0,11.76,3.12,15.05,8.24l6.7,10.46Z"/><rect class="e" x="386.32" y="202.72" width="68.05" height="41.56" rx="5.23" ry="5.23"/><path class="e" d="M560.86,275.94c-2.54,2.51-6.02,4.06-9.87,4.06h-61.44c-7.71-28.09-16.14-67.34-23.8-80.78v-4.97c0-1.94-.27-3.84-.78-5.68-2.09-3.11-3.88-5.35-5.3-6.48-10.58-8.39-20.66-14.22-25.34-23.65-4.68-9.41-4.48-17.15-4.35-23.14,.1-4.93-1.74-8.12-1.74-8.12-2.47,.28-7.98-2.94-9.32-3.76-.2-.11-.31-.18-.31-.18,0,0-.03,.07-.08,.18-.38,.89-2.17,4.79-4.95,6.73-1.38,.97-4.46,2-7.8,2.66-.61,.12-1.23,.22-1.85,.32-2.89,.44-5.75,.55-7.74,.07l-.15,1.13c2.86,.47,5.63,.98,7.83,1.28,.62,.08,1.2,.14,1.72,.19,.05,0,.12,.01,.17,.01,6.01,.42,6.7,5.87,5.17,8.52-1.11,1.92-3.8,2.73-7.27,3.03-.19,.02-.38,.03-.58,.05,.19,.03,.39,.07,.57,.11,2.11,.39,4,.72,5.42,.83,5.76,.45,6.43,6.21,4.96,9.02-1.44,2.75-5.68,3.36-10.82,3.37h-.09s.06,.01,.09,.01c3.39,.6,6.75,1.36,8.87,1.53,4.97,.38,5.55,5.43,4.28,7.89-1.34,2.58-5.43,3.01-10.3,2.94-2.1-.02-4.35-.14-6.58-.22-5.69-.2-8.02-1.1-8.96-3.27-.27-.65-.43-1.4-.51-2.3-.35-3.88,.2-4.66,2.19-6.34,.09-.07,.21-.13,.32-.19,.22-.15,.47-.27,.75-.37-.24-.01-.47-.03-.7-.04-6.97-.48-8.72-2.18-9.09-6.26-.4-4.39,.22-5.32,2.47-7.19-5.12-.67-6.54-2.32-6.87-5.67-.15-1.5-.16-2.57,0-3.41-.06-.17-.1-.34-.12-.52-.5-5.22,4.73-10.36,10.89-15.44-2.52-2.02-5.97-3.56-9.24-4.52,5.18-4.18,9.8-10.14,12.1-13.33,1.35,.29,2.99,.85,4.78,1.54v14.41c2.78-4.52,4.91-8.4,9.05-10.74,1.72-.97,3.79-1.68,6.41-2.04,5.23-.72,11.58-1.34,17.36-1.02,4.31,.23,8.3,.98,11.25,2.59,4.12,2.25,11.92,10.53,21.2,19.91,6.31,6.36,14.08,10.54,21.72,21.92,2.81,4.19,9.41,20.22,17.82,32.54,.99,1.44,2.05,3.03,3.18,4.74,.28,.43,.57,.86,.86,1.3,.1,.16,.2,.31,.3,.46,.49,.75,.98,1.51,1.49,2.29,1.53,2.35,3.16,4.88,4.85,7.53,1.02,1.6,2.06,3.24,3.12,4.92,.68,1.08,1.37,2.17,2.07,3.28,.64,1.03,1.29,2.06,1.95,3.11,.12,.17,.23,.35,.34,.53,.74,1.18,1.49,2.37,2.24,3.58,1.13,1.8,2.27,3.63,3.42,5.48,1.73,2.77,3.47,5.57,5.21,8.38,.35,.56,.69,1.11,1.04,1.67,.24,.38,.47,.76,.71,1.14,.77,1.25,1.55,2.49,2.32,3.74,.38,.62,.77,1.24,1.16,1.87,.66,1.07,1.33,2.14,1.99,3.21,1.36,2.2,2.71,4.38,4.04,6.52,.64,1.02,1.27,2.04,1.9,3.05,6.25,10.06,11.98,19.22,16.37,25.99Z"/><path class="e" d="M362.98,73.33v6.96h-.02l-47.73,15.14-5.23,1.66v-10.17c0-8.54,1.46-16.88,4.26-24.9,.42-1.25,.89-2.48,1.39-3.71l1.91,.61,14.24,4.52,31.16,9.89h.02Z"/></g></g><path class="d" d="M426.43,234.33c-.02,.79-.06,1.58-.04,2.37,.02,.96-.43,1.34-1.37,1.34-3.79-.02-7.58-.01-11.37,0-.88,0-1.3-.39-1.29-1.28,0-1.25-.02-2.5-.03-3.75,.01-.58,.08-1.17,.02-1.75-.17-1.72,.26-3.26,1.12-4.76,.95-1.66,1.78-3.39,2.58-5.13,.49-1.07,.82-2.47-.08-3.26-1.43-1.26-1.78-2.69-1.64-4.42,.08-.1,.18-.18,.23-.3,1.18-2.92,3.32-3.86,6.4-3.45,1.96,.26,3.99,.07,5.99,.04,.99-.02,1.52,.37,1.43,1.39-.1,1.18,.31,2.42-.36,3.54-.66,.03-1.33,.11-1.99,.07-.77-.05-1.48,.06-1.72,.86-.25,.8,.51,.98,1.02,1.28,.44,.26,.67,.66,.5,1.16-.18,.53-.6,.77-1.18,.7-.47-.06-.85-.3-1.23-.57-.22-.16-.38-.54-.71-.38-.33,.16-.33,.54-.33,.88,0,2.08,.06,4.17-.02,6.25-.04,1.05,.2,1.85,1.05,2.48,2.22,1.67,3.55,3.76,3.03,6.68Zm-3.56-4.48c-2.72-1.44-2.69-3.85-2.5-6.32,0-.08,.03-.18,0-.25-.16-.41,.37-1.2-.37-1.21-.8-.02-1.82-.57-2.38,.65-.81,1.78-1.73,3.5-2.6,5.25q-.95,1.9,1.15,2.05s.08,0,.12,0c.64,.03,1.05,.35,1.06,.98,.01,.64-.39,.98-1.03,1.01-.5,.02-1,.02-1.5,0-.42-.01-.46,.23-.46,.56,0,.31,.13,.45,.44,.44,.54,0,1.09-.03,1.62,.02,.57,.05,.92,.41,.92,.99,0,.57-.35,.93-.93,.98-.5,.04-1,.02-1.5,.02-.32,0-.55,.03-.57,.45-.02,.46,.19,.56,.59,.56,2.96-.01,5.91,0,8.87,0,.32,0,.55-.04,.56-.46,.02-.47-.2-.57-.6-.55-.29,.02-.58,0-.87,0-.77,.03-1.52-.07-1.51-1.03,.01-.87,.72-.91,1.44-1.01,.51-.07,1.46,.56,1.49-.44,.03-1.07-.95-.42-1.44-.49-.7-.1-1.42-.09-1.49-.96-.07-.88,.61-1.08,1.47-1.25Zm-2.25-17.85c-1.43,.03-2.92-.4-3.77,1.48-.65,1.45-.72,2.11,.57,3.19,.62,.52,3.25,.51,3.71-.06,.7-.87,1.4-1.75,2-2.69,.73-1.14,.28-1.92-1.02-1.92-.5,0-1,0-1.49,0Zm-1.22,6.99c-.31,.19-.95-.36-1.03,.44-.08,.81,.55,.58,.92,.55,.37-.04,.98,.38,1.07-.41,.09-.81-.54-.5-.96-.58Zm6.96-6.55c.08-.37-.17-.43-.51-.44-.39-.01-.49,.16-.49,.52,0,.39,.17,.49,.52,.49,.38,0,.52-.16,.47-.56Z"/><path class="h" d="M426.43,234.33c.52-2.92-.81-5.01-3.03-6.68-.85-.64-1.09-1.44-1.05-2.48,.08-2.08,.03-4.16,.02-6.25,0-.34,0-.72,.33-.88,.33-.16,.49,.22,.71,.38,.37,.28,.75,.52,1.23,.57,.57,.07,.99-.17,1.18-.7,.17-.5-.05-.9-.5-1.16-.51-.3-1.27-.47-1.02-1.28,.25-.8,.95-.91,1.72-.86,.66,.04,1.33-.04,1.99-.07,1.61,.83,2.46,2.33,3.21,3.85,2.59,5.29,.89,11.78-3.91,15.11-.27,.19-.59,.3-.89,.44Z"/><path class="h" d="M414.33,213.7c-.15,1.73,.21,3.16,1.64,4.42,.9,.79,.57,2.19,.08,3.26-.8,1.74-1.63,3.47-2.58,5.13-.85,1.5-1.29,3.03-1.12,4.76,.06,.58-.01,1.16-.02,1.75-5.75-5.17-5.27-14.26,1.01-18.8,.3-.22,.66-.34,.99-.51Z"/><path class="i" d="M422.87,229.85c-.87,.17-1.54,.37-1.47,1.25,.07,.87,.79,.87,1.49,.96,.49,.07,1.47-.58,1.44,.49-.03,1-.98,.37-1.49,.44-.71,.1-1.42,.14-1.44,1.01-.01,.97,.74,1.07,1.51,1.03,.29-.01,.58,.01,.87,0,.4-.02,.62,.07,.6,.55-.02,.42-.24,.46-.56,.46-2.96,0-5.91,0-8.87,0-.41,0-.61-.1-.59-.56,.01-.42,.25-.45,.57-.45,.5,0,1,.03,1.5-.02,.57-.05,.92-.41,.93-.98,0-.57-.35-.94-.92-.99-.54-.05-1.08-.02-1.62-.02-.31,0-.44-.13-.44-.44,0-.33,.04-.57,.46-.56,.5,.02,1,.02,1.5,0,.64-.03,1.04-.38,1.03-1.01-.01-.63-.43-.96-1.06-.98-.04,0-.08,0-.12,0q-2.1-.15-1.15-2.05c.87-1.75,1.79-3.47,2.6-5.25,.56-1.23,1.58-.67,2.38-.65,.75,.02,.21,.8,.37,1.21,.03,.07,0,.17,0,.25-.19,2.47-.22,4.88,2.5,6.32Z"/><path class="i" d="M420.62,212c.5,0,1,0,1.49,0,1.31,0,1.75,.78,1.02,1.92-.6,.94-1.3,1.82-2,2.69-.46,.57-3.09,.58-3.71,.06-1.29-1.08-1.22-1.74-.57-3.19,.84-1.88,2.34-1.45,3.77-1.48Z"/><path class="i" d="M419.4,218.99c.41,.08,1.04-.23,.96,.58-.08,.79-.7,.37-1.07,.41-.37,.04-1,.27-.92-.55,.08-.8,.72-.25,1.03-.44Z"/><path class="i" d="M426.36,212.44c.05,.4-.09,.57-.47,.56-.36,0-.52-.1-.52-.49,0-.36,.1-.53,.49-.52,.34,.01,.58,.07,.51,.44Z"/></g></g></svg>