<?xml version="1.0" encoding="UTF-8"?><svg xmlns="http://www.w3.org/2000/svg" xmlns:xlink="http://www.w3.org/1999/xlink" viewBox="0 0 566 303.27"><defs><style>.g{fill:#356d66;}.h{fill:#fff;}.i{fill:#408e85;}.j{fill:url(#f);}.k{fill:url(#d);}.l{fill:url(#e);}.m{fill:#f2f2f2;}.n{fill:#59aaa4;}</style><linearGradient id="d" x1="53.03" y1="283.33" x2="350.3" y2="283.33" gradientTransform="translate(383.72 -198.53) rotate(65.96)" gradientUnits="userSpaceOnUse"><stop offset="0" stop-color="#356d66"/><stop offset="0" stop-color="#356e67"/><stop offset=".25" stop-color="#458881"/><stop offset=".49" stop-color="#509b94"/><stop offset=".74" stop-color="#56a6a0"/><stop offset="1" stop-color="#59aaa4"/></linearGradient><linearGradient id="e" x1="94.94" y1="283.16" x2="262.59" y2="283.16" xlink:href="#d"/><linearGradient id="f" x1="244.98" y1="187.21" x2="288.28" y2="187.21" xlink:href="#d"/></defs><g id="a"/><g id="b"><g id="c"><path class="h" d="M565,38.24v251.06c0,7.16-5.87,12.97-13.11,12.97H13.11c-7.24,0-13.11-5.81-13.11-12.97V38.24c0-7.16,5.87-12.97,13.11-12.97H551.89c3.17,0,6.08,1.12,8.35,2.97,2.91,2.38,4.76,5.97,4.76,10Z"/><path class="n" d="M565,38.24v251.06c0,7.16-5.85,12.97-13.06,12.97H15.06c-7.21,0-13.06-5.81-13.06-12.97V38.24c0-7.16,5.85-12.97,13.06-12.97H551.94c3.16,0,6.05,1.12,8.32,2.97,2.9,2.38,4.74,5.97,4.74,10Z"/><g><path class="k" d="M390.27,76.22c-6.04-17.38-13.71-34.11-21.09-50.95h-34.65c9,20.56,18.67,40.87,25.19,62.42,7.95,21.54,8.46,44.71-6.35,63.48-16.36,21.81-49.92,34.11-74.18,45.66-25.98,11.54-51.76,23.56-78.18,34.09-21.93,8.4-46.13,18.51-69.39,9.3-27.35-10.55-40.02-39.22-51.91-63.93-16.89-39.68-37.39-78.03-50.39-119.22-3.53-10.15-5.74-21.06-4.77-31.8H15.06c-7.21,0-13.06,5.81-13.06,12.97v39.85c16.85,41.86,36.33,82.61,54.72,123.8,9.62,21.31,22.42,41.91,41.52,55.94,39.75,30.51,85,17.23,126.34-2.04,42.07-19.36,85.77-36,125.95-59.11,42-26.75,57.49-73.93,39.74-120.46Z"/><path class="l" d="M279.28,36.51c-1.98-3.74-3.85-7.55-5.94-11.24h-41.42c34.98,27.3,28.58,83.11-11.68,101.8-65.57,28.1-116.55-56.55-63.2-101.8h-41.93c-29.29,47.36-5.71,116.94,48.55,134.15,74.68,26.91,147.99-49.89,115.62-122.91Z"/><path class="j" d="M301.61,130.09c-7.19-17.34,9.76-36.67,27.79-28.59,11.56,3.9,16.92,17.72,11.42,28.49-6.45,17.33-31.81,16.25-39.21,.1Z"/></g><g><path class="h" d="M49.6,96.18c-1.59,0-3.07-.27-4.42-.81s-2.52-1.3-3.51-2.28c-.99-.98-1.76-2.13-2.3-3.45-.55-1.32-.82-2.76-.82-4.32s.27-3,.82-4.32c.55-1.32,1.32-2.47,2.32-3.45,1-.98,2.17-1.74,3.51-2.28s2.8-.81,4.38-.81,3.06,.27,4.39,.81c1.33,.54,2.5,1.3,3.49,2.28,.99,.98,1.76,2.13,2.32,3.44,.56,1.31,.83,2.76,.83,4.33s-.28,3.01-.83,4.33c-.56,1.33-1.33,2.48-2.32,3.45-.99,.97-2.15,1.72-3.49,2.26-1.33,.54-2.79,.81-4.36,.81Zm-.03-4.14c.9,0,1.73-.16,2.49-.48,.76-.32,1.43-.78,2-1.38,.58-.6,1.02-1.31,1.34-2.13,.32-.82,.47-1.73,.47-2.73s-.16-1.91-.47-2.73c-.32-.82-.76-1.53-1.33-2.13s-1.23-1.06-2-1.38c-.77-.32-1.6-.48-2.51-.48s-1.73,.16-2.49,.48c-.76,.32-1.43,.78-2,1.38s-1.02,1.31-1.34,2.13c-.32,.82-.48,1.73-.48,2.73s.16,1.89,.48,2.71c.32,.83,.76,1.54,1.32,2.15s1.23,1.06,2,1.38c.77,.32,1.6,.48,2.51,.48Z"/><path class="h" d="M67.69,95.82v-13.38l1.01,1.08h-6.25v-3.84h14.95v3.84h-6.25l1.01-1.08v13.38h-4.46Z"/><path class="h" d="M80.5,95.82v-16.14h4.69l5.85,11.04h-1.87l6.25-11.04h4.21l.06,16.14h-4.06v-11.34l.69,.48-5.33,9.3h-1.9l-5.36-9.63,.83-.21v11.4h-4.06Z"/><path class="h" d="M112.27,96.06c-1.77,0-3.32-.36-4.65-1.08-1.33-.72-2.37-1.71-3.1-2.96-.73-1.25-1.09-2.67-1.09-4.27s.36-3.06,1.08-4.31c.72-1.25,1.7-2.23,2.95-2.94s2.66-1.06,4.23-1.06,2.88,.33,4.1,1c1.22,.67,2.18,1.63,2.89,2.88,.71,1.25,1.07,2.75,1.07,4.49,0,.18,0,.39-.03,.61-.02,.23-.04,.45-.06,.65h-12.58v-2.73h10.22l-1.73,.81c0-.84-.16-1.57-.49-2.19-.33-.62-.78-1.1-1.35-1.46-.58-.35-1.25-.52-2.02-.52s-1.45,.18-2.03,.52c-.59,.35-1.04,.84-1.37,1.47-.33,.63-.49,1.38-.49,2.24v.72c0,.88,.19,1.66,.56,2.33,.38,.67,.9,1.18,1.58,1.53,.68,.35,1.48,.53,2.41,.53,.83,0,1.55-.13,2.17-.39,.62-.26,1.19-.65,1.71-1.17l2.39,2.7c-.71,.84-1.6,1.49-2.68,1.94-1.08,.45-2.31,.68-3.71,.68Z"/><path class="h" d="M126.7,95.82v-13.38l1.01,1.08h-6.25v-3.84h14.95v3.84h-6.25l1.01-1.08v13.38h-4.46Z"/><path class="h" d="M147.9,84.84c2.04,.02,3.58,.5,4.65,1.42,1.07,.93,1.6,2.25,1.6,3.95s-.6,3.17-1.81,4.15c-1.21,.99-2.89,1.48-5.04,1.48l-7.78-.03v-16.14h4.46v5.16h3.92Zm-1.01,7.68c.86,.02,1.53-.17,1.99-.57,.46-.4,.69-1,.69-1.8s-.23-1.38-.69-1.73c-.46-.35-1.12-.53-1.99-.56l-2.91-.03v4.68h2.91Z"/><path class="h" d="M166.53,95.82v-16.14h4.46v6.3h6.74v-6.3h4.49v16.14h-4.49v-6.03h-6.74v6.03h-4.46Z"/><path class="h" d="M191.79,96.06c-1.21,0-2.25-.22-3.11-.65-.86-.43-1.53-1.02-1.99-1.76-.46-.74-.69-1.57-.69-2.49s.23-1.8,.68-2.52c.45-.72,1.17-1.29,2.15-1.7,.98-.41,2.26-.61,3.83-.61h4.12v2.73h-3.63c-1.06,0-1.78,.18-2.17,.54s-.59,.81-.59,1.35c0,.6,.23,1.08,.68,1.42,.45,.35,1.07,.52,1.86,.52s1.42-.18,2.02-.55c.59-.37,1.03-.92,1.3-1.64l.69,2.16c-.33,1.04-.92,1.83-1.79,2.37-.86,.54-1.98,.81-3.34,.81Zm4.72-.24v-3.15l-.29-.69v-5.64c0-1-.29-1.78-.88-2.34-.59-.56-1.48-.84-2.69-.84-.83,0-1.64,.14-2.43,.41s-1.47,.64-2.03,1.09l-1.61-3.27c.84-.62,1.86-1.1,3.05-1.44,1.19-.34,2.4-.51,3.63-.51,2.36,0,4.19,.58,5.5,1.74,1.31,1.16,1.96,2.97,1.96,5.43v9.21h-4.21Z"/><path class="h" d="M212.72,96.06c-1.67,0-3.16-.35-4.46-1.07-1.31-.71-2.33-1.69-3.07-2.95-.74-1.26-1.11-2.69-1.11-4.29s.37-3.06,1.11-4.31c.74-1.25,1.76-2.23,3.07-2.94s2.79-1.06,4.46-1.06,3.05,.35,4.26,1.06c1.21,.71,2.1,1.73,2.68,3.04l-3.48,1.95c-.4-.76-.91-1.32-1.51-1.68-.6-.36-1.26-.54-1.97-.54-.77,0-1.46,.18-2.07,.54-.62,.36-1.1,.87-1.46,1.53-.36,.66-.53,1.46-.53,2.4s.18,1.74,.53,2.4,.84,1.17,1.46,1.53c.61,.36,1.31,.54,2.07,.54,.71,0,1.37-.17,1.97-.52,.61-.35,1.11-.92,1.51-1.69l3.48,1.98c-.58,1.3-1.47,2.31-2.68,3.01-1.21,.71-2.63,1.07-4.26,1.07Z"/><path class="h" d="M39.61,127.82v-16.14h7.92c1.94,0,3.46,.37,4.55,1.1,1.09,.73,1.64,1.75,1.64,3.07s-.51,2.35-1.54,3.1c-1.03,.75-2.39,1.12-4.08,1.12l.46-1.08c1.88,0,3.29,.36,4.22,1.08,.93,.72,1.4,1.77,1.4,3.15s-.52,2.54-1.55,3.36c-1.04,.82-2.62,1.23-4.75,1.23h-8.27Zm4.12-9.51h3.4c.79,0,1.38-.15,1.77-.45,.39-.3,.59-.73,.59-1.29s-.2-1.01-.59-1.29c-.39-.28-.98-.42-1.77-.42h-3.4v3.45Zm0,6.33h3.77c.83,0,1.45-.14,1.86-.44,.41-.29,.62-.73,.62-1.33s-.19-1.07-.58-1.36c-.38-.29-.99-.44-1.81-.44h-3.86v3.57Z"/><path class="h" d="M67.11,127.82v-16.14h4.46v9.6l7.55-9.6h4.12v16.14h-4.46v-9.6l-7.52,9.6h-4.15Z"/><path class="h" d="M88.28,127.82v-16.14h4.46v6.3h6.74v-6.3h4.49v16.14h-4.49v-6.03h-6.74v6.03h-4.46Z"/><path class="h" d="M116.36,128.06c-1.67,0-3.16-.35-4.46-1.07-1.31-.71-2.33-1.69-3.07-2.95-.74-1.26-1.11-2.69-1.11-4.29s.37-3.06,1.11-4.31c.74-1.25,1.76-2.23,3.07-2.94s2.79-1.06,4.46-1.06,3.05,.35,4.26,1.06c1.21,.71,2.1,1.73,2.68,3.04l-3.48,1.95c-.4-.76-.91-1.32-1.51-1.68-.6-.36-1.26-.54-1.97-.54-.77,0-1.46,.18-2.07,.54-.62,.36-1.1,.87-1.46,1.53-.36,.66-.53,1.46-.53,2.4s.18,1.74,.53,2.4,.84,1.17,1.46,1.53c.61,.36,1.31,.54,2.07,.54,.71,0,1.37-.17,1.97-.52,.61-.35,1.11-.92,1.51-1.69l3.48,1.98c-.58,1.3-1.47,2.31-2.68,3.01-1.21,.71-2.63,1.07-4.26,1.07Z"/><path class="h" d="M130.01,127.82v-13.38l1.01,1.08h-6.25v-3.84h14.95v3.84h-6.25l1.01-1.08v13.38h-4.46Z"/><path class="h" d="M147.38,128.06c-1.21,0-2.25-.22-3.11-.65-.86-.43-1.53-1.02-1.99-1.76-.46-.74-.69-1.57-.69-2.49s.23-1.8,.68-2.52c.45-.72,1.17-1.29,2.15-1.7,.98-.41,2.26-.61,3.83-.61h4.12v2.73h-3.63c-1.06,0-1.78,.18-2.17,.54s-.59,.81-.59,1.35c0,.6,.23,1.08,.68,1.42,.45,.35,1.07,.52,1.86,.52s1.42-.18,2.02-.55c.59-.37,1.03-.92,1.3-1.64l.69,2.16c-.33,1.04-.92,1.83-1.79,2.37-.86,.54-1.98,.81-3.34,.81Zm4.72-.24v-3.15l-.29-.69v-5.64c0-1-.29-1.78-.88-2.34-.59-.56-1.48-.84-2.69-.84-.83,0-1.64,.14-2.43,.41s-1.47,.64-2.03,1.09l-1.61-3.27c.84-.62,1.86-1.1,3.05-1.44,1.19-.34,2.4-.51,3.63-.51,2.36,0,4.19,.58,5.5,1.74,1.31,1.16,1.96,2.97,1.96,5.43v9.21h-4.21Z"/><path class="h" d="M160.94,127.82v-16.14h12.41v3.84h-8.96l1.01-1.02v13.32h-4.46Z"/><path class="h" d="M176.44,133.64v-21.96h4.29v3.3l-.09,4.8,.29,4.77v9.09h-4.49Zm9.16-5.58c-1.31,0-2.45-.3-3.43-.9-.98-.6-1.74-1.51-2.29-2.74-.55-1.23-.82-2.79-.82-4.67s.26-3.46,.78-4.68c.52-1.22,1.27-2.13,2.25-2.73,.98-.6,2.15-.9,3.51-.9,1.46,0,2.77,.34,3.93,1.03,1.16,.69,2.08,1.66,2.76,2.9,.68,1.24,1.02,2.7,1.02,4.38s-.34,3.17-1.02,4.41c-.68,1.24-1.6,2.2-2.76,2.88-1.16,.68-2.47,1.02-3.93,1.02Zm-.78-3.84c.75,0,1.42-.18,2-.54,.58-.36,1.06-.87,1.41-1.54,.36-.67,.53-1.46,.53-2.38s-.18-1.74-.53-2.4c-.36-.66-.83-1.17-1.41-1.53-.59-.36-1.25-.54-2-.54s-1.42,.18-2.02,.54c-.6,.36-1.07,.87-1.41,1.53-.35,.66-.52,1.46-.52,2.4s.17,1.71,.52,2.38c.35,.67,.82,1.19,1.41,1.54,.59,.36,1.27,.54,2.02,.54Z"/><path class="h" d="M201.46,128.06c-1.21,0-2.25-.22-3.11-.65-.86-.43-1.53-1.02-1.99-1.76-.46-.74-.69-1.57-.69-2.49s.23-1.8,.68-2.52c.45-.72,1.17-1.29,2.15-1.7,.98-.41,2.26-.61,3.83-.61h4.12v2.73h-3.63c-1.06,0-1.78,.18-2.17,.54s-.59,.81-.59,1.35c0,.6,.23,1.08,.68,1.42,.45,.35,1.07,.52,1.86,.52s1.42-.18,2.02-.55c.59-.37,1.03-.92,1.3-1.64l.69,2.16c-.33,1.04-.92,1.83-1.79,2.37-.86,.54-1.98,.81-3.34,.81Zm4.72-.24v-3.15l-.29-.69v-5.64c0-1-.29-1.78-.88-2.34-.59-.56-1.48-.84-2.69-.84-.83,0-1.64,.14-2.43,.41s-1.47,.64-2.03,1.09l-1.61-3.27c.84-.62,1.86-1.1,3.05-1.44,1.19-.34,2.4-.51,3.63-.51,2.36,0,4.19,.58,5.5,1.74,1.31,1.16,1.96,2.97,1.96,5.43v9.21h-4.21Z"/><path class="h" d="M215.03,127.82v-16.14h4.69l5.85,11.04h-1.87l6.25-11.04h4.21l.06,16.14h-4.06v-11.34l.69,.48-5.33,9.3h-1.9l-5.36-9.63,.83-.21v11.4h-4.06Z"/></g><g><path class="h" d="M42.17,262.07v-24.87h20.56v24.87h-3.34v-22.7l.82,.92h-15.52l.85-.92v22.7h-3.38Z"/><path class="h" d="M77.4,262.28c-1.82,0-3.43-.41-4.84-1.24-1.41-.83-2.52-1.97-3.34-3.43s-1.23-3.11-1.23-4.96,.41-3.53,1.23-4.97c.82-1.44,1.93-2.58,3.34-3.39,1.41-.82,3.02-1.23,4.84-1.23s3.41,.41,4.83,1.23c1.42,.82,2.54,1.94,3.34,3.38,.81,1.43,1.21,3.1,1.21,4.99s-.4,3.53-1.21,4.97c-.81,1.45-1.92,2.58-3.34,3.41-1.42,.83-3.03,1.24-4.83,1.24Zm0-2.98c1.16,0,2.2-.27,3.12-.82s1.64-1.32,2.17-2.33c.52-1.01,.79-2.17,.79-3.5s-.26-2.52-.79-3.5c-.52-.98-1.24-1.75-2.17-2.29-.92-.54-1.96-.82-3.12-.82s-2.19,.27-3.1,.82c-.91,.55-1.64,1.31-2.18,2.29-.54,.98-.82,2.15-.82,3.5s.27,2.49,.82,3.5c.55,1.01,1.27,1.78,2.18,2.33s1.94,.82,3.1,.82Z"/><path class="h" d="M88.41,262.03l.2-2.88c.16,.02,.31,.05,.44,.07,.14,.02,.26,.04,.38,.04,.73,0,1.3-.26,1.72-.78,.42-.52,.73-1.21,.94-2.08,.21-.86,.35-1.84,.44-2.93s.16-2.18,.21-3.27l.31-6.96h13.88v18.83h-3.27v-16.84l.78,1h-9.28l.75-1.03-.24,5.22c-.07,1.66-.19,3.21-.38,4.65-.18,1.44-.46,2.71-.84,3.8-.38,1.09-.89,1.94-1.53,2.56-.65,.62-1.48,.92-2.51,.92-.3,0-.61-.03-.94-.09-.33-.06-.69-.14-1.07-.23Z"/><path class="h" d="M114.23,269.17c-.86,0-1.71-.15-2.52-.44-.82-.3-1.52-.73-2.11-1.3l1.4-2.56c.46,.45,.96,.79,1.5,1.03,.54,.24,1.12,.35,1.74,.35,.79,0,1.45-.21,1.98-.64s1.01-1.18,1.47-2.27l1.12-2.59,.34-.43,7.09-17.09h3.21l-8.77,20.71c-.52,1.33-1.11,2.37-1.76,3.13-.65,.76-1.36,1.3-2.13,1.62-.77,.32-1.63,.48-2.56,.48Zm4.3-6.5l-8.25-19.43h3.41l7.03,16.77-2.18,2.66Z"/><path class="h" d="M144.21,254.36c-.96,.47-1.94,.85-2.95,1.12-1.01,.27-2.05,.41-3.12,.41-2.18,0-3.91-.53-5.17-1.6-1.26-1.07-1.89-2.71-1.89-4.94v-6.11h3.27v5.9c0,1.35,.4,2.34,1.21,2.98,.81,.64,1.89,.96,3.26,.96,.86,0,1.76-.12,2.68-.36,.92-.24,1.82-.57,2.71-.99v2.63Zm-.24,7.71v-18.83h3.27v18.83h-3.27Z"/><path class="h" d="M153.62,262.07v-18.83h3.27v13.71l11.08-13.71h2.97v18.83h-3.27v-13.71l-11.05,13.71h-3Z"/><path class="h" d="M194.41,262.28c-1.84,0-3.48-.41-4.93-1.24-1.44-.83-2.58-1.97-3.39-3.41-.82-1.44-1.23-3.1-1.23-4.97s.41-3.53,1.23-4.97c.82-1.44,1.95-2.58,3.39-3.39,1.44-.82,3.09-1.23,4.93-1.23,1.64,0,3.1,.34,4.38,1.01,1.28,.67,2.28,1.68,2.98,3l-2.49,1.67c-.59-.92-1.31-1.6-2.17-2.04-.85-.44-1.77-.66-2.75-.66-1.18,0-2.24,.27-3.17,.82-.93,.55-1.67,1.31-2.22,2.29-.54,.98-.82,2.15-.82,3.5s.27,2.52,.82,3.52c.55,1,1.28,1.76,2.22,2.31s1.99,.82,3.17,.82c.98,0,1.89-.22,2.75-.66,.85-.44,1.57-1.12,2.17-2.04l2.49,1.63c-.71,1.3-1.7,2.3-2.98,3-1.29,.7-2.75,1.05-4.38,1.05Z"/><path class="h" d="M206.04,262.07v-18.83h3.27v18.83h-3.27Zm2.29-7.96v-2.91h5.97v2.91h-5.97Zm6.79-1.07l-3.04-.43,6.92-9.38h3.51l-7.4,9.81Zm4.02,9.02l-6.99-9.17,2.69-1.71,8.15,10.87h-3.85Z"/><path class="h" d="M226.47,262.07v-18.83h3.27v13.71l11.08-13.71h2.97v18.83h-3.27v-13.71l-11.05,13.71h-3Z"/><path class="h" d="M247.27,266.44v-7.35h21.28v7.35h-3.07v-4.37h-15.11v4.37h-3.1Zm15.25-5.97v-14.25h-7.84l-.17,3.62c-.05,1.18-.12,2.33-.22,3.43-.1,1.1-.26,2.11-.48,3.04-.22,.92-.53,1.68-.94,2.27-.41,.59-.96,.96-1.64,1.1l-3.24-.6c.7,.02,1.27-.22,1.71-.73,.43-.51,.77-1.21,1.01-2.11,.24-.9,.42-1.92,.53-3.07,.11-1.15,.21-2.34,.27-3.57l.27-6.36h14.02v17.23h-3.27Z"/><path class="h" d="M272.85,262.07v-18.83h3.27v18.83h-3.27Zm2.29-7.96v-2.91h5.97v2.91h-5.97Zm6.79-1.07l-3.04-.43,6.92-9.38h3.51l-7.4,9.81Zm4.02,9.02l-6.99-9.17,2.69-1.71,8.15,10.87h-3.85Z"/><path class="h" d="M293.17,269.17c-.86,0-1.71-.15-2.52-.44-.82-.3-1.52-.73-2.11-1.3l1.4-2.56c.46,.45,.96,.79,1.5,1.03,.54,.24,1.12,.35,1.74,.35,.79,0,1.45-.21,1.98-.64s1.01-1.18,1.47-2.27l1.12-2.59,.34-.43,7.09-17.09h3.21l-8.77,20.71c-.52,1.33-1.11,2.37-1.76,3.13-.65,.76-1.36,1.3-2.13,1.62-.77,.32-1.63,.48-2.56,.48Zm4.3-6.5l-8.25-19.43h3.41l7.03,16.77-2.18,2.66Z"/><path class="h" d="M327.14,262.35c-1.68,0-3.31-.27-4.89-.82-1.58-.54-2.87-1.28-3.87-2.2l1.57-2.81c.8,.78,1.83,1.42,3.1,1.92,1.27,.5,2.63,.75,4.06,.75,1.82,0,3.22-.4,4.2-1.21,.98-.8,1.47-1.88,1.47-3.23,0-.92-.22-1.73-.65-2.42-.43-.69-1.18-1.21-2.23-1.58-1.06-.37-2.51-.55-4.35-.55h-5.42l1.26-13h13.47v3.09h-12.21l1.77-1.74-.99,10.27-1.77-1.71h4.6c2.39,0,4.31,.32,5.76,.96s2.51,1.52,3.17,2.65c.66,1.13,.99,2.42,.99,3.89s-.33,2.72-.99,3.89c-.66,1.17-1.65,2.11-2.98,2.81-1.33,.7-3.02,1.05-5.06,1.05Z"/><path class="h" d="M343.89,250.56c-1.09,0-2.06-.28-2.9-.85s-1.5-1.36-1.96-2.38c-.47-1.02-.7-2.2-.7-3.55s.23-2.53,.7-3.55c.47-1.02,1.12-1.81,1.96-2.38s1.81-.85,2.9-.85,2.08,.28,2.92,.85c.83,.57,1.47,1.36,1.93,2.38,.45,1.02,.68,2.2,.68,3.55s-.23,2.53-.68,3.55c-.46,1.02-1.1,1.81-1.93,2.38-.83,.57-1.8,.85-2.92,.85Zm0-2.02c1.04,0,1.86-.42,2.46-1.26,.59-.84,.89-2.01,.89-3.5s-.3-2.66-.89-3.5c-.59-.84-1.41-1.26-2.46-1.26s-1.84,.42-2.44,1.26c-.6,.84-.9,2.01-.9,3.5s.3,2.63,.9,3.48c.6,.85,1.42,1.28,2.44,1.28Zm-1.91,13.54l16.3-24.87h2.63l-16.3,24.87h-2.63Zm17.02,.21c-1.09,0-2.06-.28-2.9-.85s-1.49-1.36-1.94-2.38c-.46-1.02-.68-2.2-.68-3.55s.23-2.53,.68-3.55c.45-1.02,1.1-1.81,1.94-2.38s1.81-.85,2.9-.85,2.08,.28,2.92,.85c.83,.57,1.48,1.36,1.94,2.38,.47,1.02,.7,2.2,.7,3.55s-.23,2.53-.7,3.55c-.47,1.02-1.11,1.81-1.94,2.38-.83,.57-1.8,.85-2.92,.85Zm0-2.03c1.02,0,1.83-.42,2.44-1.26,.6-.84,.9-2.01,.9-3.5s-.3-2.63-.9-3.48c-.6-.85-1.42-1.28-2.44-1.28s-1.84,.42-2.44,1.26c-.6,.84-.9,2.01-.9,3.5s.3,2.66,.9,3.5c.6,.84,1.42,1.26,2.44,1.26Z"/></g><g><path class="m" d="M48.37,164.71c-1.2,0-2.29-.2-3.28-.61-.99-.41-1.84-.98-2.56-1.71-.71-.73-1.27-1.6-1.66-2.6-.39-1-.59-2.1-.59-3.28s.2-2.28,.59-3.28c.39-1,.95-1.86,1.67-2.59,.72-.73,1.58-1.3,2.58-1.69s2.11-.59,3.32-.59,2.27,.19,3.25,.58c.98,.38,1.83,.93,2.55,1.63,.72,.7,1.28,1.54,1.67,2.5,.39,.97,.59,2.03,.59,3.19,0,1.02-.12,1.9-.36,2.63-.24,.73-.59,1.3-1.04,1.7-.46,.4-1.01,.6-1.67,.6s-1.16-.2-1.55-.61c-.39-.41-.58-.99-.58-1.75v-1.22l.09-1.1-.16-2.07v-2.39h1.5v6.48c0,.48,.09,.82,.29,1.01,.19,.19,.42,.29,.7,.29,.33,0,.62-.14,.87-.41,.25-.28,.43-.68,.55-1.22,.12-.53,.18-1.17,.18-1.92,0-1.01-.16-1.92-.49-2.74-.33-.82-.8-1.53-1.42-2.13-.62-.6-1.34-1.06-2.18-1.38-.83-.32-1.77-.48-2.79-.48s-1.96,.17-2.81,.51c-.85,.34-1.58,.82-2.19,1.44-.61,.62-1.08,1.35-1.41,2.21-.33,.85-.49,1.79-.49,2.81s.16,1.98,.48,2.83c.32,.86,.79,1.6,1.39,2.21,.6,.62,1.32,1.1,2.16,1.44,.83,.34,1.76,.51,2.79,.51,.53,0,1.09-.06,1.68-.19,.59-.13,1.14-.33,1.66-.6l.38,1.15c-.53,.28-1.13,.49-1.8,.63-.67,.14-1.31,.22-1.92,.22Zm-.31-3.53c-.82,0-1.54-.2-2.18-.6-.63-.4-1.13-.95-1.5-1.65-.37-.7-.55-1.49-.55-2.38s.18-1.69,.55-2.38c.37-.69,.87-1.23,1.5-1.62,.63-.39,1.36-.58,2.18-.58s1.49,.18,2.09,.53c.6,.35,1.07,.87,1.41,1.56s.51,1.52,.51,2.5-.17,1.82-.5,2.5-.8,1.21-1.4,1.58c-.6,.37-1.3,.55-2.11,.55Zm.24-1.4c.56,0,1.07-.13,1.51-.39,.44-.26,.79-.63,1.05-1.12,.26-.49,.39-1.06,.39-1.72s-.13-1.25-.39-1.73c-.26-.48-.61-.85-1.05-1.1-.44-.25-.95-.38-1.51-.38s-1.09,.13-1.53,.39c-.44,.26-.79,.63-1.04,1.11s-.37,1.05-.37,1.71,.12,1.21,.37,1.69c.25,.48,.59,.85,1.04,1.12,.44,.27,.95,.41,1.53,.41Z"/><path class="m" d="M61.31,161.07l-4.01-9.54h1.73l3.56,8.64h-.83l3.63-8.64h1.62l-4.01,9.54h-1.69Z"/><path class="m" d="M68.58,161.07v-9.54h1.59v2.59l-.16-.65c.25-.66,.68-1.16,1.28-1.51,.6-.35,1.34-.52,2.21-.52v1.67c-.07-.01-.14-.02-.2-.02h-.18c-.89,0-1.59,.28-2.11,.83-.52,.55-.78,1.35-.78,2.39v4.75h-1.66Z"/><path class="m" d="M79.56,161.18c-.98,0-1.84-.21-2.58-.63s-1.32-1-1.73-1.73-.61-1.57-.61-2.52,.2-1.79,.6-2.52,.94-1.31,1.64-1.72c.7-.41,1.48-.62,2.36-.62s1.67,.2,2.35,.61c.68,.41,1.21,.98,1.6,1.72,.39,.74,.58,1.6,.58,2.58,0,.07,0,.16,0,.25s-.01,.19-.03,.27h-7.79v-1.24h6.93l-.67,.43c.01-.61-.11-1.16-.36-1.64-.25-.48-.6-.85-1.04-1.12-.44-.27-.96-.4-1.55-.4s-1.09,.13-1.54,.4-.8,.65-1.05,1.13c-.25,.49-.38,1.04-.38,1.67v.29c0,.64,.14,1.2,.42,1.7s.68,.89,1.18,1.16,1.09,.41,1.75,.41c.54,0,1.03-.1,1.48-.29s.83-.48,1.17-.86l.92,1.12c-.41,.5-.93,.89-1.55,1.15-.62,.26-1.3,.4-2.07,.4Z"/><path class="m" d="M97.53,151.44c.74,0,1.39,.15,1.95,.45,.56,.3,1,.76,1.32,1.37,.32,.61,.48,1.39,.48,2.32v5.49h-1.66v-5.29c0-.92-.21-1.62-.62-2.09-.42-.47-1-.7-1.75-.7-.55,0-1.04,.12-1.45,.36-.41,.24-.73,.59-.96,1.06-.22,.47-.34,1.05-.34,1.75v4.91h-1.66v-5.29c0-.92-.21-1.62-.61-2.09-.41-.47-.99-.7-1.75-.7-.54,0-1.02,.12-1.43,.36-.42,.24-.74,.59-.97,1.06-.23,.47-.35,1.05-.35,1.75v4.91h-1.66v-9.54h1.59v2.54l-.26-.65c.29-.62,.73-1.11,1.33-1.46s1.3-.52,2.09-.52c.88,0,1.63,.23,2.26,.67,.63,.45,1.05,1.13,1.24,2.04l-.67-.29c.28-.73,.76-1.32,1.45-1.76,.69-.44,1.5-.67,2.42-.67Z"/><path class="m" d="M104.58,164.67c-.44,0-.86-.08-1.28-.23-.42-.15-.77-.37-1.07-.66l.71-1.3c.23,.23,.48,.4,.76,.52s.57,.18,.88,.18c.4,0,.74-.11,1-.32,.27-.22,.51-.6,.74-1.15l.57-1.31,.17-.22,3.59-8.66h1.62l-4.44,10.49c-.27,.67-.56,1.2-.89,1.58-.33,.38-.69,.66-1.08,.82s-.82,.24-1.3,.24Zm2.18-3.29l-4.18-9.85h1.73l3.56,8.5-1.11,1.35Z"/><path class="m" d="M116.24,161.18c-.68,0-1.28-.12-1.79-.36-.51-.24-.91-.57-1.18-1-.28-.43-.41-.91-.41-1.45s.12-.98,.35-1.4c.24-.42,.62-.76,1.16-1.01s1.26-.38,2.17-.38h2.9v1.24h-2.83c-.83,0-1.39,.14-1.68,.43s-.43,.64-.43,1.04c0,.47,.18,.84,.54,1.12,.36,.28,.85,.42,1.49,.42s1.17-.14,1.63-.43c.47-.29,.8-.71,1.01-1.26l.33,1.19c-.22,.56-.61,1.01-1.16,1.34-.55,.33-1.25,.5-2.09,.5Zm3.01-.11v-2.02l-.09-.38v-3.44c0-.73-.2-1.3-.61-1.7-.41-.4-1.02-.6-1.84-.6-.54,0-1.07,.09-1.59,.28s-.96,.44-1.31,.75l-.69-1.3c.47-.4,1.04-.7,1.7-.91s1.36-.31,2.08-.31c1.26,0,2.22,.32,2.9,.95,.68,.64,1.02,1.61,1.02,2.92v5.76h-1.57Z"/><path class="m" d="M124.31,161.18c-.32,0-.6-.12-.83-.35-.23-.23-.35-.53-.35-.89s.12-.65,.35-.88c.23-.23,.51-.34,.83-.34s.58,.11,.8,.34c.22,.23,.34,.52,.34,.88s-.11,.66-.34,.89c-.22,.23-.49,.35-.8,.35Z"/><path class="m" d="M131.5,161.18c-.78,0-1.47-.15-2.06-.45-.59-.3-1.05-.76-1.38-1.38-.33-.62-.49-1.39-.49-2.33v-5.49h1.66v5.29c0,.94,.22,1.64,.65,2.11,.43,.47,1.04,.7,1.82,.7,.58,0,1.08-.12,1.5-.37,.43-.25,.75-.61,.99-1.08,.23-.47,.35-1.05,.35-1.72v-4.93h1.66v9.54h-1.57v-2.57l.26,.68c-.3,.64-.75,1.13-1.35,1.48-.6,.35-1.27,.52-2.02,.52Z"/><path class="m" d="M139.36,161.07v-13.36h1.66v6.35l-.17,2.21,.1,2.21v2.57h-1.59Zm4.86,.11c-.78,0-1.49-.18-2.12-.55s-1.12-.91-1.49-1.63c-.36-.72-.54-1.62-.54-2.7s.19-1.98,.56-2.7c.37-.72,.88-1.26,1.5-1.62,.63-.36,1.32-.54,2.08-.54,.9,0,1.69,.2,2.38,.61,.69,.41,1.24,.98,1.64,1.7s.61,1.57,.61,2.55-.2,1.82-.61,2.56-.95,1.3-1.64,1.71c-.69,.41-1.49,.61-2.38,.61Zm-.14-1.51c.59,0,1.11-.14,1.58-.41s.83-.67,1.11-1.18c.27-.51,.41-1.1,.41-1.77s-.14-1.27-.41-1.77-.64-.88-1.11-1.16c-.47-.28-.99-.41-1.58-.41s-1.1,.14-1.56,.41c-.47,.28-.84,.66-1.11,1.16s-.41,1.09-.41,1.77,.14,1.26,.41,1.77c.27,.51,.64,.9,1.11,1.18,.47,.28,.99,.41,1.56,.41Z"/><path class="m" d="M155.09,161.18c-.92,0-1.74-.21-2.45-.63-.71-.42-1.28-1-1.69-1.74-.41-.74-.62-1.58-.62-2.51s.21-1.79,.62-2.52c.42-.73,.98-1.31,1.69-1.72,.71-.41,1.53-.62,2.45-.62s1.72,.21,2.45,.62c.72,.41,1.28,.98,1.69,1.71,.41,.73,.61,1.57,.61,2.53s-.21,1.79-.61,2.52c-.41,.73-.97,1.31-1.69,1.73-.72,.42-1.54,.63-2.45,.63Zm0-1.51c.59,0,1.11-.14,1.58-.41s.83-.67,1.1-1.18c.26-.51,.4-1.1,.4-1.77s-.13-1.27-.4-1.77c-.27-.5-.63-.88-1.1-1.16-.47-.28-.99-.41-1.58-.41s-1.11,.14-1.57,.41c-.46,.28-.83,.66-1.11,1.16s-.41,1.09-.41,1.77,.14,1.26,.41,1.77c.28,.51,.65,.9,1.11,1.18,.46,.28,.98,.41,1.57,.41Z"/><path class="m" d="M162.15,161.07v-9.54h1.59v2.59l-.16-.65c.25-.66,.68-1.16,1.28-1.51,.6-.35,1.34-.52,2.21-.52v1.67c-.07-.01-.14-.02-.2-.02h-.18c-.89,0-1.59,.28-2.11,.83-.52,.55-.78,1.35-.78,2.39v4.75h-1.66Z"/><path class="m" d="M169.13,161.07v-13.36h1.66v13.36h-1.66Zm1.35-2.3l.04-2.21,5.27-5.02h2l-4.04,4.14-.9,.79-2.37,2.3Zm5.65,2.3l-3.59-4.64,1.07-1.39,4.56,6.03h-2.04Z"/><path class="m" d="M180.63,149.69c-.32,0-.59-.11-.8-.32-.21-.22-.32-.48-.32-.79s.11-.59,.32-.81c.21-.22,.48-.32,.8-.32s.59,.1,.8,.31c.21,.21,.32,.47,.32,.78s-.1,.6-.31,.82c-.21,.22-.48,.33-.81,.33Zm-.83,11.38v-9.54h1.66v9.54h-1.66Z"/><path class="m" d="M185.03,161.18c-.32,0-.6-.12-.83-.35-.23-.23-.35-.53-.35-.89s.12-.65,.35-.88c.23-.23,.51-.34,.83-.34s.58,.11,.8,.34c.22,.23,.34,.52,.34,.88s-.11,.66-.34,.89c-.22,.23-.49,.35-.8,.35Z"/><path class="m" d="M192.29,161.18c-.92,0-1.74-.21-2.45-.63-.71-.42-1.28-1-1.69-1.74-.41-.74-.62-1.58-.62-2.51s.21-1.79,.62-2.52c.42-.73,.98-1.31,1.69-1.72,.71-.41,1.53-.62,2.45-.62s1.72,.21,2.45,.62c.72,.41,1.28,.98,1.69,1.71,.41,.73,.61,1.57,.61,2.53s-.21,1.79-.61,2.52c-.41,.73-.97,1.31-1.69,1.73-.72,.42-1.54,.63-2.45,.63Zm0-1.51c.59,0,1.11-.14,1.58-.41s.83-.67,1.1-1.18c.26-.51,.4-1.1,.4-1.77s-.13-1.27-.4-1.77c-.27-.5-.63-.88-1.1-1.16-.47-.28-.99-.41-1.58-.41s-1.11,.14-1.57,.41c-.46,.28-.83,.66-1.11,1.16s-.41,1.09-.41,1.77,.14,1.26,.41,1.77c.28,.51,.65,.9,1.11,1.18,.46,.28,.98,.41,1.57,.41Z"/><path class="m" d="M210.81,151.44c.74,0,1.39,.15,1.95,.45,.56,.3,1,.76,1.32,1.37,.32,.61,.48,1.39,.48,2.32v5.49h-1.66v-5.29c0-.92-.21-1.62-.62-2.09-.42-.47-1-.7-1.75-.7-.55,0-1.04,.12-1.45,.36-.41,.24-.73,.59-.96,1.06-.22,.47-.34,1.05-.34,1.75v4.91h-1.66v-5.29c0-.92-.21-1.62-.61-2.09-.41-.47-.99-.7-1.75-.7-.54,0-1.02,.12-1.43,.36-.42,.24-.74,.59-.97,1.06-.23,.47-.35,1.05-.35,1.75v4.91h-1.66v-9.54h1.59v2.54l-.26-.65c.29-.62,.73-1.11,1.33-1.46s1.3-.52,2.09-.52c.88,0,1.63,.23,2.26,.67,.63,.45,1.05,1.13,1.24,2.04l-.67-.29c.28-.73,.76-1.32,1.45-1.76,.69-.44,1.5-.67,2.42-.67Z"/><path class="m" d="M220.27,161.18c-.76,0-1.48-.11-2.17-.32-.69-.22-1.22-.48-1.62-.79l.69-1.37c.39,.28,.88,.51,1.45,.7s1.16,.29,1.76,.29c.77,0,1.33-.11,1.67-.34s.51-.55,.51-.95c0-.3-.1-.53-.31-.7-.21-.17-.48-.29-.82-.38-.34-.08-.72-.16-1.13-.22-.41-.07-.83-.15-1.24-.25-.41-.1-.79-.25-1.14-.43s-.62-.44-.83-.77-.31-.77-.31-1.32,.16-1.08,.47-1.51c.31-.43,.75-.77,1.32-1,.57-.23,1.25-.35,2.03-.35,.6,0,1.21,.08,1.82,.23s1.12,.36,1.51,.64l-.71,1.37c-.42-.29-.85-.49-1.3-.59-.45-.11-.9-.16-1.35-.16-.73,0-1.27,.12-1.62,.37-.36,.25-.54,.56-.54,.95,0,.32,.11,.57,.32,.75,.21,.17,.49,.31,.83,.4,.34,.1,.72,.18,1.13,.24,.42,.07,.83,.15,1.24,.25,.42,.1,.79,.24,1.13,.42s.62,.43,.83,.76c.21,.32,.32,.76,.32,1.3,0,.58-.16,1.07-.48,1.49-.32,.42-.78,.75-1.36,.98-.59,.23-1.29,.35-2.11,.35Z"/><path class="m" d="M226.31,161.07v-13.36h1.66v13.36h-1.66Zm1.35-2.3l.04-2.21,5.27-5.02h2l-4.04,4.14-.9,.79-2.37,2.3Zm5.65,2.3l-3.59-4.64,1.07-1.39,4.56,6.03h-2.04Z"/></g><g><path class="g" d="M343.62,125.24l48.89,100s3.41,4.79,9.71,4.76,7.47-15.65,7.47-15.65l-7.77-6.6-29.98-44.69-17.27-33.77-11.05-4.06Z"/><polygon class="g" points="427.43 38.15 467.35 124.14 460.86 129.73 419.61 40.85 427.43 38.15"/><path class="i" d="M357.67,136l39.19,74.75,27.5-9.43s37.82-17.01,38.99-17.01,15.9-17.67,15.9-17.67l-22.6-45.94-36.47-78.62-11.01-31.56-21.9-1.88-31.24,13.45-32.66,19.23-7,12.02,30.33,68.49,10.97,14.17Z"/><path class="g" d="M393,206.27s1,2,9,2,4,4,4,4h-12l-1.73-4.32,.73-1.68Z"/><g><path class="g" d="M312.11,55.27c-.69-6.05,.77-11.44,4.74-16.03,3.98-3.9,9.13-5.71,13.9-8.18,2.45-1.27,4.92-2.51,7.38-3.76,2.53-1,4.98-2.2,7.33-3.61,2.52-.99,4.95-2.18,7.28-3.59,2.44-1.14,4.9-2.25,7.32-3.44,9.33-4.58,18.65-9.18,27.97-13.78,.42-.21,.8-.49,1.2-.74C391.79,1.11,394.43,.34,397.18,0c5.68,0,10.42,2.2,14.32,6.41,1.71,2.17,3.19,4.49,4.52,6.92,1.17,2.51,2.33,5.02,3.5,7.53,1.16,2.5,2.32,5,3.48,7.5,1.16,2.51,2.33,5.02,3.49,7.53,.31,.75,.64,1.5,.94,2.26,.3,.73,.82,1.37,.26,2.28-1.4,2.25-2.74,4.53-4.03,6.85-.66,1.19-.81,.09-1.16-.19-1.16-2.51-2.33-5.02-3.49-7.53-1.16-2.5-2.32-5-3.48-7.5-1.16-2.51-2.33-5.02-3.49-7.53-1-2.63-2.23-5.11-4.14-7.19-1-1.54-2.24-2.82-3.87-3.66-1.03-.99-2.25-1.59-3.63-1.87-2.27-.94-4.6-1.04-6.98-.56-2.78,.27-5.23,1.47-7.59,2.9-2.52,1.03-4.96,2.24-7.32,3.6-2.5,1.03-4.92,2.22-7.27,3.58-2.52,1.03-4.96,2.24-7.32,3.6-2.5,1.03-4.92,2.22-7.26,3.58-2.52,1.04-4.96,2.24-7.33,3.61-2.5,1.03-4.92,2.22-7.27,3.58-2.51,1.03-4.95,2.23-7.31,3.6-2.51,1.08-5.07,2.08-7.03,4.14-2.12,1.6-3.6,3.69-4.43,6.26-.4,.67-.67,1.38-.63,2.18-.74,2.48-.57,4.95,.04,7.43,.47,2.79,1.45,5.38,2.89,7.79,.97,2.61,2.17,5.11,3.54,7.52,.98,2.58,2.18,5.06,3.51,7.48,1,2.59,2.2,5.08,3.52,7.51l3.5,7.5,3.51,7.51c1.17,2.5,2.34,4.99,3.51,7.49l3.51,7.52,3.48,7.5c1.16,2.51,2.33,5.02,3.49,7.53,.4,1.04,.81,2.08,1.21,3.12l-.37,.53-4.8-2.04c-2.7-1.32-6.09-1.69-6.98-5.46-1.17-2.51-2.33-5.02-3.5-7.52l-3.51-7.49c-1.18-2.5-2.35-5.01-3.53-7.51-1.03-2.56-2.18-5.07-3.52-7.48-1.04-2.58-2.18-5.11-3.56-7.52-1.09-2.67-2.15-5.36-3.76-7.76-.76-2.57-2.03-4.89-3.29-7.22-.99-2.59-2.19-5.06-3.51-7.48-1-2.59-2.2-5.07-3.51-7.51-.94-2.64-1.79-5.3-2.42-8.04Z"/><path class="h" d="M329.71,106.06c.69,1.38,1.38,2.76,2.06,4.13,.96,2.61,2.12,5.12,3.49,7.53,1.01,2.57,2.17,5.08,3.48,7.5,.28,1.54,1.44,2.73,1.6,4.32-2.79,.09-5.58,.17-8.37,.26-5.21,.1-10.37-.01-14.96-3.11-2.22-1.84-3.82-4.09-4.33-7.04,0-2.64-.12-5.56,1.75-7.45,4.18-4.2,9.04-7.11,15.27-6.15Z"/><path class="h" d="M336.9,140.55c3.9-.82,7.59-.05,11.19,1.54,5.13,2.27,10.28,4.48,15.42,6.71,3.24,1.4,5.84,3.64,7.99,6.46,2.37,5.91,1.49,9.3-3.52,13.55-2.54,1.38-5.28,1.85-8.12,1.83l-.8-.09c-3.15-.87-6.3-1.73-9.45-2.6-.78-.41-1.6-.67-2.47-.74-2.6-1.01-5.26-1.8-7.96-2.45-1.15-.52-2.33-.92-3.58-1.08-2.85-1.23-4.75-3.46-6.21-6.17-1.01-2.88-1.42-5.81-.76-8.83,.69-1.22,1.39-2.44,2.08-3.66,1.75-1.95,3.72-3.58,6.18-4.48Z"/><path class="g" d="M482.49,156.03c.99,2.59,2.22,5.05,3.54,7.47,1.05,2.56,2.1,5.12,3.15,7.69,.57,2.69,.99,5.39,1,8.15l-.26,2.11c-1.43,6.54-5.33,11-11.06,13.91l-7.31,3.6-7.28,3.58c-2.8,1.38-5.61,2.75-8.41,4.13-2.06,1.02-4.12,2.04-6.18,3.06l-7.31,3.6-7.28,3.58c-2.8,1.38-5.61,2.75-8.41,4.13-2.06,1.02-4.12,2.04-6.18,3.06-2.44,1.2-4.87,2.4-7.31,3.6-2.13,.96-4.34,1.66-6.6,2.2l-1.28,.12c-.62-.3-1.39,.23-1.99-.33,.29-.77,.57-1.5,.85-2.22,.85-1.74,.9-3.59,.74-5.47,.15-2.97-.35-5.82-1.56-8.53-.37-.89-.7-1.8-1.13-2.66-1.43-2.92-1.44-2.91,1.47-3.57,.26-.02,.52-.06,.77-.1,.4-.07,.8-.15,1.18-.26,1.99-.54,3.8-1.57,5.62-2.6,2.51-1.04,4.95-2.25,7.32-3.6,2.49-1.04,4.92-2.23,7.27-3.58,2.51-1.04,4.95-2.25,7.32-3.6,2.5-1.04,4.92-2.23,7.27-3.58,2.51-1.04,4.95-2.25,7.32-3.6,2.49-1.04,4.92-2.23,7.27-3.58,2.51-1.04,4.95-2.25,7.32-3.6,2.54-1.04,5.03-2.15,6.97-4.23,1.64-1.3,2.89-2.9,3.63-4.9,.78-1.17,1.18-2.48,1.25-3.89,.49-1.99,.5-3.97-.05-5.95-.26-2.86-1.24-5.47-2.67-7.91-.98-2.61-2.22-5.08-3.57-7.5-.59-1.71-1.39-3.31-2.28-4.86-1.6-3.37-3.19-6.74-4.79-10.11l-3.49-7.49c-1.16-2.51-2.33-5.02-3.49-7.53-1.16-2.5-2.32-5-3.48-7.5,0-.65,.44-.29,.7-.31,4.14,4.2,8.42,8.25,12.82,12.17,2.3,1.78,3.03,4.61,4.41,7.01,1.16,2.5,2.32,5,3.48,7.5,1.02,2.58,2.2,5.08,3.52,7.52,1.05,2.56,2.21,5.06,3.55,7.47,1.06,2.56,2.18,5.1,3.61,7.48Zm-43.14,40.62c-2.48,1.22-3.57,4.33-2.41,6.86,1.17,2.55,4.18,3.7,6.66,2.54,2.55-1.19,3.68-4.42,2.45-7.02-1.19-2.53-4.21-3.6-6.7-2.38Z"/><path class="h" d="M395.16,226.45c-4.17,1.46-8.25,1.12-12.39-.35-3.86-1.37-7.82-2.46-11.78-3.51-4.09-1.08-7.36-3.22-9.56-6.98-.59-1.74-.93-3.53-1.09-5.37l.37-3.01,.67-.55c2.27,1,4.62,1.68,7.07,1.97,1.84,.6,3.73,.81,5.64,.82,4.71,.59,9.25,.06,13.43-2.41,.72-.42,1.33-.5,2.07-.14,3.99,1.94,7.78,4.13,9.88,8.42,.56,1.85,.96,3.72,.8,5.68-.55,1.57-1.44,2.9-2.61,4.05-.84,.46-1.67,.92-2.51,1.38Z"/><path class="h" d="M373.81,200.61l-.74-.05c-3.17-.91-6.34-1.82-9.51-2.73-.67-.4-1.39-.61-2.16-.66l-8.44-2.82-2.2-1.25c-2.31-1.73-4.22-3.79-5.28-6.58-.65-2.56-.32-5.07,.3-7.57,.4-1.54,1.21-1.75,2.65-1.19,2.06,.8,4.2,1.46,6.44,1.59,1.71,.49,3.45,.7,5.23,.52,3.96,.48,7.73-.25,11.29-2.02,1.08-.53,1.96-.53,3.02-.07,4.12,1.79,7.84,4.16,10.81,7.67,3.51,6.47,2.58,10.81-2.99,14.05-2.73,.97-5.56,1.03-8.4,1.11Z"/></g><path class="h" d="M566,254.44v33.25c0,8.6-6.85,15.58-15.29,15.58h-73.85l-4.23-7.38c-1.55-1.01-1.94-2.99-3.27-4.19-1-1.99-2.24-3.85-3.57-5.62-.13-.23-.27-.46-.4-.67-.16-.24-.33-.47-.5-.7-1.49-2.36-2.99-4.71-4.49-7.05-1.56-2.31-2.55-5.06-4.84-6.83-1.77-.95-3.6-1.79-5.52-2.42-1.41-.83-2.87-1.5-4.41-1.99-2.23-1.23-4.54-2.26-6.91-3.17-.84-.62-1.77-1.05-2.76-1.32-2.96-1.43-5.91-2.86-8.88-4.29l-.52-.25c-9.12-4.81-18.27-9.6-27.03-15.1-2.34-1.68-4.68-3.36-7.02-5.05,2.1-.96,4.19-1.95,6.59-1.3,3.13,.83,6.25,1.63,9.53,1.21,2.02,.18,3.94-.24,5.8-1.07,1.11-.11,2.03-.71,3-1.18,21.47-10.56,42.95-21.12,64.41-31.72,1.5-.73,3.15-1.24,4.4-2.48,1.07-.75,2.08-1.56,2.79-2.7,5.35-5.85,7.63-12.75,6.71-20.74-.16-2.91-.7-5.71-2.23-8.22-1.21-2.62-2.44-5.25-3.65-7.88-1.11-2.38-2.22-4.76-3.32-7.14-1.01-2.57-2.17-5.08-3.48-7.51-1.17-2.51-2.33-5.01-3.5-7.52-1.01-2.57-2.17-5.08-3.48-7.51-1.17-2.5-2.33-5.01-3.49-7.52-1.03-2.57-2.17-5.08-3.49-7.5-1.17-2.51-2.32-5.02-3.49-7.53-.86-3.08-3.51-4.53-5.59-6.5-2.09-2.04-4.16-4.07-6.25-6.1-1.74-1.69-3.49-3.39-5.23-5.08-.23-.48-.56-.87-1.05-1.08-1.89-2.28-3.78-4.58-6.33-6.13-1.97-2.1-3.93-4.21-5.89-6.3-.58-.85-1.15-1.71-1.73-2.56-5.86-8.8-5.35-18.43,1.31-26.15,.86-1.01,1.41-1.12,2.41-.19,2.24,2.08,4.58,4.04,6.89,6.03,4.26,4.17,8.74,8.06,13.23,11.96,4.41,3.99,8.81,7.98,13.22,11.97,2.11,2.1,4.25,4.18,6.59,6.02,4.2,4.07,8.39,8.16,12.59,12.23,1.68,2.4,3.76,4.41,5.88,6.37,3.86,4.27,7.72,8.53,11.58,12.8,1.74,2.19,3.49,4.39,5.23,6.57,4.82,6.83,9.04,13.95,11.05,22.25,.52,2.78,1.33,5.47,2.22,8.15,.63,2.74,1.36,5.46,2.32,8.1,.62,2.74,1.41,5.42,2.38,8.05,.65,2.73,1.43,5.42,2.44,8.04,.09,.26,.2,.52,.29,.78,.51,2.49,1.35,4.87,2.26,7.21,.68,2.7,1.64,5.31,2.62,7.91,.94,2.62,1.89,5.25,2.82,7.87,.15,.38,.3,.78,.45,1.17,.26,.64,.51,1.27,.77,1.91,.49,1.59,1.03,3.16,1.85,4.61,1.04,2.57,2.19,5.08,3.58,7.49,1,2.58,2.23,5.05,3.59,7.44,3.36,7.58,6.98,15.04,10.65,22.48l4.22,8.21Z"/></g></g></g></svg>