<svg width="31" height="31" viewBox="0 0 31 31" fill="none" xmlns="http://www.w3.org/2000/svg">
<path d="M6.27594 16.3175H21.1625L16.6062 21.7902C16.5007 21.9171 16.4212 22.0635 16.3723 22.2212C16.3234 22.3788 16.3061 22.5445 16.3212 22.7089C16.3518 23.0408 16.513 23.3469 16.7693 23.56C17.0257 23.773 17.3561 23.8755 17.688 23.8449C18.02 23.8143 18.3261 23.6531 18.5392 23.3968L24.8151 15.8657C24.8573 15.8058 24.8951 15.7428 24.9281 15.6774C24.9281 15.6146 24.9908 15.577 25.016 15.5142C25.0728 15.3703 25.1026 15.2171 25.1038 15.0623C25.1026 14.9076 25.0728 14.7544 25.016 14.6105C25.016 14.5477 24.9532 14.5101 24.9281 14.4473C24.8951 14.3819 24.8573 14.3189 24.8151 14.259L18.5392 6.72787C18.4211 6.58618 18.2734 6.47224 18.1063 6.39414C17.9393 6.31604 17.7571 6.2757 17.5727 6.276C17.2794 6.27543 16.9952 6.37757 16.7693 6.5647C16.6422 6.67007 16.5372 6.79948 16.4602 6.94552C16.3832 7.09156 16.3357 7.25135 16.3206 7.41575C16.3054 7.58015 16.3228 7.74593 16.3718 7.90359C16.4208 8.06124 16.5005 8.20768 16.6062 8.33452L21.1625 13.8072H6.27594C5.94305 13.8072 5.62378 13.9394 5.38839 14.1748C5.153 14.4102 5.02075 14.7294 5.02075 15.0623C5.02075 15.3952 5.153 15.7145 5.38839 15.9499C5.62378 16.1853 5.94305 16.3175 6.27594 16.3175Z" fill="white"/>
</svg>
