<svg width="290" height="65" viewBox="0 0 290 65" fill="none" xmlns="http://www.w3.org/2000/svg">
<g clip-path="url(#clip0_32_56)">
<path d="M81.0052 38.8357C81.0052 40.3259 80.4728 41.4731 79.3962 42.2891C78.3196 43.1051 76.7224 43.5072 74.5928 43.5072H66.7724V26.5716H74.3207C76.2373 26.5716 77.7517 26.9501 78.8283 27.707C79.9168 28.4639 80.461 29.5283 80.461 30.9238C80.461 31.8226 80.2362 32.5913 79.7748 33.2418C79.3134 33.8922 78.6745 34.389 77.8582 34.7319C79.9641 35.2878 81.0171 36.6597 81.0171 38.8594L81.0052 38.8357ZM69.6474 33.8568H74.0722C75.1962 33.8568 76.048 33.6439 76.6396 33.2181C77.2193 32.7924 77.5151 32.1774 77.5151 31.3614C77.5151 29.7411 76.3674 28.9369 74.0722 28.9369H69.6474V33.8568V33.8568ZM77.1365 40.5388C77.7517 40.1367 78.0593 39.5099 78.0593 38.6583C78.0593 37.8068 77.7753 37.1327 77.2193 36.707C76.6514 36.2812 75.7759 36.0683 74.5691 36.0683H69.6592V41.1537H74.3798C75.6102 41.1537 76.5331 40.9527 77.1365 40.5506V40.5388Z" fill="#33415C"/>
<path d="M96.3029 27.4823C97.557 28.2037 98.5271 29.2208 99.2133 30.5335C99.8995 31.8463 100.243 33.3482 100.243 35.0512C100.243 36.7543 99.8995 38.2326 99.2251 39.5453C98.5508 40.8581 97.6043 41.8752 96.3975 42.5966C95.1907 43.318 93.8065 43.6846 92.2566 43.6846C91.0262 43.6846 89.9259 43.4599 88.9439 42.9987C87.9619 42.5375 87.1456 41.8752 86.483 41V49.6925H83.5016V35.0867C83.5016 33.3837 83.8565 31.8699 84.5664 30.5453C85.2763 29.2208 86.2701 28.2037 87.5478 27.4823C88.8256 26.7608 90.2927 26.3942 91.949 26.3942C93.6054 26.3942 95.0369 26.7608 96.291 27.4823H96.3029ZM94.6938 40.2431C95.5338 39.7464 96.1846 39.0368 96.646 38.138C97.1074 37.2392 97.3322 36.2102 97.3322 35.0512C97.3322 33.8922 97.1074 32.8752 96.646 31.9645C96.1846 31.0539 95.5457 30.3561 94.7175 29.8357C93.8893 29.3272 92.9428 29.067 91.878 29.067C90.2572 29.067 88.9557 29.611 87.9501 30.7109C86.9445 31.8108 86.4476 33.2418 86.4476 35.0039C86.4476 36.1748 86.6723 37.2155 87.1338 38.1143C87.5952 39.025 88.234 39.7227 89.0504 40.2194C89.8667 40.7162 90.8132 40.9645 91.878 40.9645C92.9428 40.9645 93.8657 40.7162 94.7057 40.2194L94.6938 40.2431Z" fill="#33415C"/>
<path d="M115.138 38.954L116.735 40.929C116.014 41.8279 115.114 42.502 114.014 42.975C112.914 43.4481 111.695 43.6728 110.346 43.6728C108.631 43.6728 107.105 43.3062 105.768 42.5729C104.443 41.8397 103.413 40.8108 102.68 39.4862C101.958 38.1616 101.591 36.6715 101.591 35.0158C101.591 33.3601 101.946 31.8936 102.656 30.569C103.366 29.2444 104.336 28.2155 105.567 27.4823C106.809 26.749 108.205 26.3824 109.755 26.3824C111.234 26.3824 112.571 26.7254 113.777 27.4231C114.984 28.1209 115.943 29.0907 116.664 30.3443C117.374 31.5979 117.753 33.0526 117.765 34.6846L104.845 37.3101C105.259 38.4809 105.945 39.3916 106.915 40.0302C107.886 40.6689 109.057 40.9882 110.429 40.9882C112.37 40.9882 113.943 40.3022 115.126 38.9422L115.138 38.954ZM107.022 29.7175C106.217 30.2142 105.578 30.9001 105.129 31.7753C104.679 32.6623 104.455 33.6912 104.455 34.862V35.1813L114.854 33.1354C114.582 31.9054 113.99 30.9001 113.079 30.1314C112.157 29.3627 111.056 28.9842 109.767 28.9842C108.737 28.9842 107.826 29.2326 107.022 29.7175V29.7175Z" fill="#33415C"/>
<path d="M139.321 26.5598V43.4954H136.647V31.1248L130.566 41.5795H129.276L123.266 31.1012V43.4954H120.568V26.5598H123.609L129.998 37.9961L136.564 26.5598H139.321V26.5598Z" fill="#33415C"/>
<path d="M156.724 26.5598V43.4954H154.086V38.1261H149.022L145.461 43.4954H142.302L146.266 37.7122C145.035 37.3338 144.101 36.6951 143.438 35.8081C142.787 34.9212 142.456 33.8213 142.456 32.4967C142.456 30.5572 143.095 29.0788 144.361 28.0736C145.627 27.0565 147.378 26.5598 149.614 26.5598H156.736H156.724ZM146.49 35.1104C147.177 35.6544 148.206 35.9264 149.578 35.9264H154.086V29.2444H149.697C146.869 29.2444 145.461 30.3679 145.461 32.6031C145.461 33.7385 145.804 34.5664 146.49 35.1104V35.1104Z" fill="#33415C"/>
<path d="M183.049 26.5598V41.201C183.049 44.1577 182.386 46.3456 181.049 47.7648C179.724 49.184 177.725 49.8936 175.063 49.8936C173.607 49.8936 172.223 49.6807 170.898 49.2431C169.573 48.8055 168.496 48.1787 167.656 47.3745L169.1 45.0092C169.821 45.6951 170.685 46.2273 171.691 46.6058C172.708 46.9842 173.773 47.1853 174.897 47.1853C176.672 47.1853 177.985 46.724 178.825 45.7897C179.665 44.8673 180.079 43.4363 180.079 41.5204V40.2786C179.487 41.0946 178.718 41.7096 177.772 42.1472C176.825 42.5848 175.808 42.7976 174.708 42.7976C172.543 42.7976 170.827 42.1826 169.585 40.9409C168.343 39.7109 167.715 37.8778 167.715 35.4415V26.5598H170.661V35.0867C170.661 36.707 171.04 37.9369 171.797 38.7766C172.554 39.6163 173.643 40.042 175.051 40.042C176.601 40.042 177.831 39.5572 178.73 38.5756C179.629 37.5939 180.079 36.2102 180.079 34.4244V26.5598H183.025H183.049Z" fill="#33415C"/>
<path d="M199.683 28.1919C200.866 28.8896 201.801 29.8712 202.463 31.113C203.126 32.3548 203.457 33.7858 203.457 35.3824C203.457 36.979 203.102 38.4809 202.392 39.7464C201.683 41.0118 200.689 42.0053 199.411 42.703C198.133 43.4008 196.678 43.7556 195.034 43.7556C192.277 43.7556 190.135 42.774 188.633 40.7989C187.13 38.8239 186.373 36.0565 186.373 32.4731C186.373 28.8896 187.059 26.276 188.432 24.3127C189.804 22.3377 191.898 21.0368 194.726 20.3982L202.156 18.6715L202.582 21.4862L195.743 23.0237C193.614 23.5085 192.028 24.3482 190.987 25.5191C189.946 26.6899 189.355 28.3693 189.213 30.569C189.911 29.4809 190.81 28.6413 191.91 28.0499C193.01 27.4586 194.253 27.1511 195.625 27.1511C197.139 27.1511 198.488 27.5059 199.671 28.2037L199.683 28.1919ZM197.885 40.4678C198.689 39.9829 199.316 39.297 199.778 38.4336C200.227 37.5703 200.452 36.5887 200.452 35.477C200.452 33.7976 199.955 32.4376 198.973 31.4205C197.991 30.3916 196.702 29.8831 195.104 29.8831C193.507 29.8831 192.218 30.3916 191.224 31.4205C190.23 32.4376 189.733 33.7976 189.733 35.477C189.733 36.5887 189.958 37.5703 190.419 38.4336C190.881 39.297 191.52 39.9711 192.336 40.4678C193.152 40.9645 194.075 41.2011 195.093 41.2011C196.11 41.2011 197.057 40.9527 197.873 40.4678H197.885Z" fill="#33415C"/>
<path d="M208.888 42.5729C207.598 41.8279 206.593 40.7989 205.859 39.4862C205.137 38.1735 204.771 36.6951 204.771 35.0276C204.771 33.3601 205.137 31.8817 205.859 30.569C206.581 29.2562 207.598 28.2392 208.888 27.5059C210.177 26.7727 211.633 26.406 213.242 26.406C214.851 26.406 216.306 26.7727 217.584 27.5059C218.861 28.2392 219.867 29.2681 220.589 30.569C221.31 31.8817 221.677 33.3601 221.677 35.0276C221.677 36.6951 221.31 38.1735 220.589 39.4862C219.867 40.7989 218.861 41.8279 217.584 42.5729C216.306 43.318 214.862 43.6965 213.242 43.6965C211.621 43.6965 210.177 43.318 208.888 42.5729ZM216.057 40.2549C216.886 39.7582 217.536 39.0486 218.01 38.1498C218.483 37.251 218.719 36.2102 218.719 35.0394C218.719 33.8686 218.483 32.8279 218.01 31.929C217.536 31.0184 216.886 30.3206 216.057 29.8357C215.229 29.3509 214.295 29.1025 213.253 29.1025C212.212 29.1025 211.278 29.3509 210.449 29.8357C209.621 30.3325 208.971 31.0184 208.485 31.929C208 32.8397 207.764 33.8686 207.764 35.0394C207.764 36.2102 208 37.251 208.485 38.1498C208.971 39.0604 209.621 39.7582 210.449 40.2549C211.278 40.7516 212.212 41 213.253 41C214.295 41 215.229 40.7516 216.057 40.2549Z" fill="#33415C"/>
<path d="M236.655 27.4823C237.909 28.2037 238.88 29.2208 239.566 30.5335C240.252 31.8463 240.595 33.3482 240.595 35.0512C240.595 36.7543 240.252 38.2326 239.578 39.5453C238.903 40.8581 237.957 41.8752 236.75 42.5966C235.543 43.318 234.159 43.6846 232.609 43.6846C231.379 43.6846 230.278 43.4599 229.296 42.9987C228.314 42.5375 227.498 41.8752 226.836 41V49.6925H223.854V35.0867C223.854 33.3837 224.209 31.8699 224.919 30.5453C225.629 29.2208 226.623 28.2037 227.9 27.4823C229.178 26.7608 230.645 26.3942 232.302 26.3942C233.958 26.3942 235.389 26.7608 236.644 27.4823H236.655ZM235.046 40.2431C235.886 39.7464 236.537 39.0368 236.998 38.138C237.46 37.2392 237.685 36.2102 237.685 35.0512C237.685 33.8922 237.46 32.8752 236.998 31.9645C236.537 31.0539 235.898 30.3561 235.07 29.8357C234.242 29.3272 233.295 29.067 232.231 29.067C230.61 29.067 229.308 29.611 228.303 30.7109C227.297 31.8108 226.8 33.2418 226.8 35.0039C226.8 36.1748 227.025 37.2155 227.486 38.1143C227.948 39.025 228.587 39.7227 229.403 40.2194C230.219 40.7162 231.166 40.9645 232.231 40.9645C233.295 40.9645 234.218 40.7162 235.058 40.2194L235.046 40.2431Z" fill="#33415C"/>
<path d="M249.835 36.3403H246.463V43.4954H243.517V26.5598H246.463V33.7148H249.906L255.183 26.5598H258.342L252.178 34.7083L258.78 43.4954H255.313L249.847 36.3403H249.835Z" fill="#33415C"/>
<path d="M275 26.5598V43.4954H272.172V41C271.581 41.8515 270.8 42.5138 269.842 42.975C268.883 43.4481 267.83 43.6728 266.683 43.6728C264.518 43.6728 262.802 43.046 261.56 41.8042C260.318 40.5624 259.691 38.7175 259.691 36.293V26.548H262.636V35.9382C262.636 37.5821 263.015 38.8239 263.772 39.6636C264.529 40.5033 265.618 40.929 267.026 40.929C268.576 40.929 269.806 40.4441 270.705 39.4625C271.604 38.4809 272.054 37.0972 272.054 35.3114V26.5598H275V26.5598Z" fill="#33415C"/>
<path d="M40.1287 17.1932C40.0459 17.3114 39.9868 17.4179 39.904 17.5007C38.1056 19.2983 36.3073 21.0959 34.509 22.8936C34.1304 23.272 33.8937 23.272 33.5625 22.8581C33.0064 22.1721 32.3794 21.569 31.6577 21.0723C30.0486 19.9606 28.3095 19.4639 26.381 20.0434C25.0204 20.4455 23.8965 21.2615 22.9026 22.2313C21.3054 23.7924 19.7437 25.3771 18.1702 26.9619C17.1646 27.9671 16.1352 28.9369 15.1888 29.9895C13.2958 32.1183 13.4259 35.5361 15.4372 37.5466C20.2998 42.4192 25.186 47.2917 30.0486 52.1643C32.4149 54.5414 36.4138 54.3167 38.5079 51.6557C38.4251 51.5729 38.3422 51.4783 38.2594 51.3955C35.4791 48.6045 32.687 45.8252 29.9067 43.0342C28.972 42.0999 28.9602 40.6689 29.9067 39.7819C30.2261 39.4862 30.652 39.297 31.0543 39.0368C30.7467 38.7293 30.3917 38.41 30.0723 38.067C28.8419 36.7779 29.3624 34.7674 31.0661 34.2352C31.1371 34.2116 31.2081 34.1761 31.2909 34.1524C30.3326 33.0999 30.4272 31.8817 31.1253 31.0184C31.4447 30.6163 31.8825 30.3561 32.3794 30.2378C33.2312 30.0368 33.9411 30.3206 34.58 30.8883C34.8047 29.954 35.3371 29.339 36.2126 29.0788C37.0881 28.8187 37.8572 29.0552 38.496 29.6938C40.6493 31.8463 42.8026 33.9987 44.9558 36.1511C45.0387 36.2339 45.1215 36.3049 45.2634 36.4468C45.1925 35.8673 45.1215 35.3824 45.0623 34.8975C45.0032 34.4008 44.9322 33.9041 44.8849 33.4192C44.7547 32.2365 45.642 31.0894 46.8015 30.9238C48.0793 30.7464 49.2742 31.5979 49.4398 32.8515C49.6883 34.6491 49.9012 36.4586 50.1379 38.2562C50.2088 38.7766 50.2798 39.2852 50.3627 39.8765C51.1672 39.0604 51.9244 38.3035 52.6816 37.5466C54.7757 35.4297 54.7638 31.8108 52.6461 29.7056C49.9959 27.0565 47.3339 24.3955 44.6837 21.7464C43.193 20.2562 41.7023 18.7661 40.1524 17.205L40.1287 17.1932ZM55.0478 47.611C54.9886 47.5519 54.9176 47.4691 54.8466 47.3982C53.1785 45.7306 51.5103 44.0631 49.8421 42.4074C49.6646 42.23 49.5581 42.0289 49.5818 41.7687C49.5936 41.6623 49.5818 41.544 49.5581 41.4258C49.215 38.7648 48.8838 36.1156 48.5407 33.4547C48.4815 33.0289 48.4578 32.5795 48.1147 32.2484C47.6888 31.8344 47.0618 31.728 46.5294 32C45.997 32.272 45.7249 32.8633 45.8195 33.502C46.0088 34.8502 46.1744 36.1984 46.3637 37.5466C46.3992 37.8187 46.3874 38.0788 46.1035 38.2208C45.8077 38.3627 45.6184 38.1735 45.4291 37.9842C44.1395 36.6951 42.8499 35.406 41.5603 34.117C40.2944 32.8515 39.0403 31.5861 37.7744 30.3443C37.1355 29.7175 36.0707 29.8949 35.6566 30.6518C35.349 31.2313 35.5028 31.929 36.0825 32.5204C37.0645 33.5138 38.0583 34.4954 39.0521 35.477C40.2234 36.636 41.3828 37.8068 42.5423 38.9777C42.8144 39.2497 42.8144 39.5572 42.5423 39.7464C42.2702 39.9238 42.0572 39.8173 41.8561 39.6163C41.2645 39.025 40.673 38.4455 40.0814 37.8423C38.0228 35.7608 35.9642 33.6794 33.9056 31.5979C33.3022 30.9947 32.4622 30.9711 31.9061 31.5506C31.3855 32.0946 31.421 32.9343 32.0008 33.502C32.6396 34.1288 33.2785 34.7674 33.9056 35.3942C35.9287 37.4166 37.9518 39.4271 39.9631 41.4494C40.2471 41.7332 40.2707 42.0171 40.0459 42.2418C39.833 42.4547 39.5845 42.4074 39.2887 42.1235C38.1884 41.0118 37.0763 39.912 35.976 38.8121C34.8994 37.7359 33.8228 36.6597 32.7461 35.5834C32.1309 34.9685 31.2672 34.9566 30.7112 35.5243C30.1906 36.0683 30.2379 36.908 30.8413 37.5112C31.776 38.4336 32.6988 39.3679 33.6335 40.2904C34.8994 41.5558 36.1535 42.8095 37.4076 44.0749C37.6679 44.3351 37.6915 44.6071 37.4786 44.8081C37.2656 45.0092 36.9935 44.9974 36.7332 44.7372C36.6859 44.6899 36.6267 44.6307 36.5794 44.5834C35.207 43.2116 33.8346 41.8397 32.4622 40.4678C32.1427 40.1485 31.7641 40.0184 31.3264 40.0775C30.7822 40.1485 30.3917 40.4442 30.2261 40.9763C30.0605 41.5085 30.1669 41.9934 30.581 42.4074C35.2662 47.0907 39.9513 51.7622 44.6246 56.4455C44.8967 56.7175 45.157 56.9895 45.4054 57.2378C48.6353 54.0092 51.8297 50.816 55.0478 47.611V47.611ZM54.1959 50.0946L48.2922 55.9842L51.2973 59L57.201 53.1104L54.1959 50.0946V50.0946ZM26.4401 18.9553C29.6345 18.3403 32.0008 19.7595 34.0476 21.9238L39.3952 16.59C39.3952 16.59 39.3124 16.5309 39.2532 16.5072C39.1113 16.4481 38.9693 16.389 38.8155 16.3535C37.6324 16.0342 36.4256 16.0933 35.2307 16.247C32.7935 16.5427 30.4391 17.1813 28.1793 18.1393C27.5878 18.3876 27.0199 18.6833 26.4401 18.9553V18.9553ZM59.0112 12.6045V12.569C57.8991 12.6399 56.787 12.6754 55.6867 12.7819C52.8354 13.0539 50.055 13.6097 47.3221 14.4731C46.6713 14.6741 46.0206 14.9106 45.3818 15.1472C45.015 15.2891 44.873 15.5848 44.9203 15.9987C44.9558 16.318 45.2043 16.5664 45.5711 16.59C45.7367 16.6018 45.9142 16.5545 46.0798 16.5072C47.0263 16.2116 47.9491 15.8686 48.9074 15.5966C52.4094 14.5913 55.9824 14.1301 59.6264 14.1064C60.076 14.1064 60.3718 13.7989 60.3836 13.3614C60.3836 12.9356 60.076 12.6045 59.6501 12.5926C59.4371 12.5926 59.236 12.5926 59.023 12.5926L59.0112 12.6045ZM40.0814 8.70171C40.7321 8.97372 41.3 9.24573 41.8916 9.43495C42.495 9.63601 42.8854 9.96715 43.0747 10.6058C43.2522 11.2208 43.5598 11.8003 43.82 12.4389C44.1632 11.611 44.4826 10.8187 44.8139 10.0499C44.873 9.90802 45.015 9.7661 45.157 9.70696C45.6775 9.47043 46.2099 9.25756 46.7423 9.04468C46.9908 8.93824 47.2392 8.8318 47.535 8.70171C46.6832 8.34691 45.9023 8.03942 45.1333 7.69645C45.0032 7.63732 44.873 7.4954 44.8139 7.36531C44.4708 6.59658 44.1632 5.81603 43.82 5C43.7727 5.08279 43.7372 5.13009 43.7136 5.18922C43.406 5.92247 43.1102 6.65572 42.7907 7.37714C42.7316 7.50723 42.6014 7.64915 42.4595 7.69645C41.6904 8.0276 40.9096 8.34691 40.0578 8.70171H40.0814ZM20.4654 52.59C19.7792 52.3062 19.164 51.9987 18.5251 51.7976C17.9691 51.6202 17.6851 51.2773 17.5077 50.7569C17.2947 50.1301 17.0107 49.5388 16.7268 48.8528C16.4074 49.6334 16.0998 50.343 15.8276 51.0526C15.7093 51.3601 15.5437 51.5729 15.2124 51.6794C14.9166 51.7622 14.6327 51.9159 14.3487 52.0342C13.9228 52.2116 13.4969 52.389 13 52.6018C13.6389 52.862 14.1831 53.0986 14.7392 53.3233C15.3386 53.5677 15.7606 53.9934 16.0051 54.6005C16.2299 55.1564 16.4665 55.724 16.7268 56.339C16.9398 55.8423 17.1291 55.3929 17.3065 54.9553C17.484 54.5414 17.5668 54.0447 17.8508 53.749C18.1465 53.4534 18.6434 53.3706 19.0575 53.1932C19.5071 53.0039 19.9567 52.8147 20.4536 52.6018L20.4654 52.59ZM50.1497 20.2444C50.1497 20.2444 50.3272 20.2208 50.4455 20.1853C52.2083 19.7004 53.9948 19.3693 55.805 19.1564C56.3137 19.0972 56.5858 18.7661 56.5385 18.293C56.503 17.8673 56.1244 17.5716 55.6393 17.6426C54.5864 17.7963 53.5334 17.9264 52.5041 18.1275C51.6049 18.3049 50.7176 18.5296 49.8421 18.7661C49.4398 18.8725 49.2624 19.2392 49.3333 19.6531C49.3925 19.9961 49.7001 20.2326 50.1615 20.2326L50.1497 20.2444Z" fill="#FCFCFC"/>
<path d="M40.1287 17.1932C41.6904 18.7543 43.1812 20.2444 44.6601 21.7346C47.3102 24.3837 49.9604 27.0447 52.6224 29.6938C54.7283 31.7989 54.752 35.4179 52.6579 37.5348C51.9007 38.2917 51.1435 39.0604 50.339 39.8647C50.2562 39.2733 50.1852 38.7648 50.1142 38.2444C49.8776 36.4468 49.6646 34.6373 49.4162 32.8397C49.2505 31.5979 48.0556 30.7464 46.7778 30.912C45.6184 31.0775 44.731 32.2247 44.8612 33.4074C44.9203 33.9041 44.9795 34.4008 45.0387 34.8857C45.0978 35.3706 45.1688 35.8555 45.2398 36.435C45.0978 36.3049 45.015 36.2221 44.9322 36.1393C42.7789 33.9869 40.6256 31.8344 38.4724 29.682C37.8335 29.0434 37.0527 28.8068 36.189 29.067C35.3016 29.3272 34.7811 29.9422 34.5563 30.8765C33.9292 30.3088 33.2075 30.025 32.3557 30.226C31.8588 30.3443 31.421 30.6045 31.1016 31.0066C30.4036 31.8817 30.2971 33.088 31.2672 34.1406C31.1844 34.1761 31.1134 34.1997 31.0424 34.2234C29.3388 34.7556 28.8182 36.7661 30.0486 38.0552C30.3799 38.3982 30.723 38.7293 31.0306 39.025C30.6284 39.2852 30.2024 39.4744 29.883 39.77C28.9247 40.6689 28.9365 42.088 29.883 43.0223C32.6633 45.8134 35.4555 48.5926 38.2358 51.3837C38.3186 51.4665 38.4014 51.5611 38.4842 51.6439C36.3901 54.3049 32.403 54.5296 30.025 52.1524C25.1624 47.2799 20.2761 42.4074 15.4135 37.5348C13.4023 35.5243 13.2721 32.1064 15.1651 29.9777C16.0997 28.9251 17.1409 27.9435 18.1465 26.9501C19.7201 25.3653 21.2936 23.7806 22.879 22.2195C23.8728 21.2378 24.9967 20.4336 26.3573 20.0315C28.2976 19.452 30.025 19.9369 31.634 21.0604C32.3557 21.5572 32.9946 22.1603 33.5388 22.8463C33.8701 23.2602 34.1067 23.272 34.4853 22.8817C36.2836 21.0841 38.082 19.2865 39.8803 17.4888C39.9631 17.406 40.0223 17.3114 40.1051 17.1813L40.1287 17.1932Z" fill="#4361EE"/>
<path d="M55.0478 47.611C51.8415 50.816 48.6353 54.0092 45.4054 57.2378C45.157 56.9895 44.8967 56.7175 44.6246 56.4455C39.9394 51.7622 35.2662 47.0788 30.581 42.4074C30.1669 41.9934 30.0605 41.5085 30.2261 40.9763C30.3917 40.456 30.7822 40.1485 31.3264 40.0775C31.7641 40.0184 32.1427 40.1603 32.4622 40.4678C33.8346 41.8397 35.207 43.2116 36.5794 44.5834C36.6267 44.6308 36.6859 44.6899 36.7332 44.7372C36.9935 44.9855 37.2656 45.0092 37.4786 44.8081C37.6915 44.6071 37.6679 44.3351 37.4076 44.0749C36.1535 42.8095 34.8876 41.5558 33.6335 40.2904C32.7106 39.3561 31.776 38.4336 30.8413 37.5112C30.2379 36.908 30.1906 36.0683 30.7112 35.5243C31.2672 34.9566 32.1309 34.9685 32.7461 35.5834C33.8228 36.6478 34.8994 37.7359 35.976 38.8121C37.0763 39.912 38.1884 41.0237 39.2887 42.1235C39.5727 42.4074 39.8211 42.4547 40.0459 42.2418C40.2825 42.0171 40.2471 41.7332 39.9631 41.4494C37.94 39.4271 35.9287 37.4047 33.9056 35.3942C33.2667 34.7556 32.6396 34.1288 32.0008 33.502C31.4329 32.9343 31.3856 32.0828 31.9061 31.5506C32.4622 30.9829 33.3022 30.9947 33.9056 31.5979C35.9642 33.6794 38.0228 35.7608 40.0814 37.8423C40.673 38.4336 41.2645 39.025 41.8561 39.6163C42.0572 39.8173 42.282 39.9238 42.5423 39.7464C42.8262 39.5572 42.8262 39.2615 42.5423 38.9777C41.3828 37.8068 40.2116 36.6478 39.0521 35.477C38.0583 34.4954 37.0763 33.502 36.0825 32.5204C35.5028 31.9409 35.3371 31.2313 35.6566 30.6518C36.0707 29.8831 37.1355 29.7175 37.7744 30.3443C39.0403 31.5979 40.2944 32.8633 41.5603 34.117C42.8499 35.406 44.1395 36.6951 45.4291 37.9842C45.6184 38.1735 45.8195 38.3627 46.1035 38.2208C46.3874 38.0788 46.3992 37.8187 46.3637 37.5467C46.1863 36.1984 46.0088 34.8502 45.8195 33.502C45.7249 32.8633 45.997 32.272 46.5294 32C47.0618 31.728 47.6888 31.8344 48.1147 32.2484C48.4578 32.5795 48.4815 33.0289 48.5407 33.4547C48.8838 36.1156 49.2269 38.7648 49.5581 41.4258C49.57 41.544 49.5936 41.6505 49.5818 41.7687C49.5463 42.0289 49.6528 42.23 49.8421 42.4074C51.5103 44.0749 53.1785 45.7306 54.8466 47.3982C54.9176 47.4691 54.9886 47.5519 55.0478 47.611V47.611Z" fill="#FFDA00"/>
<path d="M54.1959 50.0946L57.201 53.1104L51.2973 59L48.2922 55.9842L54.1959 50.0946V50.0946Z" fill="#4361EE"/>
<path d="M26.4401 18.9553C27.0199 18.6833 27.5878 18.3876 28.1793 18.1393C30.4391 17.1813 32.7934 16.5427 35.2307 16.247C36.4256 16.0933 37.6324 16.0342 38.8155 16.3535C38.9693 16.389 39.1113 16.4599 39.2532 16.5072C39.3124 16.5309 39.3597 16.5664 39.3952 16.59L34.0475 21.9238C32.0008 19.7595 29.6345 18.3403 26.4401 18.9553V18.9553Z" fill="#4361EE"/>
<path d="M52.6342 13.1958C53.6399 13.0184 54.6574 12.8883 55.6748 12.7937C56.787 12.6872 57.8991 12.6518 58.9994 12.5808V12.6163C59.2123 12.6163 59.4135 12.6163 59.6264 12.6163C60.0523 12.6281 60.3718 12.9593 60.3599 13.385C60.3599 13.8226 60.0523 14.1183 59.6028 14.1301C55.9706 14.1656 52.3858 14.615 48.8838 15.6202C47.9373 15.8922 47.0026 16.2352 46.0561 16.5309C45.8905 16.5782 45.713 16.6255 45.5474 16.6137C45.1688 16.5782 44.9322 16.3417 44.8967 16.0223C44.8494 15.5966 44.9913 15.3009 45.3581 15.1708C45.997 14.9343 46.6477 14.6978 47.2984 14.4967C49.0494 13.9409 50.8241 13.5151 52.6106 13.2076" fill="#4361EE"/>
<path d="M40.0814 8.70171C40.9333 8.34691 41.7141 8.03942 42.4831 7.69645C42.6133 7.63732 42.7553 7.50723 42.8144 7.37714C43.1338 6.65572 43.4296 5.92247 43.7372 5.18922C43.7609 5.13009 43.7964 5.08279 43.8437 5C44.175 5.8042 44.4944 6.58476 44.8375 7.36531C44.8967 7.4954 45.0268 7.63732 45.157 7.69645C45.926 8.03942 46.7068 8.34691 47.5587 8.70171C47.2629 8.8318 47.0145 8.93824 46.766 9.04468C46.2336 9.26938 45.7012 9.47043 45.1806 9.70696C45.0387 9.7661 44.8967 9.90802 44.8375 10.0499C44.4944 10.8187 44.1868 11.5992 43.8437 12.4389C43.5716 11.8003 43.2758 11.2208 43.0984 10.6058C42.9091 9.96715 42.5186 9.63601 41.9152 9.43495C41.3237 9.24573 40.7676 8.97372 40.1051 8.70171H40.0814Z" fill="#4361EE"/>
<path d="M20.4654 52.59C19.9567 52.8029 19.5189 52.9921 19.0694 53.1813C18.6553 53.3587 18.1584 53.4415 17.8626 53.7372C17.5668 54.0329 17.484 54.5296 17.3184 54.9435C17.1291 55.3811 16.9516 55.8187 16.7386 56.3272C16.4783 55.7122 16.2417 55.1564 16.0169 54.5887C15.7645 53.9816 15.3426 53.5559 14.751 53.3114C14.1949 53.0867 13.6389 52.8502 13.0118 52.59C13.5087 52.3771 13.9347 52.1997 14.3606 52.0223C14.6445 51.9041 14.9285 51.7622 15.2242 51.6675C15.5555 51.5729 15.7212 51.3482 15.8395 51.0407C16.1116 50.3311 16.4192 49.6216 16.7386 48.841C17.0226 49.5151 17.3065 50.1183 17.5195 50.7451C17.6969 51.2773 17.9809 51.6202 18.537 51.7858C19.1758 51.9869 19.7911 52.2944 20.4773 52.5782L20.4654 52.59Z" fill="#4361EE"/>
<path d="M50.1497 20.2444C49.6883 20.2444 49.3925 20.0079 49.3215 19.6649C49.2505 19.251 49.428 18.8962 49.8303 18.7779C50.7176 18.5414 51.5931 18.3049 52.4923 18.1393C53.5334 17.9382 54.5864 17.7963 55.6275 17.6544C56.1126 17.5834 56.4912 17.8791 56.5267 18.3049C56.574 18.7779 56.29 19.1091 55.7931 19.1682C53.983 19.3811 52.1965 19.7122 50.4336 20.1971C50.3153 20.2326 50.1852 20.2444 50.1379 20.2562L50.1497 20.2444Z" fill="#4361EE"/>
</g>
<defs>
<clipPath id="clip0_32_56">
<rect width="262" height="54" fill="white" transform="translate(13 5)"/>
</clipPath>
</defs>
</svg>
