<?xml version="1.0" encoding="UTF-8"?><svg xmlns="http://www.w3.org/2000/svg" viewBox="0 0 233.75 35.06"><defs><style>.d{fill:#ffffff;}</style></defs><g id="a"/><g id="b"><g id="c"><g><path class="d" d="M15.99,22.64c0,1.67-.6,2.97-1.81,3.88-1.21,.91-3,1.36-5.39,1.36H0V8.86H8.47c2.16,0,3.85,.42,5.06,1.27,1.22,.85,1.83,2.05,1.83,3.61,0,1-.26,1.87-.78,2.6-.52,.73-1.23,1.29-2.15,1.67,2.37,.62,3.55,2.17,3.55,4.63ZM3.24,17.05h4.96c1.26,0,2.22-.24,2.88-.72,.65-.48,.98-1.17,.98-2.08,0-1.82-1.29-2.73-3.86-2.73H3.24v5.53Zm8.41,7.5c.69-.45,1.03-1.16,1.03-2.12s-.32-1.71-.95-2.19c-.63-.48-1.62-.72-2.98-.72H3.24v5.71h5.31c1.38,0,2.41-.23,3.1-.68Z"/><path class="d" d="M33.16,9.91c1.41,.81,2.5,1.96,3.27,3.43,.77,1.47,1.15,3.17,1.15,5.08s-.38,3.57-1.14,5.04c-.76,1.47-1.81,2.61-3.17,3.43s-2.91,1.22-4.65,1.22c-1.38,0-2.62-.26-3.72-.77-1.1-.51-2.02-1.26-2.76-2.24v9.76h-3.34V18.45c0-1.91,.4-3.61,1.19-5.1,.79-1.48,1.91-2.63,3.34-3.44,1.43-.81,3.08-1.22,4.94-1.22s3.46,.41,4.88,1.22Zm-1.81,14.34c.94-.56,1.67-1.35,2.19-2.37,.52-1.02,.78-2.17,.78-3.46s-.26-2.45-.78-3.46c-.52-1.02-1.24-1.81-2.17-2.39-.93-.57-1.99-.86-3.19-.86-1.81,0-3.28,.62-4.41,1.85-1.12,1.23-1.69,2.84-1.69,4.83,0,1.32,.26,2.48,.78,3.5,.52,1.02,1.23,1.81,2.15,2.37,.92,.56,1.98,.84,3.17,.84s2.23-.28,3.17-.84Z"/><path class="d" d="M54.29,22.79l1.79,2.22c-.8,1-1.82,1.77-3.05,2.3-1.23,.53-2.6,.79-4.12,.79-1.93,0-3.64-.41-5.13-1.24-1.49-.82-2.65-1.98-3.46-3.46-.82-1.48-1.22-3.16-1.22-5.02s.4-3.5,1.19-4.99c.79-1.48,1.88-2.64,3.27-3.46,1.39-.83,2.96-1.24,4.7-1.24,1.65,0,3.16,.39,4.51,1.17,1.35,.78,2.43,1.87,3.24,3.28,.8,1.41,1.22,3.04,1.24,4.88l-14.5,2.94c.46,1.32,1.23,2.33,2.33,3.05s2.41,1.08,3.95,1.08c2.18,0,3.94-.77,5.27-2.3Zm-9.11-10.37c-.91,.55-1.61,1.32-2.12,2.31-.51,.99-.76,2.15-.76,3.46v.36l11.68-2.3c-.3-1.39-.96-2.51-2-3.37-1.03-.86-2.27-1.29-3.72-1.29-1.15,0-2.18,.28-3.08,.83Z"/><path class="d" d="M81.44,8.86V27.88h-3V14l-6.82,11.74h-1.45l-6.75-11.77v13.92h-3.03V8.86h3.41l7.17,12.85,7.37-12.85h3.1Z"/><path class="d" d="M100.98,8.86V27.88h-2.96v-6.03h-5.68l-4,6.03h-3.55l4.44-6.5c-1.38-.43-2.43-1.14-3.17-2.13-.74-.99-1.1-2.23-1.1-3.71,0-2.18,.71-3.83,2.14-4.97,1.42-1.14,3.39-1.7,5.89-1.7h7.99Zm-11.49,9.6c.77,.61,1.92,.92,3.46,.92h5.06v-7.5h-4.93c-3.17,0-4.75,1.26-4.75,3.77,0,1.27,.38,2.21,1.15,2.82Z"/><path class="d" d="M130.53,8.86V25.3c0,3.33-.75,5.78-2.24,7.38-1.49,1.59-3.73,2.39-6.72,2.39-1.63,0-3.19-.25-4.67-.74s-2.69-1.19-3.63-2.1l1.62-2.66c.8,.77,1.77,1.36,2.91,1.79,1.14,.43,2.34,.65,3.6,.65,2,0,3.47-.52,4.41-1.56,.94-1.04,1.41-2.64,1.41-4.79v-1.4c-.67,.91-1.53,1.61-2.58,2.1s-2.21,.74-3.45,.74c-2.43,0-4.35-.69-5.75-2.08-1.4-1.39-2.1-3.45-2.1-6.17V8.86h3.31v9.58c0,1.82,.42,3.2,1.27,4.14s2.07,1.42,3.65,1.42c1.75,0,3.12-.55,4.13-1.65,1.01-1.1,1.52-2.66,1.52-4.67V8.86h3.31Z"/><path class="d" d="M149.21,10.69c1.33,.79,2.37,1.88,3.12,3.28,.75,1.4,1.12,3,1.12,4.79s-.4,3.48-1.19,4.9c-.79,1.42-1.91,2.53-3.34,3.32-1.44,.79-3.07,1.18-4.91,1.18-3.1,0-5.5-1.11-7.18-3.32-1.69-2.21-2.53-5.33-2.53-9.35s.77-6.96,2.31-9.17c1.54-2.21,3.89-3.68,7.06-4.4l8.34-1.94,.48,3.16-7.68,1.72c-2.39,.55-4.17,1.48-5.34,2.8-1.17,1.32-1.84,3.21-2,5.67,.78-1.22,1.79-2.17,3.03-2.83s2.63-1,4.17-1c1.7,0,3.21,.4,4.55,1.18Zm-2.02,13.78c.91-.55,1.61-1.31,2.12-2.28s.76-2.08,.76-3.32c0-1.89-.55-3.41-1.65-4.56-1.1-1.15-2.55-1.72-4.34-1.72s-3.24,.57-4.36,1.72c-1.12,1.15-1.67,2.67-1.67,4.56,0,1.24,.26,2.35,.77,3.32s1.23,1.73,2.15,2.28c.92,.55,1.95,.83,3.1,.83s2.21-.27,3.12-.83Z"/><path class="d" d="M159.54,26.84c-1.45-.84-2.58-1.99-3.39-3.46-.82-1.47-1.22-3.14-1.22-5.01s.41-3.54,1.22-5.01c.81-1.47,1.95-2.62,3.39-3.45,1.45-.83,3.08-1.24,4.89-1.24s3.44,.41,4.88,1.24c1.43,.83,2.56,1.97,3.38,3.45,.82,1.47,1.22,3.14,1.22,5.01s-.41,3.54-1.22,5.01c-.82,1.47-1.94,2.63-3.38,3.46-1.44,.84-3.06,1.26-4.88,1.26s-3.45-.42-4.89-1.26Zm8.04-2.6c.93-.56,1.66-1.35,2.19-2.37,.53-1.02,.79-2.18,.79-3.5s-.26-2.48-.79-3.5-1.26-1.8-2.19-2.35c-.93-.55-1.98-.83-3.15-.83s-2.22,.28-3.15,.83c-.93,.55-1.67,1.33-2.21,2.35s-.81,2.18-.81,3.5,.27,2.48,.81,3.5c.54,1.02,1.28,1.81,2.21,2.37,.93,.56,1.98,.84,3.15,.84s2.22-.28,3.15-.84Z"/><path class="d" d="M190.7,9.91c1.41,.81,2.5,1.96,3.27,3.43,.77,1.47,1.15,3.17,1.15,5.08s-.38,3.57-1.14,5.04c-.76,1.47-1.81,2.61-3.17,3.43s-2.91,1.22-4.65,1.22c-1.38,0-2.62-.26-3.72-.77-1.1-.51-2.02-1.26-2.76-2.24v9.76h-3.34V18.45c0-1.91,.4-3.61,1.19-5.1,.79-1.48,1.91-2.63,3.34-3.44,1.43-.81,3.08-1.22,4.94-1.22s3.46,.41,4.88,1.22Zm-1.81,14.34c.94-.56,1.67-1.35,2.19-2.37,.52-1.02,.78-2.17,.78-3.46s-.26-2.45-.78-3.46c-.52-1.02-1.24-1.81-2.17-2.39-.93-.57-1.99-.86-3.19-.86-1.81,0-3.28,.62-4.41,1.85-1.12,1.23-1.69,2.84-1.69,4.83,0,1.32,.26,2.48,.78,3.5,.52,1.02,1.23,1.81,2.15,2.37,.92,.56,1.98,.84,3.17,.84s2.23-.28,3.17-.84Z"/><path class="d" d="M205.5,19.84h-3.79v8.04h-3.31V8.86h3.31v8.04h3.86l5.92-8.04h3.55l-6.92,9.15,7.41,9.87h-3.89l-6.13-8.04Z"/><path class="d" d="M233.75,8.86V27.88h-3.17v-2.8c-.67,.96-1.54,1.7-2.62,2.22-1.08,.53-2.26,.79-3.55,.79-2.43,0-4.35-.7-5.75-2.1-1.4-1.4-2.1-3.46-2.1-6.19V8.86h3.31v10.55c0,1.84,.42,3.24,1.27,4.18,.85,.95,2.07,1.42,3.65,1.42,1.75,0,3.12-.55,4.13-1.65s1.52-2.66,1.52-4.67V8.86h3.31Z"/></g></g></g></svg>