<?xml version="1.0" encoding="UTF-8"?><svg xmlns="http://www.w3.org/2000/svg" viewBox="0 0 417.37 85.83"><defs><style>.d{mix-blend-mode:multiply;}.d,.e{fill:#59aaa4;}.f{fill:#fff;}.g{opacity:.51;}.h{isolation:isolate;}.i{fill:#33415c;}</style></defs><g class="h"><g id="a"/><g id="b"><g id="c"><g><path class="i" d="M119.55,57.7c0,2.26-.8,4-2.41,5.22-1.61,1.23-4,1.84-7.19,1.84h-11.71v-25.62h11.3c2.88,0,5.13,.57,6.75,1.72,1.62,1.14,2.43,2.76,2.43,4.86,0,1.35-.34,2.52-1.03,3.5-.69,.98-1.65,1.73-2.87,2.25,3.15,.84,4.73,2.92,4.73,6.23Zm-16.99-7.54h6.61c1.68,0,2.96-.32,3.83-.97,.87-.64,1.31-1.58,1.31-2.8,0-2.45-1.71-3.67-5.14-3.67h-6.61v7.44Zm11.2,10.1c.92-.61,1.38-1.56,1.38-2.85s-.42-2.3-1.26-2.95c-.84-.64-2.17-.97-3.97-.97h-7.35v7.69h7.07c1.84,0,3.21-.31,4.13-.92Z"/><path class="i" d="M143.13,40.55c1.88,1.1,3.34,2.63,4.36,4.62,1.03,1.98,1.54,4.26,1.54,6.84s-.51,4.81-1.52,6.79c-1.01,1.98-2.42,3.52-4.22,4.62-1.81,1.1-3.87,1.64-6.2,1.64-1.84,0-3.49-.35-4.96-1.04-1.47-.69-2.69-1.7-3.67-3.02v13.15h-4.45v-22.09c0-2.58,.53-4.87,1.58-6.86,1.06-2,2.54-3.54,4.45-4.64,1.91-1.1,4.11-1.64,6.59-1.64s4.61,.55,6.5,1.64Zm-2.41,19.31c1.25-.76,2.23-1.82,2.92-3.19,.69-1.37,1.03-2.92,1.03-4.66s-.34-3.29-1.03-4.66c-.69-1.37-1.65-2.44-2.89-3.21-1.24-.77-2.66-1.16-4.25-1.16-2.42,0-4.38,.83-5.88,2.49-1.5,1.66-2.25,3.83-2.25,6.5,0,1.77,.34,3.34,1.03,4.71,.69,1.37,1.65,2.43,2.87,3.19,1.22,.76,2.63,1.14,4.22,1.14s2.97-.38,4.22-1.14Z"/><path class="i" d="M171.98,57.9l2.39,3c-1.07,1.35-2.43,2.38-4.06,3.09-1.64,.71-3.47,1.06-5.49,1.06-2.57,0-4.85-.56-6.84-1.67-1.99-1.11-3.53-2.67-4.62-4.66-1.09-2-1.63-4.25-1.63-6.77s.53-4.72,1.58-6.72c1.06-2,2.51-3.55,4.36-4.66,1.85-1.11,3.94-1.67,6.27-1.67,2.2,0,4.21,.52,6.02,1.57,1.81,1.05,3.24,2.52,4.32,4.42,1.07,1.9,1.62,4.09,1.65,6.57l-19.33,3.96c.61,1.77,1.64,3.14,3.1,4.11,1.45,.97,3.21,1.45,5.26,1.45,2.91,0,5.25-1.03,7.03-3.09Zm-12.15-13.97c-1.21,.74-2.15,1.78-2.82,3.12-.67,1.34-1.01,2.89-1.01,4.66v.48l15.57-3.09c-.4-1.87-1.29-3.38-2.66-4.54-1.38-1.16-3.03-1.74-4.96-1.74-1.53,0-2.9,.37-4.11,1.11Z"/><path class="i" d="M208.86,39.14v25.62h-4v-18.71l-9.09,15.81h-1.93l-9-15.85v18.75h-4.04v-25.62h4.55l9.55,17.3,9.83-17.3h4.13Z"/><path class="i" d="M235.58,39.14v25.62h-3.95v-8.12h-7.58l-5.33,8.12h-4.73l5.92-8.75c-1.84-.58-3.25-1.54-4.22-2.88-.98-1.34-1.47-3-1.47-5,0-2.93,.95-5.16,2.85-6.69,1.9-1.53,4.52-2.3,7.85-2.3h10.65Zm-15.31,12.93c1.03,.82,2.56,1.23,4.61,1.23h6.75v-10.1h-6.57c-4.22,0-6.34,1.69-6.34,5.08,0,1.71,.51,2.97,1.54,3.79Z"/><path class="i" d="M276.36,39.14v22.14c0,4.48-1,7.79-2.99,9.93-1.99,2.14-4.97,3.21-8.95,3.21-2.17,0-4.25-.33-6.22-.99s-3.59-1.6-4.84-2.83l2.16-3.58c1.07,1.03,2.36,1.84,3.88,2.42,1.52,.58,3.11,.87,4.8,.87,2.66,0,4.62-.7,5.88-2.1,1.25-1.4,1.88-3.55,1.88-6.45v-1.89c-.89,1.23-2.04,2.17-3.44,2.83-1.41,.66-2.94,.99-4.59,.99-3.24,0-5.8-.93-7.67-2.8-1.87-1.87-2.8-4.64-2.8-8.31v-13.44h4.41v12.91c0,2.45,.57,4.31,1.7,5.58,1.13,1.27,2.75,1.91,4.87,1.91,2.33,0,4.16-.74,5.51-2.22,1.35-1.48,2.02-3.58,2.02-6.28v-11.89h4.41Z"/><path class="i" d="M301.93,41.61c1.78,1.06,3.16,2.54,4.16,4.42s1.49,4.04,1.49,6.45-.53,4.68-1.58,6.6c-1.06,1.92-2.54,3.41-4.45,4.47-1.91,1.06-4.09,1.59-6.54,1.59-4.13,0-7.32-1.49-9.57-4.47-2.25-2.98-3.37-7.18-3.37-12.59s1.03-9.37,3.08-12.35c2.05-2.98,5.19-4.95,9.41-5.92l11.11-2.61,.64,4.25-10.24,2.32c-3.18,.74-5.56,2-7.12,3.77-1.56,1.77-2.45,4.32-2.66,7.64,1.04-1.64,2.39-2.92,4.04-3.82,1.65-.9,3.51-1.35,5.56-1.35,2.26,0,4.29,.53,6.06,1.59Zm-2.69,18.56c1.21-.74,2.15-1.76,2.82-3.07,.67-1.31,1.01-2.8,1.01-4.47,0-2.55-.73-4.59-2.2-6.14-1.47-1.55-3.4-2.32-5.79-2.32s-4.32,.77-5.81,2.32-2.23,3.59-2.23,6.14c0,1.68,.34,3.17,1.03,4.47,.69,1.3,1.64,2.33,2.87,3.07,1.22,.74,2.6,1.11,4.13,1.11s2.95-.37,4.16-1.11Z"/><path class="i" d="M316.39,63.36c-1.93-1.13-3.44-2.68-4.52-4.66-1.09-1.98-1.63-4.23-1.63-6.74s.54-4.76,1.63-6.74c1.09-1.98,2.59-3.53,4.52-4.64,1.93-1.11,4.1-1.67,6.52-1.67s4.58,.56,6.5,1.67c1.91,1.11,3.41,2.66,4.5,4.64,1.09,1.98,1.63,4.23,1.63,6.74s-.54,4.76-1.63,6.74c-1.09,1.98-2.59,3.54-4.5,4.66-1.91,1.13-4.08,1.69-6.5,1.69s-4.59-.56-6.52-1.69Zm10.72-3.5c1.24-.76,2.21-1.82,2.92-3.19,.7-1.37,1.06-2.94,1.06-4.71s-.35-3.34-1.06-4.71c-.7-1.37-1.68-2.42-2.92-3.17-1.24-.74-2.64-1.11-4.2-1.11s-2.96,.37-4.2,1.11c-1.24,.74-2.22,1.8-2.94,3.17-.72,1.37-1.08,2.94-1.08,4.71s.36,3.34,1.08,4.71c.72,1.37,1.7,2.43,2.94,3.19,1.24,.76,2.64,1.14,4.2,1.14s2.96-.38,4.2-1.14Z"/><path class="i" d="M358.62,40.55c1.88,1.1,3.34,2.63,4.36,4.62,1.03,1.98,1.54,4.26,1.54,6.84s-.5,4.81-1.52,6.79c-1.01,1.98-2.42,3.52-4.22,4.62-1.81,1.1-3.87,1.64-6.2,1.64-1.84,0-3.49-.35-4.96-1.04-1.47-.69-2.69-1.7-3.67-3.02v13.15h-4.45v-22.09c0-2.58,.53-4.87,1.58-6.86,1.06-2,2.54-3.54,4.45-4.64,1.91-1.1,4.11-1.64,6.59-1.64s4.61,.55,6.5,1.64Zm-2.41,19.31c1.25-.76,2.23-1.82,2.92-3.19,.69-1.37,1.03-2.92,1.03-4.66s-.34-3.29-1.03-4.66c-.69-1.37-1.65-2.44-2.89-3.21-1.24-.77-2.66-1.16-4.25-1.16-2.42,0-4.38,.83-5.88,2.49-1.5,1.66-2.25,3.83-2.25,6.5,0,1.77,.34,3.34,1.03,4.71,.69,1.37,1.64,2.43,2.87,3.19,1.22,.76,2.63,1.14,4.22,1.14s2.97-.38,4.22-1.14Z"/><path class="i" d="M379.03,53.93h-5.05v10.83h-4.41v-25.62h4.41v10.83h5.14l7.9-10.83h4.73l-9.23,12.33,9.87,13.29h-5.19l-8.17-10.83Z"/><path class="i" d="M417.37,39.14v25.62h-4.22v-3.77c-.89,1.29-2.05,2.29-3.49,3-1.44,.71-3.02,1.06-4.73,1.06-3.24,0-5.8-.94-7.67-2.83-1.87-1.89-2.8-4.66-2.8-8.34v-14.74h4.41v14.21c0,2.48,.57,4.36,1.7,5.63,1.13,1.27,2.76,1.91,4.87,1.91,2.33,0,4.16-.74,5.51-2.22,1.35-1.48,2.02-3.58,2.02-6.28v-13.24h4.41Z"/></g><g><g class="g"><path class="e" d="M51.52,16.31c-13.67,0-25.05,9.8-27.5,22.76h16.5c1.46,0,2.85,.58,3.88,1.61l7.31,7.31c.26,.26,.06,.74-.31,.69-2.96-.38-6.67,.27-6.67,6.4h-.37c.68,2.66,1.94,6.5,4.28,11.12,.97,1.91,1.79,3.95,2.5,6.07,.13,0,.25,0,.38,0,15.46,0,27.99-12.53,27.99-27.99s-12.53-27.99-27.99-27.99Z"/><path class="d" d="M31.58,49.34c-.46,.07-.86,.23-1.11,.47-1.57,1.49-2.87,4.01-4.6,5.72,1.69,3.85,4.22,7.25,7.36,9.96,.43-1.05,.8-2.05,1.09-3.03,1.03-3.46,1.63-6.02,1.92-7.37h-.84v-2.41c0-2.04-1.8-3.64-3.82-3.33Z"/><path class="d" d="M25.22,44.53h-1.69c.02,3,.52,5.89,1.42,8.6,1.53-2.16,2.15-4.47,2.39-6.15,.19-1.29-.82-2.45-2.12-2.45Z"/></g><path class="e" d="M68.95,52.04c0,12.08-6.21,22.7-15.61,28.86-.05-.27-.11-.54-.16-.81-.98-4.88-2.44-9.69-4.55-13.87-2.34-4.62-3.6-8.47-4.29-11.13h.38c0-6.13,3.71-6.78,6.67-6.4,.37,.04,.58-.43,.31-.69l-7.31-7.31c-1.03-1.03-2.42-1.61-3.88-1.61H20.44v5.46h4.78c1.31,0,2.31,1.16,2.12,2.45-.31,2.11-1.2,5.22-3.75,7.77-1.88,1.88-3.22,2.33-3.22,2.33,5.27,1.6,7.24-4.56,10.1-7.26,.25-.23,.64-.39,1.11-.46,2.01-.31,3.82,1.3,3.82,3.34v2.41h.84c-.29,1.35-.89,3.92-1.91,7.37-1.29,4.34-4.28,9.17-5.74,16.89-.34,1.85-.63,3.72-.86,5.59-.04,.3-.08,.6-.11,.9C11.86,82.65,0,68.72,0,52.04c0-11.14,5.29-21.06,13.49-27.35,.22-.17,.43-.33,.65-.49,5.7-4.17,12.73-6.63,20.34-6.63,10.94,0,20.69,5.1,27.01,13.05,4.67,5.89,7.46,13.33,7.46,21.43Z"/><path class="f" d="M65.94,37.64h0c.19,3.72,3.17,6.7,6.89,6.89h0c-3.72,.19-6.7,3.17-6.89,6.89h0c-.19-3.72-3.17-6.7-6.89-6.89h0c3.72-.19,6.7-3.17,6.89-6.89h0Z"/><path class="e" d="M76.13,69.58h0c.12,2.38,2.02,4.28,4.4,4.4h0c-2.38,.12-4.28,2.02-4.4,4.4h0c-.12-2.38-2.02-4.28-4.4-4.4h0c2.38-.12,4.28-2.02,4.4-4.4h0Z"/><path class="e" d="M68.75,10.79h0c.08,1.5,1.27,2.69,2.77,2.77h0c-1.5,.08-2.69,1.27-2.77,2.77h0c-.08-1.5-1.27-2.69-2.77-2.77h0c1.5-.08,2.69-1.27,2.77-2.77h0Z"/><path class="e" d="M18.43,13.56h0c.08,1.49,1.26,2.67,2.75,2.75h0c-1.49,.08-2.67,1.26-2.75,2.75h0c-.08-1.49-1.26-2.67-2.75-2.75h0c1.49-.08,2.67-1.26,2.75-2.75h0Z"/><path class="e" d="M56.31,0h0c.08,1.6,1.36,2.88,2.96,2.96h0c-1.6,.08-2.88,1.36-2.96,2.96h0c-.08-1.6-1.36-2.88-2.96-2.96h0c1.6-.08,2.88-1.36,2.96-2.96h0Z"/><path class="e" d="M34.64,.67h0c.15,2.85,2.42,5.13,5.27,5.27h0c-2.85,.15-5.13,2.42-5.27,5.27h0c-.15-2.85-2.42-5.13-5.27-5.27h0c2.85-.15,5.13-2.42,5.27-5.27h0Z"/><path class="f" d="M19.37,64.24h0c.15,2.89,2.46,5.19,5.34,5.34h0c-2.89,.15-5.19,2.46-5.34,5.34h0c-.15-2.89-2.46-5.19-5.34-5.34h0c2.89-.15,5.19-2.46,5.34-5.34h0Z"/><path class="f" d="M11.69,53.75h0c.07,1.27,1.08,2.28,2.34,2.34h0c-1.27,.07-2.28,1.08-2.34,2.34h0c-.07-1.27-1.08-2.28-2.34-2.34h0c1.27-.07,2.28-1.08,2.34-2.34h0Z"/></g></g></g></g></svg>