<?xml version="1.0" encoding="UTF-8"?><svg xmlns="http://www.w3.org/2000/svg" viewBox="0 0 661.01 137.17"><defs><style>.d,.e{fill:#59aaa4;mix-blend-mode:multiply;}.f{fill:#fff;}.g{isolation:isolate;}.e{opacity:.74;}.h{fill:#33415c;}</style></defs><g class="g"><g id="a"/><g id="b"><g id="c"><g><path class="h" d="M185.05,91.22c0,3.61-1.28,6.39-3.85,8.34-2.57,1.96-6.4,2.94-11.48,2.94h-18.71V61.56h18.05c4.6,0,8.19,.92,10.79,2.74,2.59,1.83,3.89,4.42,3.89,7.76,0,2.16-.55,4.03-1.65,5.6-1.1,1.57-2.63,2.77-4.59,3.59,5.04,1.34,7.56,4.66,7.56,9.96Zm-27.15-12.05h10.57c2.69,0,4.73-.51,6.13-1.54,1.39-1.03,2.09-2.52,2.09-4.48,0-3.91-2.74-5.87-8.22-5.87h-10.57v11.9Zm17.91,16.14c1.47-.98,2.2-2.5,2.2-4.56s-.67-3.68-2.02-4.71c-1.35-1.03-3.46-1.54-6.35-1.54h-11.74v12.28h11.3c2.94,0,5.14-.49,6.6-1.47Z"/><path class="h" d="M222.73,63.8c3.01,1.75,5.33,4.21,6.97,7.38,1.64,3.17,2.46,6.81,2.46,10.93s-.81,7.69-2.42,10.85c-1.61,3.17-3.87,5.63-6.75,7.38-2.89,1.75-6.19,2.63-9.91,2.63-2.94,0-5.58-.55-7.93-1.66-2.35-1.11-4.31-2.72-5.87-4.83v21.01h-7.12v-35.3c0-4.12,.84-7.78,2.53-10.97,1.69-3.19,4.06-5.67,7.12-7.42,3.06-1.75,6.57-2.63,10.53-2.63s7.38,.88,10.38,2.63Zm-3.85,30.86c2.01-1.21,3.56-2.91,4.66-5.1,1.1-2.19,1.65-4.67,1.65-7.45s-.55-5.27-1.65-7.46c-1.1-2.19-2.64-3.9-4.62-5.14-1.98-1.24-4.24-1.85-6.79-1.85-3.87,0-7,1.33-9.39,3.98-2.4,2.65-3.6,6.12-3.6,10.39,0,2.83,.55,5.34,1.65,7.53,1.1,2.19,2.63,3.89,4.59,5.1,1.96,1.21,4.21,1.82,6.75,1.82s4.74-.6,6.75-1.82Z"/><path class="h" d="M268.86,91.53l3.82,4.79c-1.71,2.16-3.88,3.81-6.49,4.94-2.62,1.13-5.54,1.7-8.77,1.7-4.11,0-7.75-.89-10.93-2.67-3.18-1.78-5.64-4.26-7.38-7.45-1.74-3.19-2.6-6.8-2.6-10.81s.84-7.54,2.53-10.74c1.69-3.19,4.01-5.68,6.97-7.45,2.96-1.78,6.3-2.67,10.02-2.67,3.52,0,6.73,.84,9.61,2.51,2.89,1.67,5.19,4.03,6.9,7.07,1.71,3.04,2.59,6.54,2.64,10.51l-30.89,6.33c.98,2.83,2.63,5.02,4.95,6.57,2.32,1.54,5.12,2.32,8.4,2.32,4.65,0,8.39-1.65,11.23-4.94Zm-19.41-22.32c-1.93,1.19-3.44,2.85-4.51,4.98-1.08,2.14-1.61,4.62-1.61,7.45v.77l24.88-4.94c-.64-2.99-2.05-5.41-4.26-7.26-2.2-1.85-4.84-2.78-7.93-2.78-2.45,0-4.64,.59-6.57,1.78Z"/><path class="h" d="M327.78,61.56v40.94h-6.38v-29.89l-14.53,25.26h-3.08l-14.38-25.34v29.97h-6.46V61.56h7.27l15.26,27.65,15.71-27.65h6.6Z"/><path class="h" d="M370.49,61.56v40.94h-6.31v-12.98h-12.11l-8.51,12.98h-7.56l9.47-13.98c-2.94-.93-5.19-2.46-6.75-4.6-1.57-2.14-2.35-4.8-2.35-7.99,0-4.69,1.52-8.25,4.55-10.7,3.03-2.45,7.22-3.67,12.55-3.67h17.03Zm-24.47,20.66c1.64,1.31,4.1,1.97,7.38,1.97h10.79v-16.14h-10.49c-6.75,0-10.13,2.7-10.13,8.11,0,2.73,.82,4.75,2.46,6.06Z"/><path class="h" d="M435.66,61.56v35.38c0,7.16-1.59,12.45-4.77,15.87-3.18,3.42-7.95,5.14-14.31,5.14-3.47,0-6.79-.53-9.94-1.58s-5.74-2.56-7.74-4.52l3.45-5.72c1.71,1.65,3.78,2.93,6.2,3.86,2.42,.93,4.98,1.39,7.67,1.39,4.26,0,7.39-1.12,9.39-3.36,2-2.24,3.01-5.68,3.01-10.31v-3.01c-1.42,1.96-3.25,3.46-5.5,4.52-2.25,1.06-4.7,1.58-7.34,1.58-5.19,0-9.27-1.49-12.25-4.48-2.98-2.99-4.48-7.42-4.48-13.29v-21.47h7.04v20.62c0,3.91,.91,6.89,2.72,8.92,1.81,2.04,4.4,3.05,7.78,3.05,3.72,0,6.65-1.18,8.81-3.55,2.15-2.37,3.23-5.72,3.23-10.04v-19h7.04Z"/><path class="h" d="M476.53,65.5c2.84,1.7,5.05,4.06,6.64,7.07s2.39,6.45,2.39,10.31-.84,7.48-2.53,10.54c-1.69,3.06-4.06,5.45-7.12,7.15-3.06,1.7-6.54,2.55-10.46,2.55-6.6,0-11.71-2.38-15.3-7.15-3.6-4.76-5.39-11.47-5.39-20.12s1.64-14.97,4.92-19.74c3.28-4.76,8.29-7.92,15.04-9.46l17.76-4.17,1.03,6.8-16.36,3.71c-5.09,1.19-8.88,3.19-11.37,6.03-2.5,2.83-3.92,6.9-4.26,12.21,1.66-2.63,3.82-4.66,6.46-6.1,2.64-1.44,5.6-2.16,8.88-2.16,3.62,0,6.85,.85,9.69,2.55Zm-4.29,29.66c1.93-1.18,3.44-2.82,4.51-4.91,1.08-2.09,1.61-4.47,1.61-7.15,0-4.07-1.17-7.34-3.52-9.81-2.35-2.47-5.43-3.71-9.25-3.71s-6.91,1.24-9.28,3.71-3.56,5.74-3.56,9.81c0,2.68,.55,5.06,1.65,7.15,1.1,2.08,2.63,3.72,4.59,4.91,1.96,1.18,4.16,1.78,6.6,1.78s4.71-.59,6.64-1.78Z"/><path class="h" d="M499.64,100.26c-3.08-1.8-5.49-4.29-7.23-7.45-1.74-3.17-2.61-6.76-2.61-10.78s.87-7.61,2.61-10.78c1.74-3.17,4.15-5.64,7.23-7.42,3.08-1.78,6.55-2.67,10.42-2.67s7.33,.89,10.38,2.67c3.06,1.78,5.46,4.25,7.19,7.42,1.74,3.17,2.6,6.76,2.6,10.78s-.87,7.61-2.6,10.78c-1.74,3.17-4.13,5.65-7.19,7.45-3.06,1.8-6.52,2.7-10.38,2.7s-7.34-.9-10.42-2.7Zm17.13-5.6c1.98-1.21,3.53-2.91,4.66-5.1,1.12-2.19,1.69-4.7,1.69-7.53s-.56-5.34-1.69-7.53c-1.13-2.19-2.68-3.87-4.66-5.06-1.98-1.18-4.22-1.78-6.71-1.78s-4.73,.59-6.71,1.78c-1.98,1.19-3.55,2.87-4.7,5.06-1.15,2.19-1.72,4.7-1.72,7.53s.58,5.34,1.72,7.53c1.15,2.19,2.72,3.89,4.7,5.1,1.98,1.21,4.22,1.82,6.71,1.82s4.73-.6,6.71-1.82Z"/><path class="h" d="M567.12,63.8c3.01,1.75,5.33,4.21,6.97,7.38,1.64,3.17,2.46,6.81,2.46,10.93s-.81,7.69-2.42,10.85c-1.61,3.17-3.87,5.63-6.75,7.38-2.89,1.75-6.19,2.63-9.91,2.63-2.93,0-5.58-.55-7.92-1.66-2.35-1.11-4.31-2.72-5.87-4.83v21.01h-7.12v-35.3c0-4.12,.84-7.78,2.53-10.97,1.69-3.19,4.06-5.67,7.12-7.42,3.06-1.75,6.57-2.63,10.53-2.63s7.38,.88,10.38,2.63Zm-3.85,30.86c2-1.21,3.56-2.91,4.66-5.1,1.1-2.19,1.65-4.67,1.65-7.45s-.55-5.27-1.65-7.46c-1.1-2.19-2.64-3.9-4.62-5.14-1.98-1.24-4.24-1.85-6.79-1.85-3.87,0-7,1.33-9.39,3.98-2.4,2.65-3.6,6.12-3.6,10.39,0,2.83,.55,5.34,1.65,7.53,1.1,2.19,2.63,3.89,4.59,5.1,1.96,1.21,4.21,1.82,6.75,1.82s4.74-.6,6.75-1.82Z"/><path class="h" d="M599.74,85.2h-8.07v17.3h-7.04V61.56h7.04v17.3h8.22l12.62-17.3h7.56l-14.75,19.7,15.78,21.24h-8.29l-13.06-17.3Z"/><path class="h" d="M661.01,61.56v40.94h-6.75v-6.03c-1.42,2.06-3.28,3.66-5.58,4.79-2.3,1.13-4.82,1.7-7.56,1.7-5.19,0-9.27-1.51-12.25-4.52-2.98-3.01-4.48-7.45-4.48-13.32v-23.56h7.04v22.71c0,3.97,.9,6.97,2.71,9,1.81,2.03,4.4,3.05,7.78,3.05,3.72,0,6.65-1.18,8.81-3.55,2.15-2.37,3.23-5.72,3.23-10.04v-21.17h7.04Z"/></g><g><g><path class="e" d="M82.33,26.07c-21.85,0-40.04,15.67-43.95,36.38h26.36c2.33,0,4.56,.92,6.2,2.57l11.68,11.68c.42,.42,.09,1.18-.5,1.1-4.73-.6-10.66,.44-10.66,10.23h-.59c1.08,4.24,3.11,10.39,6.84,17.78,1.54,3.05,2.87,6.32,4,9.71,.2,0,.41,0,.61,0,24.7,0,44.73-20.02,44.73-44.73s-20.02-44.73-44.73-44.73Z"/><path class="d" d="M50.47,78.85c-.74,.11-1.37,.37-1.77,.75-2.51,2.38-4.59,6.41-7.35,9.14,2.7,6.15,6.74,11.58,11.76,15.91,.68-1.68,1.28-3.28,1.75-4.84,1.64-5.52,2.6-9.62,3.07-11.78h-1.35v-3.86c0-3.26-2.88-5.82-6.1-5.33Z"/><path class="d" d="M40.31,71.16h-2.7c.04,4.8,.83,9.42,2.27,13.75,2.44-3.45,3.43-7.14,3.82-9.83,.3-2.07-1.3-3.91-3.39-3.91Z"/></g><path class="h" d="M110.2,83.16c0,19.3-9.92,36.28-24.95,46.12-.08-.43-.17-.87-.25-1.3-1.57-7.8-3.9-15.49-7.27-22.17-3.74-7.39-5.76-13.53-6.85-17.78h.6c0-9.8,5.93-10.84,10.66-10.23,.59,.07,.92-.68,.5-1.1l-11.69-11.69c-1.64-1.64-3.87-2.57-6.2-2.57H32.67v8.72h7.64c2.09,0,3.69,1.85,3.39,3.91-.49,3.38-1.92,8.34-5.99,12.41-3,3-5.15,3.72-5.15,3.72,8.43,2.56,11.57-7.28,16.14-11.61,.4-.37,1.03-.63,1.77-.74,3.22-.49,6.1,2.07,6.1,5.33v3.85h1.35c-.46,2.16-1.42,6.26-3.06,11.78-2.06,6.93-6.84,14.65-9.17,26.99-.55,2.95-1.01,5.94-1.38,8.93-.07,.48-.12,.96-.18,1.44C18.95,132.08,0,109.83,0,83.16c0-17.81,8.45-33.65,21.56-43.71,.35-.27,.69-.53,1.04-.79,9.11-6.66,20.35-10.6,32.5-10.6,17.49,0,33.07,8.15,43.17,20.85,7.46,9.41,11.93,21.31,11.93,34.25Z"/><path class="f" d="M105.38,60.15h0c.31,5.95,5.06,10.7,11.01,11.01h0c-5.95,.31-10.7,5.06-11.01,11.01h0c-.31-5.95-5.06-10.7-11.01-11.01h0c5.95-.31,10.7-5.06,11.01-11.01h0Z"/><path class="h" d="M121.67,111.19h0c.2,3.8,3.23,6.84,7.04,7.04h0c-3.8,.2-6.84,3.23-7.04,7.04h0c-.2-3.8-3.23-6.84-7.04-7.04h0c3.8-.2,6.84-3.23,7.04-7.04h0Z"/><path class="h" d="M109.88,17.25h0c.12,2.39,2.03,4.3,4.42,4.42h0c-2.39,.12-4.3,2.03-4.42,4.42h0c-.12-2.39-2.03-4.3-4.42-4.42h0c2.39-.12,4.3-2.03,4.42-4.42h0Z"/><path class="h" d="M29.46,21.67h0c.12,2.37,2.02,4.27,4.39,4.39h0c-2.37,.12-4.27,2.02-4.39,4.39h0c-.12-2.37-2.02-4.27-4.39-4.39h0c2.37-.12,4.27-2.02,4.39-4.39h0Z"/><path class="h" d="M90,0h0c.13,2.56,2.18,4.6,4.73,4.73h0c-2.56,.13-4.6,2.18-4.73,4.73h0c-.13-2.56-2.18-4.6-4.73-4.73h0c2.56-.13,4.6-2.18,4.73-4.73h0Z"/><path class="h" d="M55.36,1.06h0c.24,4.55,3.87,8.19,8.43,8.43h0c-4.55,.24-8.19,3.87-8.43,8.43h0c-.24-4.55-3.87-8.19-8.43-8.43h0c4.55-.24,8.19-3.87,8.43-8.43h0Z"/><path class="f" d="M30.96,102.66h0c.24,4.61,3.92,8.3,8.53,8.53h0c-4.61,.24-8.3,3.92-8.53,8.53h0c-.24-4.61-3.92-8.3-8.53-8.53h0c4.61-.24,8.3-3.92,8.53-8.53h0Z"/><path class="f" d="M18.68,85.9h0c.1,2.02,1.72,3.64,3.74,3.74h0c-2.02,.1-3.64,1.72-3.74,3.74h0c-.1-2.02-1.72-3.64-3.74-3.74h0c2.02-.1,3.64-1.72,3.74-3.74h0Z"/></g></g></g></g></svg>