<?xml version="1.0" encoding="UTF-8"?><svg xmlns="http://www.w3.org/2000/svg" viewBox="0 0 295.25 59.23"><defs><style>.d{fill:#33415c;}.e{fill:#59aaa4;}.f{fill:#fefefe;}</style></defs><g id="a"/><g id="b"><g id="c"><g><path class="d" d="M77.49,36.37c0,1.67-.6,2.97-1.81,3.88-1.21,.91-3,1.36-5.39,1.36h-8.79V22.59h8.47c2.16,0,3.85,.42,5.06,1.27,1.22,.85,1.83,2.05,1.83,3.61,0,1-.26,1.87-.78,2.6-.52,.73-1.23,1.29-2.15,1.67,2.37,.62,3.55,2.17,3.55,4.63Zm-12.75-5.6h4.96c1.26,0,2.22-.24,2.88-.72,.65-.48,.98-1.17,.98-2.08,0-1.82-1.29-2.73-3.86-2.73h-4.96v5.53Zm8.41,7.5c.69-.45,1.03-1.16,1.03-2.12s-.32-1.71-.95-2.19c-.63-.48-1.62-.72-2.98-.72h-5.51v5.71h5.31c1.38,0,2.41-.23,3.1-.68Z"/><path class="d" d="M94.66,23.63c1.41,.81,2.5,1.96,3.27,3.43,.77,1.47,1.15,3.17,1.15,5.08s-.38,3.57-1.14,5.04c-.76,1.47-1.81,2.61-3.17,3.43s-2.91,1.22-4.65,1.22c-1.38,0-2.62-.26-3.72-.77-1.1-.51-2.02-1.26-2.76-2.24v9.76h-3.34v-16.4c0-1.91,.4-3.61,1.19-5.1,.79-1.48,1.91-2.63,3.34-3.44,1.43-.81,3.08-1.22,4.94-1.22s3.46,.41,4.88,1.22Zm-1.81,14.34c.94-.56,1.67-1.35,2.19-2.37,.52-1.02,.78-2.17,.78-3.46s-.26-2.45-.78-3.46c-.52-1.02-1.24-1.81-2.17-2.39-.93-.57-1.99-.86-3.19-.86-1.81,0-3.28,.62-4.41,1.85-1.12,1.23-1.69,2.84-1.69,4.83,0,1.32,.26,2.48,.78,3.5,.52,1.02,1.23,1.81,2.15,2.37,.92,.56,1.98,.84,3.17,.84s2.23-.28,3.17-.84Z"/><path class="d" d="M115.8,36.51l1.79,2.22c-.8,1-1.82,1.77-3.05,2.3-1.23,.53-2.6,.79-4.12,.79-1.93,0-3.64-.41-5.13-1.24-1.49-.82-2.65-1.98-3.46-3.46-.82-1.48-1.22-3.16-1.22-5.02s.4-3.5,1.19-4.99c.79-1.48,1.88-2.64,3.27-3.46,1.39-.83,2.96-1.24,4.7-1.24,1.65,0,3.16,.39,4.51,1.17,1.35,.78,2.43,1.87,3.24,3.28,.8,1.41,1.22,3.04,1.24,4.88l-14.5,2.94c.46,1.32,1.23,2.33,2.33,3.05s2.41,1.08,3.95,1.08c2.18,0,3.94-.77,5.27-2.3Zm-9.11-10.37c-.91,.55-1.61,1.32-2.12,2.31-.51,.99-.76,2.15-.76,3.46v.36l11.68-2.3c-.3-1.39-.96-2.51-2-3.37-1.03-.86-2.27-1.29-3.72-1.29-1.15,0-2.18,.28-3.08,.83Z"/><path class="d" d="M142.95,22.59v19.02h-3v-13.89l-6.82,11.74h-1.45l-6.75-11.77v13.92h-3.03V22.59h3.41l7.17,12.85,7.37-12.85h3.1Z"/><path class="d" d="M162.48,22.59v19.02h-2.96v-6.03h-5.68l-4,6.03h-3.55l4.44-6.5c-1.38-.43-2.43-1.14-3.17-2.13-.74-.99-1.1-2.23-1.1-3.71,0-2.18,.71-3.83,2.14-4.97,1.42-1.14,3.39-1.7,5.89-1.7h7.99Zm-11.49,9.6c.77,.61,1.92,.92,3.46,.92h5.06v-7.5h-4.93c-3.17,0-4.75,1.26-4.75,3.77,0,1.27,.38,2.21,1.15,2.82Z"/><path class="d" d="M192.04,22.59v16.44c0,3.33-.75,5.78-2.24,7.38-1.49,1.59-3.73,2.39-6.72,2.39-1.63,0-3.19-.25-4.67-.74s-2.69-1.19-3.63-2.1l1.62-2.66c.8,.77,1.77,1.36,2.91,1.79,1.14,.43,2.34,.65,3.6,.65,2,0,3.47-.52,4.41-1.56,.94-1.04,1.41-2.64,1.41-4.79v-1.4c-.67,.91-1.53,1.61-2.58,2.1s-2.21,.74-3.45,.74c-2.43,0-4.35-.69-5.75-2.08-1.4-1.39-2.1-3.45-2.1-6.17v-9.98h3.31v9.58c0,1.82,.42,3.2,1.27,4.14s2.07,1.42,3.65,1.42c1.75,0,3.12-.55,4.13-1.65,1.01-1.1,1.52-2.66,1.52-4.67v-8.83h3.31Z"/><path class="d" d="M210.71,24.42c1.33,.79,2.37,1.88,3.12,3.28,.75,1.4,1.12,3,1.12,4.79s-.4,3.48-1.19,4.9c-.79,1.42-1.91,2.53-3.34,3.32-1.44,.79-3.07,1.18-4.91,1.18-3.1,0-5.5-1.11-7.18-3.32-1.69-2.21-2.53-5.33-2.53-9.35s.77-6.96,2.31-9.17c1.54-2.21,3.89-3.68,7.06-4.4l8.34-1.94,.48,3.16-7.68,1.72c-2.39,.55-4.17,1.48-5.34,2.8-1.17,1.32-1.84,3.21-2,5.67,.78-1.22,1.79-2.17,3.03-2.83s2.63-1,4.17-1c1.7,0,3.21,.4,4.55,1.18Zm-2.02,13.78c.91-.55,1.61-1.31,2.12-2.28s.76-2.08,.76-3.32c0-1.89-.55-3.41-1.65-4.56-1.1-1.15-2.55-1.72-4.34-1.72s-3.24,.57-4.36,1.72c-1.12,1.15-1.67,2.67-1.67,4.56,0,1.24,.26,2.35,.77,3.32s1.23,1.73,2.15,2.28c.92,.55,1.95,.83,3.1,.83s2.21-.27,3.12-.83Z"/><path class="d" d="M221.05,40.57c-1.45-.84-2.58-1.99-3.39-3.46-.82-1.47-1.22-3.14-1.22-5.01s.41-3.54,1.22-5.01c.81-1.47,1.95-2.62,3.39-3.45,1.45-.83,3.08-1.24,4.89-1.24s3.44,.41,4.88,1.24c1.43,.83,2.56,1.97,3.38,3.45,.82,1.47,1.22,3.14,1.22,5.01s-.41,3.54-1.22,5.01c-.82,1.47-1.94,2.63-3.38,3.46-1.44,.84-3.06,1.26-4.88,1.26s-3.45-.42-4.89-1.26Zm8.04-2.6c.93-.56,1.66-1.35,2.19-2.37,.53-1.02,.79-2.18,.79-3.5s-.26-2.48-.79-3.5-1.26-1.8-2.19-2.35c-.93-.55-1.98-.83-3.15-.83s-2.22,.28-3.15,.83c-.93,.55-1.67,1.33-2.21,2.35s-.81,2.18-.81,3.5,.27,2.48,.81,3.5c.54,1.02,1.28,1.81,2.21,2.37,.93,.56,1.98,.84,3.15,.84s2.22-.28,3.15-.84Z"/><path class="d" d="M252.21,23.63c1.41,.81,2.5,1.96,3.27,3.43,.77,1.47,1.15,3.17,1.15,5.08s-.38,3.57-1.14,5.04c-.76,1.47-1.81,2.61-3.17,3.43s-2.91,1.22-4.65,1.22c-1.38,0-2.62-.26-3.72-.77-1.1-.51-2.02-1.26-2.76-2.24v9.76h-3.34v-16.4c0-1.91,.4-3.61,1.19-5.1,.79-1.48,1.91-2.63,3.34-3.44,1.43-.81,3.08-1.22,4.94-1.22s3.46,.41,4.88,1.22Zm-1.81,14.34c.94-.56,1.67-1.35,2.19-2.37,.52-1.02,.78-2.17,.78-3.46s-.26-2.45-.78-3.46c-.52-1.02-1.24-1.81-2.17-2.39-.93-.57-1.99-.86-3.19-.86-1.81,0-3.28,.62-4.41,1.85-1.12,1.23-1.69,2.84-1.69,4.83,0,1.32,.26,2.48,.78,3.5,.52,1.02,1.23,1.81,2.15,2.37,.92,.56,1.98,.84,3.17,.84s2.23-.28,3.17-.84Z"/><path class="d" d="M267,33.57h-3.79v8.04h-3.31V22.59h3.31v8.04h3.86l5.92-8.04h3.55l-6.92,9.15,7.41,9.87h-3.89l-6.13-8.04Z"/><path class="d" d="M295.25,22.59v19.02h-3.17v-2.8c-.67,.96-1.54,1.7-2.62,2.22-1.08,.53-2.26,.79-3.55,.79-2.43,0-4.35-.7-5.75-2.1-1.4-1.4-2.1-3.46-2.1-6.19v-10.95h3.31v10.55c0,1.84,.42,3.24,1.27,4.18,.85,.95,2.07,1.42,3.65,1.42,1.75,0,3.12-.55,4.13-1.65s1.52-2.66,1.52-4.67v-9.83h3.31Z"/></g><path class="d" d="M38.1,51.44c-.04,1.66-.13,3.32-.09,4.98,.04,2.01-.9,2.82-2.88,2.81-7.96-.04-15.93-.03-23.89,0-1.86,0-2.73-.83-2.72-2.7,.02-2.62-.04-5.25-.06-7.87,.02-1.22,.17-2.46,.05-3.67-.36-3.62,.55-6.85,2.35-10,1.99-3.49,3.74-7.13,5.41-10.79,1.03-2.26,1.73-5.19-.16-6.85-3-2.65-3.75-5.65-3.44-9.28,.16-.21,.38-.39,.48-.62C15.62,1.3,20.13-.66,26.59,.19c4.13,.54,8.39,.15,12.59,.08,2.08-.03,3.19,.77,3.01,2.93-.21,2.48,.65,5.08-.75,7.45-1.4,.06-2.8,.23-4.19,.15-1.63-.1-3.11,.13-3.63,1.82-.52,1.69,1.08,2.05,2.15,2.69,.93,.55,1.4,1.38,1.04,2.43-.39,1.12-1.27,1.62-2.48,1.48-.99-.12-1.8-.63-2.58-1.21-.46-.34-.81-1.14-1.5-.8-.69,.34-.69,1.13-.69,1.86,.01,4.38,.12,8.76-.05,13.13-.08,2.2,.43,3.88,2.21,5.22,4.67,3.51,7.47,7.9,6.37,14.04Zm-7.48-9.42c-5.72-3.03-5.66-8.09-5.26-13.29,.01-.17,.05-.37,0-.52-.34-.86,.79-2.52-.78-2.55-1.67-.04-3.82-1.2-4.99,1.37-1.71,3.73-3.63,7.36-5.47,11.04q-2,3.99,2.41,4.31c.09,0,.18,0,.26,0,1.34,.05,2.21,.74,2.23,2.07,.02,1.34-.83,2.07-2.16,2.13-1.05,.05-2.1,.04-3.15,0-.88-.03-.97,.48-.96,1.17,0,.66,.28,.94,.93,.93,1.14,0,2.28-.06,3.41,.04,1.21,.1,1.94,.86,1.94,2.07,0,1.21-.74,1.96-1.95,2.07-1.04,.09-2.1,.04-3.15,.03-.67,0-1.17,.05-1.2,.95-.03,.96,.39,1.17,1.24,1.17,6.22-.02,12.43-.01,18.65,0,.67,0,1.15-.08,1.18-.96,.04-.99-.43-1.2-1.27-1.15-.61,.04-1.23-.02-1.84,0-1.62,.07-3.2-.14-3.17-2.17,.03-1.84,1.52-1.92,3.02-2.12,1.06-.14,3.07,1.18,3.13-.93,.07-2.24-1.99-.88-3.03-1.02-1.47-.2-2.98-.19-3.12-2.02-.15-1.85,1.27-2.27,3.1-2.62ZM25.9,4.5c-3,.06-6.14-.84-7.92,3.11-1.37,3.06-1.52,4.44,1.19,6.71,1.3,1.08,6.83,1.07,7.79-.13,1.48-1.83,2.95-3.68,4.21-5.65,1.54-2.39,.6-4.03-2.15-4.04-1.05,0-2.09,0-3.14,0Zm-2.56,14.7c-.65,.4-2-.75-2.17,.93-.17,1.71,1.15,1.23,1.94,1.15,.77-.08,2.07,.8,2.24-.86,.18-1.71-1.14-1.05-2.01-1.22Zm14.63-13.78c.16-.79-.35-.91-1.06-.93-.81-.02-1.02,.34-1.03,1.09,0,.81,.35,1.03,1.1,1.03,.81,0,1.1-.34,.99-1.19Z"/><path class="e" d="M38.1,51.44c1.1-6.14-1.69-10.53-6.37-14.04-1.78-1.34-2.29-3.02-2.21-5.22,.17-4.37,.06-8.75,.05-13.13,0-.72,0-1.51,.69-1.86,.69-.34,1.04,.46,1.5,.8,.78,.58,1.59,1.09,2.58,1.21,1.2,.14,2.09-.36,2.48-1.48,.36-1.05-.11-1.88-1.04-2.43-1.07-.63-2.67-.99-2.15-2.69,.52-1.69,2-1.92,3.63-1.82,1.39,.09,2.79-.09,4.19-.15,3.39,1.74,5.17,4.89,6.74,8.09,5.45,11.11,1.87,24.77-8.22,31.77-.57,.39-1.24,.63-1.86,.94Z"/><path class="e" d="M12.66,8.07c-.31,3.63,.44,6.64,3.44,9.28,1.89,1.67,1.19,4.6,.16,6.85-1.68,3.66-3.43,7.29-5.41,10.79-1.79,3.15-2.71,6.38-2.35,10,.12,1.21-.02,2.45-.05,3.67C-3.63,37.79-2.61,18.68,10.58,9.14c.63-.45,1.38-.72,2.08-1.08Z"/><path class="f" d="M30.62,42.02c-1.82,.35-3.25,.78-3.1,2.62,.15,1.83,1.65,1.82,3.12,2.02,1.04,.14,3.1-1.22,3.03,1.02-.06,2.11-2.06,.79-3.13,.93-1.5,.2-2.99,.28-3.02,2.12-.03,2.03,1.55,2.24,3.17,2.17,.61-.03,1.23,.03,1.84,0,.83-.05,1.3,.16,1.27,1.15-.03,.88-.51,.96-1.18,.96-6.22,0-12.43-.01-18.65,0-.86,0-1.28-.21-1.24-1.17,.03-.89,.53-.95,1.2-.95,1.05,.01,2.11,.06,3.15-.03,1.21-.11,1.94-.86,1.95-2.07,0-1.21-.73-1.97-1.94-2.07-1.13-.1-2.27-.05-3.41-.04-.65,0-.93-.27-.93-.93,0-.69,.08-1.2,.96-1.17,1.05,.03,2.1,.04,3.15,0,1.34-.06,2.18-.79,2.16-2.13-.02-1.33-.89-2.02-2.23-2.07-.09,0-.18,0-.26,0q-4.41-.32-2.41-4.31c1.84-3.67,3.76-7.3,5.47-11.04,1.18-2.58,3.32-1.41,4.99-1.37,1.57,.03,.45,1.69,.78,2.55,.06,.15,.02,.35,0,.52-.4,5.2-.46,10.26,5.26,13.29Z"/><path class="f" d="M25.9,4.5c1.05,0,2.09,0,3.14,0,2.75,0,3.69,1.64,2.15,4.04-1.27,1.97-2.74,3.82-4.21,5.65-.96,1.19-6.5,1.21-7.79,.13-2.71-2.27-2.57-3.65-1.19-6.71,1.77-3.94,4.91-3.05,7.92-3.11Z"/><path class="f" d="M23.34,19.21c.87,.18,2.19-.48,2.01,1.22-.18,1.66-1.47,.78-2.24,.86-.79,.08-2.11,.56-1.94-1.15,.17-1.69,1.52-.53,2.17-.93Z"/><path class="f" d="M37.97,5.43c.11,.84-.18,1.19-.99,1.19-.75,0-1.1-.22-1.1-1.03,0-.75,.21-1.12,1.03-1.09,.71,.02,1.22,.15,1.06,.93Z"/></g></g></svg>