<svg width="20" height="20" viewBox="0 0 20 20" fill="none" xmlns="http://www.w3.org/2000/svg">
<path d="M17.8951 9.47255H20.0004C20.0004 4.07255 15.9235 -8.39233e-05 10.5162 -8.39233e-05V2.10518C14.792 2.10518 17.8951 5.20308 17.8951 9.47255Z" fill="#33415C"/>
<path d="M10.5266 6.3157C12.7403 6.3157 13.6845 7.25991 13.6845 9.47359H15.7898C15.7898 6.07885 13.9214 4.21043 10.5266 4.21043V6.3157ZM14.1287 12.0452C13.9265 11.8613 13.6607 11.7633 13.3875 11.7717C13.1143 11.7802 12.855 11.8945 12.6645 12.0904L10.1456 14.681C9.53925 14.5652 8.3203 14.1852 7.06556 12.9336C5.81083 11.6778 5.43083 10.4557 5.31819 9.85359L7.90662 7.33359C8.10284 7.1432 8.21729 6.88393 8.22573 6.61065C8.23418 6.33737 8.13597 6.07153 7.95188 5.86938L4.0624 1.59254C3.87824 1.38975 3.62228 1.26675 3.34888 1.24965C3.07548 1.23255 2.80619 1.3227 2.59819 1.50096L0.313981 3.45991C0.131993 3.64255 0.02337 3.88564 0.00871786 4.14306C-0.00707162 4.40622 -0.308124 10.6399 4.52556 15.4757C8.74241 19.6915 14.0245 19.9999 15.4793 19.9999C15.6919 19.9999 15.8224 19.9936 15.8571 19.9915C16.1145 19.9771 16.3575 19.868 16.5393 19.6852L18.4971 17.3999C18.6755 17.192 18.7659 16.9228 18.749 16.6494C18.7321 16.376 18.6093 16.12 18.4066 15.9357L14.1287 12.0452V12.0452Z" fill="#33415C"/>
</svg>
