<svg width="28" height="16" viewBox="0 0 28 16" fill="none" xmlns="http://www.w3.org/2000/svg">
<path fill-rule="evenodd" clip-rule="evenodd" d="M27.141 1.05738C27.3331 0.448385 27.141 0 26.2209 0H23.1828C22.4096 0 22.0531 0.387039 21.8599 0.814231C21.8599 0.814231 20.3148 4.379 18.1261 6.69454C17.4178 7.366 17.0961 7.57904 16.7095 7.57904C16.5162 7.57904 16.2257 7.366 16.2257 6.75589V1.05738C16.2257 0.325692 16.0128 0 15.3693 0H10.5916C10.109 0 9.81845 0.339077 9.81845 0.661423C9.81845 1.35408 10.9133 1.51469 11.0256 3.46438V7.70062C11.0256 8.62973 10.8485 8.79815 10.462 8.79815C9.43188 8.79815 6.92615 5.21665 5.43891 1.11873C5.15072 0.321231 4.85906 0 4.08246 0H1.04201C0.173974 0 0.000366211 0.387039 0.000366211 0.814231C0.000366211 1.57492 1.03044 5.35385 4.79772 10.3519C7.30924 13.765 10.845 15.6154 14.066 15.6154C15.9977 15.6154 16.2361 15.2049 16.2361 14.4967V11.9168C16.2361 11.0947 16.419 10.9308 17.0313 10.9308C17.4826 10.9308 18.2546 11.1449 20.0578 12.7901C22.118 14.7409 22.4571 15.6154 23.6168 15.6154H26.6549C27.5229 15.6154 27.9581 15.2049 27.7081 14.3929C27.4327 13.5854 26.4489 12.4131 25.1445 11.0222C24.4362 10.2303 23.3737 9.37704 23.0508 8.94985C22.6006 8.40219 22.7291 8.15792 23.0508 7.6705C23.0508 7.6705 26.7544 2.73381 27.1398 1.05738H27.141Z" fill="#33415C"/>
</svg>
