<?xml version="1.0" encoding="UTF-8"?><svg xmlns="http://www.w3.org/2000/svg" viewBox="0 0 68.95 68.27"><defs><style>.d{fill:#59aaa4;}</style></defs><g id="a"/><g id="b"><g id="c"><path class="d" d="M68.95,34.48c0,12.08-6.21,22.7-15.61,28.86-.05-.27-.11-.54-.16-.81-.98-4.88-2.44-9.69-4.55-13.87-2.34-4.62-3.6-8.47-4.29-11.13h.38c0-6.13,3.71-6.78,6.67-6.4,.37,.04,.58-.43,.31-.69l-7.31-7.31c-1.03-1.03-2.42-1.61-3.88-1.61H20.44v5.46h4.78c1.31,0,2.31,1.16,2.12,2.45-.31,2.11-1.2,5.22-3.75,7.77-1.88,1.88-3.22,2.33-3.22,2.33,5.27,1.6,7.24-4.56,10.1-7.26,.25-.23,.64-.39,1.11-.46,2.01-.31,3.82,1.3,3.82,3.34v2.41h.84c-.29,1.35-.89,3.92-1.91,7.37-1.29,4.34-4.28,9.17-5.74,16.89-.34,1.85-.63,3.72-.86,5.59-.04,.3-.08,.6-.11,.9C11.86,65.09,0,51.17,0,34.48,0,23.33,5.29,13.42,13.49,7.13c.22-.17,.43-.33,.65-.49C19.84,2.47,26.87,0,34.48,0c10.94,0,20.69,5.1,27.01,13.05,4.67,5.89,7.46,13.33,7.46,21.43Z"/></g></g></svg>